SplineFontDB: 3.2
FontName: binaryv15m
FullName: binaryv15m
FamilyName: binaryv15m
Weight: Regular
Copyright: Copyright 2022 The Noto Project Authors (https://github.com/notofonts/latin-greek-cyrillic)
Version: 2.013
ItalicAngle: 0
UnderlinePosition: -125
UnderlineWidth: 50
Ascent: 800
Descent: 200
InvalidEm: 0
sfntRevision: 0x00020354
LayerCount: 2
Layer: 0 1 "Back" 1
Layer: 1 1 "Fore" 0
XUID: [1021 426 849761687 13685114]
StyleMap: 0x0040
FSType: 0
OS2Version: 4
OS2_WeightWidthSlopeOnly: 0
OS2_UseTypoMetrics: 1
CreationTime: 1633362791
ModificationTime: 1741208876
PfmFamily: 17
TTFWeight: 400
TTFWidth: 5
LineGap: 0
VLineGap: 0
Panose: 2 11 5 2 4 5 4 2 2 4
OS2TypoAscent: 1069
OS2TypoAOffset: 0
OS2TypoDescent: -293
OS2TypoDOffset: 0
OS2TypoLinegap: 0
OS2WinAscent: 1124
OS2WinAOffset: 0
OS2WinDescent: 395
OS2WinDOffset: 0
HheadAscent: 1069
HheadAOffset: 0
HheadDescent: -293
HheadDOffset: 0
OS2SubXSize: 650
OS2SubYSize: 600
OS2SubXOff: 0
OS2SubYOff: 75
OS2SupXSize: 650
OS2SupYSize: 600
OS2SupXOff: 0
OS2SupYOff: 350
OS2StrikeYSize: 50
OS2StrikeYPos: 322
OS2CapHeight: 714
OS2XHeight: 536
OS2Vendor: 'GOOG'
OS2CodePages: 0000019f.00000000
OS2UnicodeRanges: e00002ff.4000201f.08000029.00100000
MarkAttachClasses: 3

StartChar: exclam
Encoding: 33 33 3
Width: 540
Flags: W
LayerCount: 2
Fore
SplineSet
265 112 m 0,0,1
 249 112 249 112 240 123 c 128,-1,2
 231 134 231 134 226.5 161 c 128,-1,3
 222 188 222 188 221 233.5 c 128,-1,4
 220 279 220 279 220 348 c 0,5,6
 220 445 220 445 221 499 c 128,-1,7
 222 553 222 553 228 579 c 128,-1,8
 234 605 234 605 246.5 610.5 c 128,-1,9
 259 616 259 616 282 616 c 0,10,11
 294 616 294 616 301 609 c 128,-1,12
 308 602 308 602 312.5 579 c 128,-1,13
 317 556 317 556 318.5 511 c 128,-1,14
 320 466 320 466 320 389 c 0,15,16
 320 249 320 249 310 180.5 c 128,-1,17
 300 112 300 112 265 112 c 0,0,1
252 593 m 0,18,19
 248 593 248 593 242 581 c 128,-1,20
 236 569 236 569 236 544 c 0,21,22
 236 531 236 531 237.5 518.5 c 128,-1,23
 239 506 239 506 246 506 c 0,24,25
 252 506 252 506 254 510 c 128,-1,26
 256 514 256 514 256 519.5 c 128,-1,27
 256 525 256 525 255.5 532 c 128,-1,28
 255 539 255 539 255 545 c 0,29,30
 256 562 256 562 258 577.5 c 128,-1,31
 260 593 260 593 252 593 c 0,18,19
266 -8 m 0,32,33
 247 -8 247 -8 235.5 4.5 c 128,-1,34
 224 17 224 17 224 38 c 0,35,36
 224 57 224 57 234 73.5 c 128,-1,37
 244 90 244 90 266 90 c 0,38,39
 289 90 289 90 301 74.5 c 128,-1,40
 313 59 313 59 313 38 c 0,41,42
 313 15 313 15 299.5 3.5 c 128,-1,43
 286 -8 286 -8 266 -8 c 0,32,33
248 44 m 0,44,45
 249 55 249 55 253 64 c 128,-1,46
 257 73 257 73 252 73 c 0,47,48
 245 73 245 73 240.5 58.5 c 128,-1,49
 236 44 236 44 236 33 c 0,50,51
 236 23 236 23 241 23 c 0,52,53
 245 23 245 23 246 30.5 c 128,-1,54
 247 38 247 38 248 44 c 0,44,45
EndSplineSet
EndChar

StartChar: quotedbl
Encoding: 34 34 4
Width: 540
Flags: W
LayerCount: 2
Fore
SplineSet
226 714 m 1,0,-1
 206 456 l 1,1,-1
 151 456 l 1,2,-1
 131 714 l 1,3,-1
 226 714 l 1,0,-1
409 714 m 1,4,-1
 389 456 l 1,5,-1
 334 456 l 1,6,-1
 314 714 l 1,7,-1
 409 714 l 1,4,-1
EndSplineSet
EndChar

StartChar: numbersign
Encoding: 35 35 5
Width: 540
Flags: W
LayerCount: 2
Fore
SplineSet
72 0 m 1,0,-1
 110 199 l 1,1,-1
 2 199 l 1,2,-1
 2 266 l 1,3,-1
 123 266 l 1,4,-1
 155 419 l 5,5,-1
 28 419 l 5,6,-1
 28 485 l 5,7,-1
 167 485 l 5,8,-1
 207 687 l 5,9,-1
 279 687 l 5,10,-1
 239 485 l 5,11,-1
 363 485 l 5,12,-1
 403 687 l 5,13,-1
 472 687 l 5,14,-1
 432 485 l 5,15,-1
 538 485 l 5,16,-1
 538 419 l 5,17,-1
 419 419 l 5,18,-1
 388 266 l 1,19,-1
 517 266 l 1,20,-1
 517 199 l 1,21,-1
 375 199 l 1,22,-1
 334 0 l 1,23,-1
 263 0 l 1,24,-1
 304 199 l 1,25,-1
 181 199 l 1,26,-1
 142 0 l 1,27,-1
 72 0 l 1,0,-1
194 266 m 1,28,-1
 317 266 l 1,29,-1
 348 419 l 5,30,-1
 225 419 l 5,31,-1
 194 266 l 1,28,-1
EndSplineSet
EndChar

StartChar: dollar
Encoding: 36 36 6
Width: 540
Flags: W
LayerCount: 2
Fore
SplineSet
334.981445312 739.662109375 m 260,0,1
 361.59375 735.099609375 361.59375 735.099609375 369.717773438 714.4296875 c 132,-1,2
 377.860351562 693.711914062 377.860351562 693.711914062 374.80078125 676.018554688 c 6,3,-1
 260.609375 15.8212890625 l 6,4,5
 257.90625 0.05078125 257.90625 0.05078125 245.529296875 -10.0029296875 c 132,-1,6
 233.15234375 -20.0556640625 233.15234375 -20.0556640625 213.440429688 -16.6767578125 c 4,7,8
 205.555664062 -15.3251953125 205.555664062 -15.3251953125 193.108398438 -5.07421875 c 4,9,10
 178.859375 6.5 178.859375 6.5 181.731445312 23.2548828125 c 6,11,-1
 295.106445312 684.607421875 l 6,12,13
 298.823242188 706.291015625 298.823242188 706.291015625 303.596679688 725.2578125 c 132,-1,14
 308.370117188 744.223632812 308.370117188 744.223632812 334.981445312 739.662109375 c 260,0,1
236.194335938 33.1962890625 m 4,15,16
 234.334960938 22.3544921875 234.334960938 22.3544921875 230.604492188 15.384765625 c 132,-1,17
 226.873046875 8.4150390625 226.873046875 8.4150390625 224.633789062 4.232421875 c 132,-1,18
 222.395507812 0.05078125 222.395507812 0.05078125 222.057617188 -1.919921875 c 132,-1,19
 221.719726562 -3.8916015625 221.719726562 -3.8916015625 226.647460938 -4.736328125 c 4,20,21
 232.561523438 -5.75 232.561523438 -5.75 236.940429688 -0.9208984375 c 132,-1,22
 241.319335938 3.9091796875 241.319335938 3.9091796875 244.557617188 10.962890625 c 132,-1,23
 247.795898438 18.017578125 247.795898438 18.017578125 249.556640625 25.3251953125 c 132,-1,24
 251.31640625 32.6328125 251.31640625 32.6328125 252.161132812 37.560546875 c 4,25,26
 254.357421875 50.3740234375 254.357421875 50.3740234375 253.174804688 61.2294921875 c 132,-1,27
 251.9921875 72.0859375 251.9921875 72.0859375 246.078125 73.099609375 c 4,28,29
 243.12109375 73.6064453125 243.12109375 73.6064453125 241.868164062 69.255859375 c 132,-1,30
 240.615234375 64.9052734375 240.615234375 64.9052734375 239.432617188 58.005859375 c 132,-1,31
 238.25 51.1064453125 238.25 51.1064453125 237.559570312 44.1220703125 c 132,-1,32
 236.870117188 37.138671875 236.870117188 37.138671875 236.194335938 33.1962890625 c 4,15,16
249 81 m 0,33,34
 199 81 199 81 153.5 90 c 128,-1,35
 108 99 108 99 75 115 c 1,36,-1
 75 198 l 1,37,38
 110 182 110 182 152.5 168.5 c 128,-1,39
 195 155 195 155 254 155 c 0,40,41
 320 155 320 155 347.5 175.5 c 128,-1,42
 375 196 375 196 375 235 c 0,43,44
 375 256 375 256 365.5 269.5 c 128,-1,45
 356 283 356 283 329 297 c 128,-1,46
 302 311 302 311 250 333 c 0,47,48
 198 356 198 356 161 376 c 128,-1,49
 124 396 124 396 104 423.5 c 128,-1,50
 84 451 84 451 84 494 c 0,51,52
 84 542 84 542 108.5 573.5 c 128,-1,53
 133 605 133 605 179.5 621 c 128,-1,54
 226 637 226 637 290 637 c 0,55,56
 334 637 334 637 374 629 c 128,-1,57
 414 621 414 621 457 603 c 1,58,-1
 430 533 l 1,59,60
 390 550 390 550 356.5 556 c 128,-1,61
 323 562 323 562 290 562 c 0,62,63
 228 562 228 562 199.5 546 c 128,-1,64
 171 530 171 530 171 496 c 0,65,66
 171 474 171 474 183.5 459 c 128,-1,67
 196 444 196 444 224.5 430 c 128,-1,68
 253 416 253 416 300 396 c 0,69,70
 353 374 353 374 390 355 c 128,-1,71
 427 336 427 336 446 309.5 c 128,-1,72
 465 283 465 283 465 237 c 0,73,74
 465 186 465 186 440.5 151.5 c 128,-1,75
 416 117 416 117 368 99 c 128,-1,76
 320 81 320 81 249 81 c 0,33,34
EndSplineSet
EndChar

StartChar: percent
Encoding: 37 37 7
Width: 540
Flags: W
LayerCount: 2
Fore
SplineSet
53 0 m 1,0,-1
 409 714 l 1,1,-1
 486 714 l 1,2,-1
 130 0 l 1,3,-1
 53 0 l 1,0,-1
426 -9 m 0,4,5
 365 -9 365 -9 324.5 35.5 c 128,-1,6
 284 80 284 80 284 161 c 256,7,8
 284 242 284 242 322.5 286 c 128,-1,9
 361 330 361 330 428 330 c 0,10,11
 489 330 489 330 529.5 286 c 128,-1,12
 570 242 570 242 570 161 c 256,13,14
 570 80 570 80 531 35.5 c 128,-1,15
 492 -9 492 -9 426 -9 c 0,4,5
427 49 m 256,16,17
 461 49 461 49 478 76 c 128,-1,18
 495 103 495 103 495 161 c 0,19,20
 495 220 495 220 478 245.5 c 128,-1,21
 461 271 461 271 427 271 c 256,22,23
 393 271 393 271 375.5 245.5 c 128,-1,24
 358 220 358 220 358 161 c 0,25,26
 358 103 358 103 375.5 76 c 128,-1,27
 393 49 393 49 427 49 c 256,16,17
112 383 m 0,28,29
 51 383 51 383 10.5 427.5 c 128,-1,30
 -30 472 -30 472 -30 553 c 256,31,32
 -30 634 -30 634 8.5 678 c 128,-1,33
 47 722 47 722 114 722 c 0,34,35
 175 722 175 722 215.5 678 c 128,-1,36
 256 634 256 634 256 553 c 256,37,38
 256 472 256 472 217 427.5 c 128,-1,39
 178 383 178 383 112 383 c 0,28,29
113 441 m 256,40,41
 147 441 147 441 164 468 c 128,-1,42
 181 495 181 495 181 553 c 0,43,44
 181 612 181 612 164 637.5 c 128,-1,45
 147 663 147 663 113 663 c 256,46,47
 79 663 79 663 61.5 637.5 c 128,-1,48
 44 612 44 612 44 553 c 0,49,50
 44 495 44 495 61.5 468 c 128,-1,51
 79 441 79 441 113 441 c 256,40,41
EndSplineSet
EndChar

StartChar: ampersand
Encoding: 38 38 8
Width: 540
Flags: W
LayerCount: 2
Fore
SplineSet
184 -10 m 0,0,1
 125 -10 125 -10 83.5 14 c 128,-1,2
 42 38 42 38 20.5 80.5 c 128,-1,3
 -1 123 -1 123 -1 176 c 0,4,5
 -1 233 -1 233 21.5 275.5 c 128,-1,6
 44 318 44 318 80 351.5 c 128,-1,7
 116 385 116 385 157 414 c 0,8,9
 180 430 180 430 208 454 c 128,-1,10
 236 478 236 478 257 509.5 c 128,-1,11
 278 541 278 541 278 580 c 0,12,13
 278 616 278 616 259 636 c 128,-1,14
 240 656 240 656 209 656 c 256,15,16
 178 656 178 656 159.5 635 c 128,-1,17
 141 614 141 614 141 576 c 0,18,19
 141 550 141 550 149.5 522 c 128,-1,20
 158 494 158 494 172.5 468 c 128,-1,21
 187 442 187 442 204 420 c 2,22,-1
 541 0 l 1,23,-1
 434 0 l 1,24,-1
 152 364 l 2,25,26
 130 393 130 393 108.5 427 c 128,-1,27
 87 461 87 461 73 499.5 c 128,-1,28
 59 538 59 538 59 578 c 0,29,30
 59 644 59 644 99 684.5 c 128,-1,31
 139 725 139 725 209 725 c 256,32,33
 279 725 279 725 319 684.5 c 128,-1,34
 359 644 359 644 359 580 c 0,35,36
 359 530 359 530 336 490 c 128,-1,37
 313 450 313 450 278 418.5 c 128,-1,38
 243 387 243 387 208 359 c 0,39,40
 179 336 179 336 150.5 310.5 c 128,-1,41
 122 285 122 285 103.5 253.5 c 128,-1,42
 85 222 85 222 85 181 c 0,43,44
 85 133 85 133 114 100 c 128,-1,45
 143 67 143 67 194 67 c 0,46,47
 231 67 231 67 263.5 84.5 c 128,-1,48
 296 102 296 102 323 132 c 128,-1,49
 350 162 350 162 370.5 198.5 c 128,-1,50
 391 235 391 235 404.5 274 c 128,-1,51
 418 313 418 313 424 349 c 1,52,-1
 507 349 l 1,53,54
 497 292 497 292 477.5 239 c 128,-1,55
 458 186 458 186 429 140.5 c 128,-1,56
 400 95 400 95 363 61.5 c 128,-1,57
 326 28 326 28 281 9 c 128,-1,58
 236 -10 236 -10 184 -10 c 0,0,1
EndSplineSet
EndChar

StartChar: quotesingle
Encoding: 39 39 9
Width: 540
Flags: W
LayerCount: 2
Fore
SplineSet
317.5 714 m 1,0,-1
 297.5 456 l 1,1,-1
 242.5 456 l 1,2,-1
 222.5 714 l 1,3,-1
 317.5 714 l 1,0,-1
EndSplineSet
EndChar

StartChar: parenleft
Encoding: 40 40 10
Width: 540
Flags: W
LayerCount: 2
Fore
SplineSet
334.5 -72 m 0,0,1
 280.5 -51 280.5 -51 244 -13 c 128,-1,2
 207.5 25 207.5 25 185 71.5 c 128,-1,3
 162.5 118 162.5 118 152.5 169.5 c 128,-1,4
 142.5 221 142.5 221 142.5 269 c 0,5,6
 142.5 315 142.5 315 151 363 c 128,-1,7
 159.5 411 159.5 411 175 456 c 128,-1,8
 190.5 501 190.5 501 213.5 540.5 c 128,-1,9
 236.5 580 236.5 580 264.5 609 c 0,10,11
 291.5 636 291.5 636 316.5 654 c 128,-1,12
 341.5 672 341.5 672 361.5 672 c 0,13,14
 376.5 672 376.5 672 385.5 660 c 128,-1,15
 394.5 648 394.5 648 394.5 636 c 0,16,17
 394.5 628 394.5 628 382 617 c 128,-1,18
 369.5 606 369.5 606 346.5 582 c 0,19,20
 316.5 550 316.5 550 296.5 512 c 128,-1,21
 276.5 474 276.5 474 264.5 433.5 c 128,-1,22
 252.5 393 252.5 393 248 351.5 c 128,-1,23
 243.5 310 243.5 310 243.5 272 c 256,24,25
 243.5 234 243.5 234 249.5 192.5 c 128,-1,26
 255.5 151 255.5 151 269.5 113 c 128,-1,27
 283.5 75 283.5 75 306.5 43.5 c 128,-1,28
 329.5 12 329.5 12 363.5 -7 c 0,29,30
 380.5 -16 380.5 -16 389 -22.5 c 128,-1,31
 397.5 -29 397.5 -29 397.5 -43 c 0,32,33
 397.5 -56 397.5 -56 384.5 -66 c 128,-1,34
 371.5 -76 371.5 -76 354.5 -76 c 0,35,36
 343.5 -76 343.5 -76 334.5 -72 c 0,0,1
320.5 620 m 0,37,38
 325.5 625 325.5 625 331.5 630.5 c 128,-1,39
 337.5 636 337.5 636 330.5 636 c 0,40,41
 322.5 636 322.5 636 312 628.5 c 128,-1,42
 301.5 621 301.5 621 291.5 611 c 128,-1,43
 281.5 601 281.5 601 275 590.5 c 128,-1,44
 268.5 580 268.5 580 268.5 574 c 0,45,46
 268.5 569 268.5 569 272.5 569 c 0,47,48
 277.5 569 277.5 569 282 575.5 c 128,-1,49
 286.5 582 286.5 582 289.5 587 c 0,50,51
 293.5 594 293.5 594 300.5 601.5 c 128,-1,52
 307.5 609 307.5 609 320.5 620 c 0,37,38
262.5 547 m 0,53,54
 262.5 555 262.5 555 256.5 555 c 0,55,56
 244.5 555 244.5 555 244.5 547 c 0,57,58
 244.5 541 244.5 541 247.5 539.5 c 128,-1,59
 250.5 538 250.5 538 252.5 538 c 256,60,61
 254.5 538 254.5 538 258.5 539.5 c 128,-1,62
 262.5 541 262.5 541 262.5 547 c 0,53,54
EndSplineSet
EndChar

StartChar: parenright
Encoding: 41 41 11
Width: 540
Flags: W
LayerCount: 2
Fore
SplineSet
199 -93 m 0,0,1
 185 -93 185 -93 172.5 -84.5 c 128,-1,2
 160 -76 160 -76 160 -66 c 0,3,4
 160 -57 160 -57 170 -43 c 128,-1,5
 180 -29 180 -29 194.5 -8.5 c 128,-1,6
 209 12 209 12 226.5 41 c 128,-1,7
 244 70 244 70 258.5 108 c 128,-1,8
 273 146 273 146 283 195 c 128,-1,9
 293 244 293 244 293 305 c 0,10,11
 293 352 293 352 285.5 398.5 c 128,-1,12
 278 445 278 445 264 484 c 128,-1,13
 250 523 250 523 230.5 552 c 128,-1,14
 211 581 211 581 187 594 c 0,15,16
 175 601 175 601 161 610.5 c 128,-1,17
 147 620 147 620 147 638 c 0,18,19
 147 653 147 653 160 662.5 c 128,-1,20
 173 672 173 672 194 672 c 0,21,22
 231 672 231 672 267 646 c 128,-1,23
 303 620 303 620 331 572 c 128,-1,24
 359 524 359 524 376 455.5 c 128,-1,25
 393 387 393 387 393 302 c 0,26,27
 393 227 393 227 384.5 175 c 128,-1,28
 376 123 376 123 360.5 85 c 128,-1,29
 345 47 345 47 324 17 c 128,-1,30
 303 -13 303 -13 278 -44 c 0,31,32
 255 -73 255 -73 235.5 -83 c 128,-1,33
 216 -93 216 -93 199 -93 c 0,0,1
167 621 m 0,34,35
 171 621 171 621 174.5 628.5 c 128,-1,36
 178 636 178 636 178 644 c 0,37,38
 178 657 178 657 171 657 c 0,39,40
 167 657 167 657 163.5 649.5 c 128,-1,41
 160 642 160 642 160 634 c 0,42,43
 160 621 160 621 167 621 c 0,34,35
194 -60 m 256,44,45
 199 -50 199 -50 199.5 -40 c 128,-1,46
 200 -30 200 -30 196 -29 c 0,47,48
 194 -29 194 -29 190.5 -33 c 128,-1,49
 187 -37 187 -37 183.5 -43 c 128,-1,50
 180 -49 180 -49 177.5 -55 c 128,-1,51
 175 -61 175 -61 175 -64 c 0,52,53
 175 -72 175 -72 179 -73 c 0,54,55
 182 -74 182 -74 185.5 -72 c 128,-1,56
 189 -70 189 -70 194 -60 c 256,44,45
EndSplineSet
EndChar

StartChar: asterisk
Encoding: 42 42 12
Width: 540
Flags: W
LayerCount: 2
Fore
SplineSet
317.5 760 m 1,0,-1
 297.5 568 l 1,1,-1
 489.5 622 l 1,2,-1
 503.5 530 l 1,3,-1
 319.5 515 l 1,4,-1
 438.5 357 l 1,5,-1
 352.5 310 l 1,6,-1
 267.5 485 l 1,7,-1
 190.5 310 l 1,8,-1
 101.5 357 l 1,9,-1
 218.5 515 l 1,10,-1
 36.5 530 l 1,11,-1
 50.5 622 l 1,12,-1
 240.5 568 l 1,13,-1
 219.5 760 l 1,14,-1
 317.5 760 l 1,0,-1
EndSplineSet
EndChar

StartChar: plus
Encoding: 43 43 13
Width: 540
Flags: W
LayerCount: 2
Fore
SplineSet
306 388 m 1,0,-1
 505 388 l 1,1,-1
 505 317 l 1,2,-1
 306 317 l 1,3,-1
 306 111 l 1,4,-1
 234 111 l 1,5,-1
 234 317 l 1,6,-1
 35 317 l 1,7,-1
 35 388 l 1,8,-1
 234 388 l 1,9,-1
 234 595 l 1,10,-1
 306 595 l 1,11,-1
 306 388 l 1,0,-1
EndSplineSet
EndChar

StartChar: comma
Encoding: 44 44 14
Width: 540
Flags: W
LayerCount: 2
Fore
SplineSet
345.5 105 m 1,0,1
 336.5 70 336.5 70 322.5 29 c 128,-1,2
 308.5 -12 308.5 -12 292 -52.5 c 128,-1,3
 275.5 -93 275.5 -93 259.5 -129 c 1,4,-1
 194.5 -129 l 1,5,6
 204.5 -91 204.5 -91 214 -47.5 c 128,-1,7
 223.5 -4 223.5 -4 231.5 38.5 c 128,-1,8
 239.5 81 239.5 81 244.5 116 c 1,9,-1
 338.5 116 l 1,10,-1
 345.5 105 l 1,0,1
EndSplineSet
EndChar

StartChar: hyphen
Encoding: 45 45 15
Width: 540
Flags: W
LayerCount: 2
Fore
SplineSet
149 229 m 1,0,-1
 149 307 l 1,1,-1
 391 307 l 1,2,-1
 391 229 l 1,3,-1
 149 229 l 1,0,-1
EndSplineSet
EndChar

StartChar: period
Encoding: 46 46 16
Width: 540
Flags: W
LayerCount: 2
Fore
SplineSet
264.5 -8 m 0,0,1
 224.5 -8 224.5 -8 196 20 c 128,-1,2
 167.5 48 167.5 48 167.5 92 c 0,3,4
 167.5 116 167.5 116 176 137.5 c 128,-1,5
 184.5 159 184.5 159 199.5 174.5 c 128,-1,6
 214.5 190 214.5 190 235.5 199.5 c 128,-1,7
 256.5 209 256.5 209 281.5 209 c 0,8,9
 301.5 209 301.5 209 318.5 200.5 c 128,-1,10
 335.5 192 335.5 192 347.5 177 c 128,-1,11
 359.5 162 359.5 162 366 143 c 128,-1,12
 372.5 124 372.5 124 372.5 103 c 0,13,14
 372.5 76 372.5 76 364 55.5 c 128,-1,15
 355.5 35 355.5 35 340.5 21 c 128,-1,16
 325.5 7 325.5 7 306 -0.5 c 128,-1,17
 286.5 -8 286.5 -8 264.5 -8 c 0,0,1
227.5 165 m 0,18,19
 234.5 172 234.5 172 236 177 c 128,-1,20
 237.5 182 237.5 182 235.5 182 c 0,21,22
 227.5 182 227.5 182 218.5 174.5 c 128,-1,23
 209.5 167 209.5 167 202 156.5 c 128,-1,24
 194.5 146 194.5 146 189.5 134 c 128,-1,25
 184.5 122 184.5 122 184.5 112 c 0,26,27
 184.5 110 184.5 110 186 104 c 128,-1,28
 187.5 98 187.5 98 190.5 98 c 0,29,30
 194.5 98 194.5 98 200.5 120 c 0,31,32
 203.5 134 203.5 134 211.5 145.5 c 128,-1,33
 219.5 157 219.5 157 227.5 165 c 0,18,19
268.5 49 m 0,34,35
 280.5 49 280.5 49 297 63 c 128,-1,36
 313.5 77 313.5 77 313.5 103 c 0,37,38
 313.5 123 313.5 123 303 136.5 c 128,-1,39
 292.5 150 292.5 150 275.5 150 c 256,40,41
 258.5 150 258.5 150 244.5 136.5 c 128,-1,42
 230.5 123 230.5 123 230.5 99 c 256,43,44
 230.5 75 230.5 75 241.5 62 c 128,-1,45
 252.5 49 252.5 49 268.5 49 c 0,34,35
EndSplineSet
EndChar

StartChar: slash
Encoding: 47 47 17
Width: 540
Flags: W
LayerCount: 2
Fore
SplineSet
156.5 -77 m 0,0,1
 152.5 -77 152.5 -77 141 -75 c 128,-1,2
 129.5 -73 129.5 -73 117.5 -68.5 c 128,-1,3
 105.5 -64 105.5 -64 96.5 -57 c 128,-1,4
 87.5 -50 87.5 -50 87.5 -41 c 0,5,6
 87.5 -38 87.5 -38 98 -9.5 c 128,-1,7
 108.5 19 108.5 19 125.5 64 c 128,-1,8
 142.5 109 142.5 109 165 166 c 128,-1,9
 187.5 223 187.5 223 211.5 283 c 128,-1,10
 235.5 343 235.5 343 259.5 402 c 128,-1,11
 283.5 461 283.5 461 303.5 509.5 c 128,-1,12
 323.5 558 323.5 558 338.5 592 c 128,-1,13
 353.5 626 353.5 626 359.5 636 c 0,14,15
 366.5 647 366.5 647 378 656.5 c 128,-1,16
 389.5 666 389.5 666 403.5 666 c 0,17,18
 410.5 666 410.5 666 419 663.5 c 128,-1,19
 427.5 661 427.5 661 435 656.5 c 128,-1,20
 442.5 652 442.5 652 447.5 646 c 128,-1,21
 452.5 640 452.5 640 452.5 633 c 0,22,23
 452.5 625 452.5 625 444 599.5 c 128,-1,24
 435.5 574 435.5 574 424 544.5 c 128,-1,25
 412.5 515 412.5 515 401 487.5 c 128,-1,26
 389.5 460 389.5 460 383.5 447 c 0,27,28
 379.5 438 379.5 438 368.5 410.5 c 128,-1,29
 357.5 383 357.5 383 342.5 344.5 c 128,-1,30
 327.5 306 327.5 306 309.5 259.5 c 128,-1,31
 291.5 213 291.5 213 272.5 166.5 c 128,-1,32
 253.5 120 253.5 120 235 76 c 128,-1,33
 216.5 32 216.5 32 201 -2 c 128,-1,34
 185.5 -36 185.5 -36 173.5 -56.5 c 128,-1,35
 161.5 -77 161.5 -77 156.5 -77 c 0,0,1
131.5 -37 m 4,36,37
 135.5 -25 135.5 -25 143.5 -7 c 132,-1,38
 151.5 11 151.5 11 158.5 27.5 c 132,-1,39
 165.5 44 165.5 44 169 56.5 c 132,-1,40
 172.5 69 172.5 69 167.5 70 c 4,41,42
 165.5 71 165.5 71 160.5 71 c 132,-1,43
 155.5 71 155.5 71 152.5 66 c 4,44,45
 150.5 62 150.5 62 144 48.5 c 132,-1,46
 137.5 35 137.5 35 131 19.5 c 132,-1,47
 124.5 4 124.5 4 119.5 -10.5 c 132,-1,48
 114.5 -25 114.5 -25 114.5 -31 c 4,49,50
 114.5 -38 114.5 -38 122 -40 c 132,-1,51
 129.5 -42 129.5 -42 131.5 -37 c 4,36,37
EndSplineSet
EndChar

StartChar: zero
Encoding: 48 48 18
Width: 540
Flags: W
LayerCount: 2
Fore
SplineSet
64.5 85 m 0,0,1
 64.5 103 64.5 103 80 118 c 128,-1,2
 95.5 133 95.5 133 123.5 144.5 c 128,-1,3
 151.5 156 151.5 156 189 162.5 c 128,-1,4
 226.5 169 226.5 169 269.5 169 c 0,5,6
 313.5 169 313.5 169 351 162.5 c 128,-1,7
 388.5 156 388.5 156 416 144.5 c 128,-1,8
 443.5 133 443.5 133 459.5 118 c 128,-1,9
 475.5 103 475.5 103 475.5 85 c 0,10,11
 475.5 68 475.5 68 459.5 53 c 128,-1,12
 443.5 38 443.5 38 416 27 c 128,-1,13
 388.5 16 388.5 16 351 9.5 c 128,-1,14
 313.5 3 313.5 3 269.5 3 c 0,15,16
 226.5 3 226.5 3 189 9.5 c 128,-1,17
 151.5 16 151.5 16 123.5 27 c 128,-1,18
 95.5 38 95.5 38 80 53 c 128,-1,19
 64.5 68 64.5 68 64.5 85 c 0,0,1
144.5 85 m 256,20,21
 144.5 74 144.5 74 154 64.5 c 128,-1,22
 163.5 55 163.5 55 180.5 48.5 c 128,-1,23
 197.5 42 197.5 42 220.5 38 c 128,-1,24
 243.5 34 243.5 34 269.5 34 c 0,25,26
 296.5 34 296.5 34 319 38 c 128,-1,27
 341.5 42 341.5 42 358.5 48.5 c 128,-1,28
 375.5 55 375.5 55 385 64.5 c 128,-1,29
 394.5 74 394.5 74 394.5 85 c 256,30,31
 394.5 96 394.5 96 385 105.5 c 128,-1,32
 375.5 115 375.5 115 358.5 122 c 128,-1,33
 341.5 129 341.5 129 319 133 c 128,-1,34
 296.5 137 296.5 137 269.5 137 c 0,35,36
 243.5 137 243.5 137 220.5 133 c 128,-1,37
 197.5 129 197.5 129 180.5 122 c 128,-1,38
 163.5 115 163.5 115 154 105.5 c 128,-1,39
 144.5 96 144.5 96 144.5 85 c 256,20,21
64.5 272 m 0,40,41
 64.5 290 64.5 290 80 305 c 128,-1,42
 95.5 320 95.5 320 123.5 331.5 c 128,-1,43
 151.5 343 151.5 343 189 349 c 128,-1,44
 226.5 355 226.5 355 269.5 355 c 0,45,46
 313.5 355 313.5 355 351 349 c 128,-1,47
 388.5 343 388.5 343 416 331.5 c 128,-1,48
 443.5 320 443.5 320 459.5 305 c 128,-1,49
 475.5 290 475.5 290 475.5 272 c 0,50,51
 475.5 255 475.5 255 459.5 240 c 128,-1,52
 443.5 225 443.5 225 416 214 c 128,-1,53
 388.5 203 388.5 203 351 196 c 128,-1,54
 313.5 189 313.5 189 269.5 189 c 0,55,56
 226.5 189 226.5 189 189 196 c 128,-1,57
 151.5 203 151.5 203 123.5 214 c 128,-1,58
 95.5 225 95.5 225 80 240 c 128,-1,59
 64.5 255 64.5 255 64.5 272 c 0,40,41
144.5 272 m 256,60,61
 144.5 261 144.5 261 154 251.5 c 128,-1,62
 163.5 242 163.5 242 180.5 235 c 128,-1,63
 197.5 228 197.5 228 220.5 224 c 128,-1,64
 243.5 220 243.5 220 269.5 220 c 0,65,66
 296.5 220 296.5 220 319 224 c 128,-1,67
 341.5 228 341.5 228 358.5 235 c 128,-1,68
 375.5 242 375.5 242 385 251.5 c 128,-1,69
 394.5 261 394.5 261 394.5 272 c 256,70,71
 394.5 283 394.5 283 385 292.5 c 128,-1,72
 375.5 302 375.5 302 358.5 309 c 128,-1,73
 341.5 316 341.5 316 319 320 c 128,-1,74
 296.5 324 296.5 324 269.5 324 c 0,75,76
 243.5 324 243.5 324 220.5 320 c 128,-1,77
 197.5 316 197.5 316 180.5 309 c 128,-1,78
 163.5 302 163.5 302 154 292.5 c 128,-1,79
 144.5 283 144.5 283 144.5 272 c 256,60,61
64.5 461 m 256,80,81
 64.5 478 64.5 478 80 493.5 c 128,-1,82
 95.5 509 95.5 509 123.5 520 c 128,-1,83
 151.5 531 151.5 531 189 537.5 c 128,-1,84
 226.5 544 226.5 544 269.5 544 c 0,85,86
 313.5 544 313.5 544 351 537.5 c 128,-1,87
 388.5 531 388.5 531 416 520 c 128,-1,88
 443.5 509 443.5 509 459.5 493.5 c 128,-1,89
 475.5 478 475.5 478 475.5 461 c 256,90,91
 475.5 444 475.5 444 459.5 429 c 128,-1,92
 443.5 414 443.5 414 416 402.5 c 128,-1,93
 388.5 391 388.5 391 351 384.5 c 128,-1,94
 313.5 378 313.5 378 269.5 378 c 0,95,96
 226.5 378 226.5 378 189 384.5 c 128,-1,97
 151.5 391 151.5 391 123.5 402.5 c 128,-1,98
 95.5 414 95.5 414 80 429 c 128,-1,99
 64.5 444 64.5 444 64.5 461 c 256,80,81
144.5 461 m 256,100,101
 144.5 450 144.5 450 154 440.5 c 128,-1,102
 163.5 431 163.5 431 180.5 424 c 128,-1,103
 197.5 417 197.5 417 220.5 413 c 128,-1,104
 243.5 409 243.5 409 269.5 409 c 0,105,106
 296.5 409 296.5 409 319 413 c 128,-1,107
 341.5 417 341.5 417 358.5 424 c 128,-1,108
 375.5 431 375.5 431 385 440.5 c 128,-1,109
 394.5 450 394.5 450 394.5 461 c 256,110,111
 394.5 472 394.5 472 385 481.5 c 128,-1,112
 375.5 491 375.5 491 358.5 498 c 128,-1,113
 341.5 505 341.5 505 319 509 c 128,-1,114
 296.5 513 296.5 513 269.5 513 c 0,115,116
 243.5 513 243.5 513 220.5 509 c 128,-1,117
 197.5 505 197.5 505 180.5 498 c 128,-1,118
 163.5 491 163.5 491 154 481.5 c 128,-1,119
 144.5 472 144.5 472 144.5 461 c 256,100,101
64.5 648 m 256,120,121
 64.5 665 64.5 665 80 680.5 c 128,-1,122
 95.5 696 95.5 696 123.5 707 c 128,-1,123
 151.5 718 151.5 718 189 724.5 c 128,-1,124
 226.5 731 226.5 731 269.5 731 c 0,125,126
 313.5 731 313.5 731 351 724.5 c 128,-1,127
 388.5 718 388.5 718 416 707 c 128,-1,128
 443.5 696 443.5 696 459.5 680.5 c 128,-1,129
 475.5 665 475.5 665 475.5 648 c 256,130,131
 475.5 631 475.5 631 459.5 616 c 128,-1,132
 443.5 601 443.5 601 416 589.5 c 128,-1,133
 388.5 578 388.5 578 351 571.5 c 128,-1,134
 313.5 565 313.5 565 269.5 565 c 0,135,136
 226.5 565 226.5 565 189 571.5 c 128,-1,137
 151.5 578 151.5 578 123.5 589.5 c 128,-1,138
 95.5 601 95.5 601 80 616 c 128,-1,139
 64.5 631 64.5 631 64.5 648 c 256,120,121
144.5 648 m 0,140,141
 144.5 637 144.5 637 154 627.5 c 128,-1,142
 163.5 618 163.5 618 180.5 611 c 128,-1,143
 197.5 604 197.5 604 220.5 600 c 128,-1,144
 243.5 596 243.5 596 269.5 596 c 0,145,146
 296.5 596 296.5 596 319 600 c 128,-1,147
 341.5 604 341.5 604 358.5 611 c 128,-1,148
 375.5 618 375.5 618 385 627.5 c 128,-1,149
 394.5 637 394.5 637 394.5 648 c 0,150,151
 394.5 658 394.5 658 385 668 c 128,-1,152
 375.5 678 375.5 678 358.5 685 c 128,-1,153
 341.5 692 341.5 692 319 696 c 128,-1,154
 296.5 700 296.5 700 269.5 700 c 0,155,156
 243.5 700 243.5 700 220.5 696 c 128,-1,157
 197.5 692 197.5 692 180.5 685 c 128,-1,158
 163.5 678 163.5 678 154 668 c 128,-1,159
 144.5 658 144.5 658 144.5 648 c 0,140,141
EndSplineSet
EndChar

StartChar: one
Encoding: 49 49 19
Width: 540
Flags: W
LayerCount: 2
Fore
SplineSet
64.5 85 m 0,0,1
 64.5 103 64.5 103 80 118 c 128,-1,2
 95.5 133 95.5 133 123.5 144.5 c 128,-1,3
 151.5 156 151.5 156 189 162.5 c 128,-1,4
 226.5 169 226.5 169 269.5 169 c 0,5,6
 313.5 169 313.5 169 351 162.5 c 128,-1,7
 388.5 156 388.5 156 416 144.5 c 128,-1,8
 443.5 133 443.5 133 459.5 118 c 128,-1,9
 475.5 103 475.5 103 475.5 85 c 0,10,11
 475.5 68 475.5 68 459.5 53 c 128,-1,12
 443.5 38 443.5 38 416 27 c 128,-1,13
 388.5 16 388.5 16 351 9.5 c 128,-1,14
 313.5 3 313.5 3 269.5 3 c 0,15,16
 226.5 3 226.5 3 189 9.5 c 128,-1,17
 151.5 16 151.5 16 123.5 27 c 128,-1,18
 95.5 38 95.5 38 80 53 c 128,-1,19
 64.5 68 64.5 68 64.5 85 c 0,0,1
64.5 272 m 0,20,21
 64.5 290 64.5 290 80 305 c 128,-1,22
 95.5 320 95.5 320 123.5 331.5 c 128,-1,23
 151.5 343 151.5 343 189 349 c 128,-1,24
 226.5 355 226.5 355 269.5 355 c 0,25,26
 313.5 355 313.5 355 351 349 c 128,-1,27
 388.5 343 388.5 343 416 331.5 c 128,-1,28
 443.5 320 443.5 320 459.5 305 c 128,-1,29
 475.5 290 475.5 290 475.5 272 c 0,30,31
 475.5 255 475.5 255 459.5 240 c 128,-1,32
 443.5 225 443.5 225 416 214 c 128,-1,33
 388.5 203 388.5 203 351 196 c 128,-1,34
 313.5 189 313.5 189 269.5 189 c 0,35,36
 226.5 189 226.5 189 189 196 c 128,-1,37
 151.5 203 151.5 203 123.5 214 c 128,-1,38
 95.5 225 95.5 225 80 240 c 128,-1,39
 64.5 255 64.5 255 64.5 272 c 0,20,21
144.5 272 m 256,40,41
 144.5 261 144.5 261 154 251.5 c 128,-1,42
 163.5 242 163.5 242 180.5 235 c 128,-1,43
 197.5 228 197.5 228 220.5 224 c 128,-1,44
 243.5 220 243.5 220 269.5 220 c 0,45,46
 296.5 220 296.5 220 319 224 c 128,-1,47
 341.5 228 341.5 228 358.5 235 c 128,-1,48
 375.5 242 375.5 242 385 251.5 c 128,-1,49
 394.5 261 394.5 261 394.5 272 c 256,50,51
 394.5 283 394.5 283 385 292.5 c 128,-1,52
 375.5 302 375.5 302 358.5 309 c 128,-1,53
 341.5 316 341.5 316 319 320 c 128,-1,54
 296.5 324 296.5 324 269.5 324 c 0,55,56
 243.5 324 243.5 324 220.5 320 c 128,-1,57
 197.5 316 197.5 316 180.5 309 c 128,-1,58
 163.5 302 163.5 302 154 292.5 c 128,-1,59
 144.5 283 144.5 283 144.5 272 c 256,40,41
64.5 461 m 256,60,61
 64.5 478 64.5 478 80 493.5 c 128,-1,62
 95.5 509 95.5 509 123.5 520 c 128,-1,63
 151.5 531 151.5 531 189 537.5 c 128,-1,64
 226.5 544 226.5 544 269.5 544 c 0,65,66
 313.5 544 313.5 544 351 537.5 c 128,-1,67
 388.5 531 388.5 531 416 520 c 128,-1,68
 443.5 509 443.5 509 459.5 493.5 c 128,-1,69
 475.5 478 475.5 478 475.5 461 c 256,70,71
 475.5 444 475.5 444 459.5 429 c 128,-1,72
 443.5 414 443.5 414 416 402.5 c 128,-1,73
 388.5 391 388.5 391 351 384.5 c 128,-1,74
 313.5 378 313.5 378 269.5 378 c 0,75,76
 226.5 378 226.5 378 189 384.5 c 128,-1,77
 151.5 391 151.5 391 123.5 402.5 c 128,-1,78
 95.5 414 95.5 414 80 429 c 128,-1,79
 64.5 444 64.5 444 64.5 461 c 256,60,61
144.5 461 m 256,80,81
 144.5 450 144.5 450 154 440.5 c 128,-1,82
 163.5 431 163.5 431 180.5 424 c 128,-1,83
 197.5 417 197.5 417 220.5 413 c 128,-1,84
 243.5 409 243.5 409 269.5 409 c 0,85,86
 296.5 409 296.5 409 319 413 c 128,-1,87
 341.5 417 341.5 417 358.5 424 c 128,-1,88
 375.5 431 375.5 431 385 440.5 c 128,-1,89
 394.5 450 394.5 450 394.5 461 c 256,90,91
 394.5 472 394.5 472 385 481.5 c 128,-1,92
 375.5 491 375.5 491 358.5 498 c 128,-1,93
 341.5 505 341.5 505 319 509 c 128,-1,94
 296.5 513 296.5 513 269.5 513 c 0,95,96
 243.5 513 243.5 513 220.5 509 c 128,-1,97
 197.5 505 197.5 505 180.5 498 c 128,-1,98
 163.5 491 163.5 491 154 481.5 c 128,-1,99
 144.5 472 144.5 472 144.5 461 c 256,80,81
64.5 648 m 256,100,101
 64.5 665 64.5 665 80 680.5 c 128,-1,102
 95.5 696 95.5 696 123.5 707 c 128,-1,103
 151.5 718 151.5 718 189 724.5 c 128,-1,104
 226.5 731 226.5 731 269.5 731 c 0,105,106
 313.5 731 313.5 731 351 724.5 c 128,-1,107
 388.5 718 388.5 718 416 707 c 128,-1,108
 443.5 696 443.5 696 459.5 680.5 c 128,-1,109
 475.5 665 475.5 665 475.5 648 c 256,110,111
 475.5 631 475.5 631 459.5 616 c 128,-1,112
 443.5 601 443.5 601 416 589.5 c 128,-1,113
 388.5 578 388.5 578 351 571.5 c 128,-1,114
 313.5 565 313.5 565 269.5 565 c 0,115,116
 226.5 565 226.5 565 189 571.5 c 128,-1,117
 151.5 578 151.5 578 123.5 589.5 c 128,-1,118
 95.5 601 95.5 601 80 616 c 128,-1,119
 64.5 631 64.5 631 64.5 648 c 256,100,101
144.5 648 m 0,120,121
 144.5 637 144.5 637 154 627.5 c 128,-1,122
 163.5 618 163.5 618 180.5 611 c 128,-1,123
 197.5 604 197.5 604 220.5 600 c 128,-1,124
 243.5 596 243.5 596 269.5 596 c 0,125,126
 296.5 596 296.5 596 319 600 c 128,-1,127
 341.5 604 341.5 604 358.5 611 c 128,-1,128
 375.5 618 375.5 618 385 627.5 c 128,-1,129
 394.5 637 394.5 637 394.5 648 c 0,130,131
 394.5 658 394.5 658 385 668 c 128,-1,132
 375.5 678 375.5 678 358.5 685 c 128,-1,133
 341.5 692 341.5 692 319 696 c 128,-1,134
 296.5 700 296.5 700 269.5 700 c 0,135,136
 243.5 700 243.5 700 220.5 696 c 128,-1,137
 197.5 692 197.5 692 180.5 685 c 128,-1,138
 163.5 678 163.5 678 154 668 c 128,-1,139
 144.5 658 144.5 658 144.5 648 c 0,120,121
EndSplineSet
EndChar

StartChar: two
Encoding: 50 50 20
Width: 540
Flags: W
LayerCount: 2
Fore
SplineSet
64.5 85 m 0,0,1
 64.5 103 64.5 103 80 118 c 128,-1,2
 95.5 133 95.5 133 123.5 144.5 c 128,-1,3
 151.5 156 151.5 156 189 162.5 c 128,-1,4
 226.5 169 226.5 169 269.5 169 c 0,5,6
 313.5 169 313.5 169 351 162.5 c 128,-1,7
 388.5 156 388.5 156 416 144.5 c 128,-1,8
 443.5 133 443.5 133 459.5 118 c 128,-1,9
 475.5 103 475.5 103 475.5 85 c 0,10,11
 475.5 68 475.5 68 459.5 53 c 128,-1,12
 443.5 38 443.5 38 416 27 c 128,-1,13
 388.5 16 388.5 16 351 9.5 c 128,-1,14
 313.5 3 313.5 3 269.5 3 c 0,15,16
 226.5 3 226.5 3 189 9.5 c 128,-1,17
 151.5 16 151.5 16 123.5 27 c 128,-1,18
 95.5 38 95.5 38 80 53 c 128,-1,19
 64.5 68 64.5 68 64.5 85 c 0,0,1
144.5 85 m 256,20,21
 144.5 74 144.5 74 154 64.5 c 128,-1,22
 163.5 55 163.5 55 180.5 48.5 c 128,-1,23
 197.5 42 197.5 42 220.5 38 c 128,-1,24
 243.5 34 243.5 34 269.5 34 c 0,25,26
 296.5 34 296.5 34 319 38 c 128,-1,27
 341.5 42 341.5 42 358.5 48.5 c 128,-1,28
 375.5 55 375.5 55 385 64.5 c 128,-1,29
 394.5 74 394.5 74 394.5 85 c 256,30,31
 394.5 96 394.5 96 385 105.5 c 128,-1,32
 375.5 115 375.5 115 358.5 122 c 128,-1,33
 341.5 129 341.5 129 319 133 c 128,-1,34
 296.5 137 296.5 137 269.5 137 c 0,35,36
 243.5 137 243.5 137 220.5 133 c 128,-1,37
 197.5 129 197.5 129 180.5 122 c 128,-1,38
 163.5 115 163.5 115 154 105.5 c 128,-1,39
 144.5 96 144.5 96 144.5 85 c 256,20,21
64.5 272 m 0,40,41
 64.5 290 64.5 290 80 305 c 128,-1,42
 95.5 320 95.5 320 123.5 331.5 c 128,-1,43
 151.5 343 151.5 343 189 349 c 128,-1,44
 226.5 355 226.5 355 269.5 355 c 0,45,46
 313.5 355 313.5 355 351 349 c 128,-1,47
 388.5 343 388.5 343 416 331.5 c 128,-1,48
 443.5 320 443.5 320 459.5 305 c 128,-1,49
 475.5 290 475.5 290 475.5 272 c 0,50,51
 475.5 255 475.5 255 459.5 240 c 128,-1,52
 443.5 225 443.5 225 416 214 c 128,-1,53
 388.5 203 388.5 203 351 196 c 128,-1,54
 313.5 189 313.5 189 269.5 189 c 0,55,56
 226.5 189 226.5 189 189 196 c 128,-1,57
 151.5 203 151.5 203 123.5 214 c 128,-1,58
 95.5 225 95.5 225 80 240 c 128,-1,59
 64.5 255 64.5 255 64.5 272 c 0,40,41
64.5 461 m 256,60,61
 64.5 478 64.5 478 80 493.5 c 128,-1,62
 95.5 509 95.5 509 123.5 520 c 128,-1,63
 151.5 531 151.5 531 189 537.5 c 128,-1,64
 226.5 544 226.5 544 269.5 544 c 0,65,66
 313.5 544 313.5 544 351 537.5 c 128,-1,67
 388.5 531 388.5 531 416 520 c 128,-1,68
 443.5 509 443.5 509 459.5 493.5 c 128,-1,69
 475.5 478 475.5 478 475.5 461 c 256,70,71
 475.5 444 475.5 444 459.5 429 c 128,-1,72
 443.5 414 443.5 414 416 402.5 c 128,-1,73
 388.5 391 388.5 391 351 384.5 c 128,-1,74
 313.5 378 313.5 378 269.5 378 c 0,75,76
 226.5 378 226.5 378 189 384.5 c 128,-1,77
 151.5 391 151.5 391 123.5 402.5 c 128,-1,78
 95.5 414 95.5 414 80 429 c 128,-1,79
 64.5 444 64.5 444 64.5 461 c 256,60,61
144.5 461 m 256,80,81
 144.5 450 144.5 450 154 440.5 c 128,-1,82
 163.5 431 163.5 431 180.5 424 c 128,-1,83
 197.5 417 197.5 417 220.5 413 c 128,-1,84
 243.5 409 243.5 409 269.5 409 c 0,85,86
 296.5 409 296.5 409 319 413 c 128,-1,87
 341.5 417 341.5 417 358.5 424 c 128,-1,88
 375.5 431 375.5 431 385 440.5 c 128,-1,89
 394.5 450 394.5 450 394.5 461 c 256,90,91
 394.5 472 394.5 472 385 481.5 c 128,-1,92
 375.5 491 375.5 491 358.5 498 c 128,-1,93
 341.5 505 341.5 505 319 509 c 128,-1,94
 296.5 513 296.5 513 269.5 513 c 0,95,96
 243.5 513 243.5 513 220.5 509 c 128,-1,97
 197.5 505 197.5 505 180.5 498 c 128,-1,98
 163.5 491 163.5 491 154 481.5 c 128,-1,99
 144.5 472 144.5 472 144.5 461 c 256,80,81
64.5 648 m 256,100,101
 64.5 665 64.5 665 80 680.5 c 128,-1,102
 95.5 696 95.5 696 123.5 707 c 128,-1,103
 151.5 718 151.5 718 189 724.5 c 128,-1,104
 226.5 731 226.5 731 269.5 731 c 0,105,106
 313.5 731 313.5 731 351 724.5 c 128,-1,107
 388.5 718 388.5 718 416 707 c 128,-1,108
 443.5 696 443.5 696 459.5 680.5 c 128,-1,109
 475.5 665 475.5 665 475.5 648 c 256,110,111
 475.5 631 475.5 631 459.5 616 c 128,-1,112
 443.5 601 443.5 601 416 589.5 c 128,-1,113
 388.5 578 388.5 578 351 571.5 c 128,-1,114
 313.5 565 313.5 565 269.5 565 c 0,115,116
 226.5 565 226.5 565 189 571.5 c 128,-1,117
 151.5 578 151.5 578 123.5 589.5 c 128,-1,118
 95.5 601 95.5 601 80 616 c 128,-1,119
 64.5 631 64.5 631 64.5 648 c 256,100,101
144.5 648 m 0,120,121
 144.5 637 144.5 637 154 627.5 c 128,-1,122
 163.5 618 163.5 618 180.5 611 c 128,-1,123
 197.5 604 197.5 604 220.5 600 c 128,-1,124
 243.5 596 243.5 596 269.5 596 c 0,125,126
 296.5 596 296.5 596 319 600 c 128,-1,127
 341.5 604 341.5 604 358.5 611 c 128,-1,128
 375.5 618 375.5 618 385 627.5 c 128,-1,129
 394.5 637 394.5 637 394.5 648 c 0,130,131
 394.5 658 394.5 658 385 668 c 128,-1,132
 375.5 678 375.5 678 358.5 685 c 128,-1,133
 341.5 692 341.5 692 319 696 c 128,-1,134
 296.5 700 296.5 700 269.5 700 c 0,135,136
 243.5 700 243.5 700 220.5 696 c 128,-1,137
 197.5 692 197.5 692 180.5 685 c 128,-1,138
 163.5 678 163.5 678 154 668 c 128,-1,139
 144.5 658 144.5 658 144.5 648 c 0,120,121
EndSplineSet
EndChar

StartChar: three
Encoding: 51 51 21
Width: 540
Flags: W
LayerCount: 2
Fore
SplineSet
64.5 85 m 0,0,1
 64.5 103 64.5 103 80 118 c 128,-1,2
 95.5 133 95.5 133 123.5 144.5 c 128,-1,3
 151.5 156 151.5 156 189 162.5 c 128,-1,4
 226.5 169 226.5 169 269.5 169 c 0,5,6
 313.5 169 313.5 169 351 162.5 c 128,-1,7
 388.5 156 388.5 156 416 144.5 c 128,-1,8
 443.5 133 443.5 133 459.5 118 c 128,-1,9
 475.5 103 475.5 103 475.5 85 c 0,10,11
 475.5 68 475.5 68 459.5 53 c 128,-1,12
 443.5 38 443.5 38 416 27 c 128,-1,13
 388.5 16 388.5 16 351 9.5 c 128,-1,14
 313.5 3 313.5 3 269.5 3 c 0,15,16
 226.5 3 226.5 3 189 9.5 c 128,-1,17
 151.5 16 151.5 16 123.5 27 c 128,-1,18
 95.5 38 95.5 38 80 53 c 128,-1,19
 64.5 68 64.5 68 64.5 85 c 0,0,1
64.5 272 m 0,20,21
 64.5 290 64.5 290 80 305 c 128,-1,22
 95.5 320 95.5 320 123.5 331.5 c 128,-1,23
 151.5 343 151.5 343 189 349 c 128,-1,24
 226.5 355 226.5 355 269.5 355 c 0,25,26
 313.5 355 313.5 355 351 349 c 128,-1,27
 388.5 343 388.5 343 416 331.5 c 128,-1,28
 443.5 320 443.5 320 459.5 305 c 128,-1,29
 475.5 290 475.5 290 475.5 272 c 0,30,31
 475.5 255 475.5 255 459.5 240 c 128,-1,32
 443.5 225 443.5 225 416 214 c 128,-1,33
 388.5 203 388.5 203 351 196 c 128,-1,34
 313.5 189 313.5 189 269.5 189 c 0,35,36
 226.5 189 226.5 189 189 196 c 128,-1,37
 151.5 203 151.5 203 123.5 214 c 128,-1,38
 95.5 225 95.5 225 80 240 c 128,-1,39
 64.5 255 64.5 255 64.5 272 c 0,20,21
64.5 461 m 256,40,41
 64.5 478 64.5 478 80 493.5 c 128,-1,42
 95.5 509 95.5 509 123.5 520 c 128,-1,43
 151.5 531 151.5 531 189 537.5 c 128,-1,44
 226.5 544 226.5 544 269.5 544 c 0,45,46
 313.5 544 313.5 544 351 537.5 c 128,-1,47
 388.5 531 388.5 531 416 520 c 128,-1,48
 443.5 509 443.5 509 459.5 493.5 c 128,-1,49
 475.5 478 475.5 478 475.5 461 c 256,50,51
 475.5 444 475.5 444 459.5 429 c 128,-1,52
 443.5 414 443.5 414 416 402.5 c 128,-1,53
 388.5 391 388.5 391 351 384.5 c 128,-1,54
 313.5 378 313.5 378 269.5 378 c 0,55,56
 226.5 378 226.5 378 189 384.5 c 128,-1,57
 151.5 391 151.5 391 123.5 402.5 c 128,-1,58
 95.5 414 95.5 414 80 429 c 128,-1,59
 64.5 444 64.5 444 64.5 461 c 256,40,41
144.5 461 m 256,60,61
 144.5 450 144.5 450 154 440.5 c 128,-1,62
 163.5 431 163.5 431 180.5 424 c 128,-1,63
 197.5 417 197.5 417 220.5 413 c 128,-1,64
 243.5 409 243.5 409 269.5 409 c 0,65,66
 296.5 409 296.5 409 319 413 c 128,-1,67
 341.5 417 341.5 417 358.5 424 c 128,-1,68
 375.5 431 375.5 431 385 440.5 c 128,-1,69
 394.5 450 394.5 450 394.5 461 c 256,70,71
 394.5 472 394.5 472 385 481.5 c 128,-1,72
 375.5 491 375.5 491 358.5 498 c 128,-1,73
 341.5 505 341.5 505 319 509 c 128,-1,74
 296.5 513 296.5 513 269.5 513 c 0,75,76
 243.5 513 243.5 513 220.5 509 c 128,-1,77
 197.5 505 197.5 505 180.5 498 c 128,-1,78
 163.5 491 163.5 491 154 481.5 c 128,-1,79
 144.5 472 144.5 472 144.5 461 c 256,60,61
64.5 648 m 256,80,81
 64.5 665 64.5 665 80 680.5 c 128,-1,82
 95.5 696 95.5 696 123.5 707 c 128,-1,83
 151.5 718 151.5 718 189 724.5 c 128,-1,84
 226.5 731 226.5 731 269.5 731 c 0,85,86
 313.5 731 313.5 731 351 724.5 c 128,-1,87
 388.5 718 388.5 718 416 707 c 128,-1,88
 443.5 696 443.5 696 459.5 680.5 c 128,-1,89
 475.5 665 475.5 665 475.5 648 c 256,90,91
 475.5 631 475.5 631 459.5 616 c 128,-1,92
 443.5 601 443.5 601 416 589.5 c 128,-1,93
 388.5 578 388.5 578 351 571.5 c 128,-1,94
 313.5 565 313.5 565 269.5 565 c 0,95,96
 226.5 565 226.5 565 189 571.5 c 128,-1,97
 151.5 578 151.5 578 123.5 589.5 c 128,-1,98
 95.5 601 95.5 601 80 616 c 128,-1,99
 64.5 631 64.5 631 64.5 648 c 256,80,81
144.5 648 m 0,100,101
 144.5 637 144.5 637 154 627.5 c 128,-1,102
 163.5 618 163.5 618 180.5 611 c 128,-1,103
 197.5 604 197.5 604 220.5 600 c 128,-1,104
 243.5 596 243.5 596 269.5 596 c 0,105,106
 296.5 596 296.5 596 319 600 c 128,-1,107
 341.5 604 341.5 604 358.5 611 c 128,-1,108
 375.5 618 375.5 618 385 627.5 c 128,-1,109
 394.5 637 394.5 637 394.5 648 c 0,110,111
 394.5 658 394.5 658 385 668 c 128,-1,112
 375.5 678 375.5 678 358.5 685 c 128,-1,113
 341.5 692 341.5 692 319 696 c 128,-1,114
 296.5 700 296.5 700 269.5 700 c 0,115,116
 243.5 700 243.5 700 220.5 696 c 128,-1,117
 197.5 692 197.5 692 180.5 685 c 128,-1,118
 163.5 678 163.5 678 154 668 c 128,-1,119
 144.5 658 144.5 658 144.5 648 c 0,100,101
EndSplineSet
EndChar

StartChar: four
Encoding: 52 52 22
Width: 540
Flags: W
LayerCount: 2
Fore
SplineSet
64.5 85 m 0,0,1
 64.5 103 64.5 103 80 118 c 128,-1,2
 95.5 133 95.5 133 123.5 144.5 c 128,-1,3
 151.5 156 151.5 156 189 162.5 c 128,-1,4
 226.5 169 226.5 169 269.5 169 c 0,5,6
 313.5 169 313.5 169 351 162.5 c 128,-1,7
 388.5 156 388.5 156 416 144.5 c 128,-1,8
 443.5 133 443.5 133 459.5 118 c 128,-1,9
 475.5 103 475.5 103 475.5 85 c 0,10,11
 475.5 68 475.5 68 459.5 53 c 128,-1,12
 443.5 38 443.5 38 416 27 c 128,-1,13
 388.5 16 388.5 16 351 9.5 c 128,-1,14
 313.5 3 313.5 3 269.5 3 c 0,15,16
 226.5 3 226.5 3 189 9.5 c 128,-1,17
 151.5 16 151.5 16 123.5 27 c 128,-1,18
 95.5 38 95.5 38 80 53 c 128,-1,19
 64.5 68 64.5 68 64.5 85 c 0,0,1
144.5 85 m 256,20,21
 144.5 74 144.5 74 154 64.5 c 128,-1,22
 163.5 55 163.5 55 180.5 48.5 c 128,-1,23
 197.5 42 197.5 42 220.5 38 c 128,-1,24
 243.5 34 243.5 34 269.5 34 c 0,25,26
 296.5 34 296.5 34 319 38 c 128,-1,27
 341.5 42 341.5 42 358.5 48.5 c 128,-1,28
 375.5 55 375.5 55 385 64.5 c 128,-1,29
 394.5 74 394.5 74 394.5 85 c 256,30,31
 394.5 96 394.5 96 385 105.5 c 128,-1,32
 375.5 115 375.5 115 358.5 122 c 128,-1,33
 341.5 129 341.5 129 319 133 c 128,-1,34
 296.5 137 296.5 137 269.5 137 c 0,35,36
 243.5 137 243.5 137 220.5 133 c 128,-1,37
 197.5 129 197.5 129 180.5 122 c 128,-1,38
 163.5 115 163.5 115 154 105.5 c 128,-1,39
 144.5 96 144.5 96 144.5 85 c 256,20,21
64.5 272 m 0,40,41
 64.5 290 64.5 290 80 305 c 128,-1,42
 95.5 320 95.5 320 123.5 331.5 c 128,-1,43
 151.5 343 151.5 343 189 349 c 128,-1,44
 226.5 355 226.5 355 269.5 355 c 0,45,46
 313.5 355 313.5 355 351 349 c 128,-1,47
 388.5 343 388.5 343 416 331.5 c 128,-1,48
 443.5 320 443.5 320 459.5 305 c 128,-1,49
 475.5 290 475.5 290 475.5 272 c 0,50,51
 475.5 255 475.5 255 459.5 240 c 128,-1,52
 443.5 225 443.5 225 416 214 c 128,-1,53
 388.5 203 388.5 203 351 196 c 128,-1,54
 313.5 189 313.5 189 269.5 189 c 0,55,56
 226.5 189 226.5 189 189 196 c 128,-1,57
 151.5 203 151.5 203 123.5 214 c 128,-1,58
 95.5 225 95.5 225 80 240 c 128,-1,59
 64.5 255 64.5 255 64.5 272 c 0,40,41
144.5 272 m 256,60,61
 144.5 261 144.5 261 154 251.5 c 128,-1,62
 163.5 242 163.5 242 180.5 235 c 128,-1,63
 197.5 228 197.5 228 220.5 224 c 128,-1,64
 243.5 220 243.5 220 269.5 220 c 0,65,66
 296.5 220 296.5 220 319 224 c 128,-1,67
 341.5 228 341.5 228 358.5 235 c 128,-1,68
 375.5 242 375.5 242 385 251.5 c 128,-1,69
 394.5 261 394.5 261 394.5 272 c 256,70,71
 394.5 283 394.5 283 385 292.5 c 128,-1,72
 375.5 302 375.5 302 358.5 309 c 128,-1,73
 341.5 316 341.5 316 319 320 c 128,-1,74
 296.5 324 296.5 324 269.5 324 c 0,75,76
 243.5 324 243.5 324 220.5 320 c 128,-1,77
 197.5 316 197.5 316 180.5 309 c 128,-1,78
 163.5 302 163.5 302 154 292.5 c 128,-1,79
 144.5 283 144.5 283 144.5 272 c 256,60,61
64.5 461 m 256,80,81
 64.5 478 64.5 478 80 493.5 c 128,-1,82
 95.5 509 95.5 509 123.5 520 c 128,-1,83
 151.5 531 151.5 531 189 537.5 c 128,-1,84
 226.5 544 226.5 544 269.5 544 c 0,85,86
 313.5 544 313.5 544 351 537.5 c 128,-1,87
 388.5 531 388.5 531 416 520 c 128,-1,88
 443.5 509 443.5 509 459.5 493.5 c 128,-1,89
 475.5 478 475.5 478 475.5 461 c 256,90,91
 475.5 444 475.5 444 459.5 429 c 128,-1,92
 443.5 414 443.5 414 416 402.5 c 128,-1,93
 388.5 391 388.5 391 351 384.5 c 128,-1,94
 313.5 378 313.5 378 269.5 378 c 0,95,96
 226.5 378 226.5 378 189 384.5 c 128,-1,97
 151.5 391 151.5 391 123.5 402.5 c 128,-1,98
 95.5 414 95.5 414 80 429 c 128,-1,99
 64.5 444 64.5 444 64.5 461 c 256,80,81
64.5 648 m 256,100,101
 64.5 665 64.5 665 80 680.5 c 128,-1,102
 95.5 696 95.5 696 123.5 707 c 128,-1,103
 151.5 718 151.5 718 189 724.5 c 128,-1,104
 226.5 731 226.5 731 269.5 731 c 0,105,106
 313.5 731 313.5 731 351 724.5 c 128,-1,107
 388.5 718 388.5 718 416 707 c 128,-1,108
 443.5 696 443.5 696 459.5 680.5 c 128,-1,109
 475.5 665 475.5 665 475.5 648 c 256,110,111
 475.5 631 475.5 631 459.5 616 c 128,-1,112
 443.5 601 443.5 601 416 589.5 c 128,-1,113
 388.5 578 388.5 578 351 571.5 c 128,-1,114
 313.5 565 313.5 565 269.5 565 c 0,115,116
 226.5 565 226.5 565 189 571.5 c 128,-1,117
 151.5 578 151.5 578 123.5 589.5 c 128,-1,118
 95.5 601 95.5 601 80 616 c 128,-1,119
 64.5 631 64.5 631 64.5 648 c 256,100,101
144.5 648 m 0,120,121
 144.5 637 144.5 637 154 627.5 c 128,-1,122
 163.5 618 163.5 618 180.5 611 c 128,-1,123
 197.5 604 197.5 604 220.5 600 c 128,-1,124
 243.5 596 243.5 596 269.5 596 c 0,125,126
 296.5 596 296.5 596 319 600 c 128,-1,127
 341.5 604 341.5 604 358.5 611 c 128,-1,128
 375.5 618 375.5 618 385 627.5 c 128,-1,129
 394.5 637 394.5 637 394.5 648 c 0,130,131
 394.5 658 394.5 658 385 668 c 128,-1,132
 375.5 678 375.5 678 358.5 685 c 128,-1,133
 341.5 692 341.5 692 319 696 c 128,-1,134
 296.5 700 296.5 700 269.5 700 c 0,135,136
 243.5 700 243.5 700 220.5 696 c 128,-1,137
 197.5 692 197.5 692 180.5 685 c 128,-1,138
 163.5 678 163.5 678 154 668 c 128,-1,139
 144.5 658 144.5 658 144.5 648 c 0,120,121
EndSplineSet
EndChar

StartChar: five
Encoding: 53 53 23
Width: 540
Flags: W
LayerCount: 2
Fore
SplineSet
64.5 85 m 0,0,1
 64.5 103 64.5 103 80 118 c 128,-1,2
 95.5 133 95.5 133 123.5 144.5 c 128,-1,3
 151.5 156 151.5 156 189 162.5 c 128,-1,4
 226.5 169 226.5 169 269.5 169 c 0,5,6
 313.5 169 313.5 169 351 162.5 c 128,-1,7
 388.5 156 388.5 156 416 144.5 c 128,-1,8
 443.5 133 443.5 133 459.5 118 c 128,-1,9
 475.5 103 475.5 103 475.5 85 c 0,10,11
 475.5 68 475.5 68 459.5 53 c 128,-1,12
 443.5 38 443.5 38 416 27 c 128,-1,13
 388.5 16 388.5 16 351 9.5 c 128,-1,14
 313.5 3 313.5 3 269.5 3 c 0,15,16
 226.5 3 226.5 3 189 9.5 c 128,-1,17
 151.5 16 151.5 16 123.5 27 c 128,-1,18
 95.5 38 95.5 38 80 53 c 128,-1,19
 64.5 68 64.5 68 64.5 85 c 0,0,1
64.5 272 m 0,20,21
 64.5 290 64.5 290 80 305 c 128,-1,22
 95.5 320 95.5 320 123.5 331.5 c 128,-1,23
 151.5 343 151.5 343 189 349 c 128,-1,24
 226.5 355 226.5 355 269.5 355 c 0,25,26
 313.5 355 313.5 355 351 349 c 128,-1,27
 388.5 343 388.5 343 416 331.5 c 128,-1,28
 443.5 320 443.5 320 459.5 305 c 128,-1,29
 475.5 290 475.5 290 475.5 272 c 0,30,31
 475.5 255 475.5 255 459.5 240 c 128,-1,32
 443.5 225 443.5 225 416 214 c 128,-1,33
 388.5 203 388.5 203 351 196 c 128,-1,34
 313.5 189 313.5 189 269.5 189 c 0,35,36
 226.5 189 226.5 189 189 196 c 128,-1,37
 151.5 203 151.5 203 123.5 214 c 128,-1,38
 95.5 225 95.5 225 80 240 c 128,-1,39
 64.5 255 64.5 255 64.5 272 c 0,20,21
144.5 272 m 256,40,41
 144.5 261 144.5 261 154 251.5 c 128,-1,42
 163.5 242 163.5 242 180.5 235 c 128,-1,43
 197.5 228 197.5 228 220.5 224 c 128,-1,44
 243.5 220 243.5 220 269.5 220 c 0,45,46
 296.5 220 296.5 220 319 224 c 128,-1,47
 341.5 228 341.5 228 358.5 235 c 128,-1,48
 375.5 242 375.5 242 385 251.5 c 128,-1,49
 394.5 261 394.5 261 394.5 272 c 256,50,51
 394.5 283 394.5 283 385 292.5 c 128,-1,52
 375.5 302 375.5 302 358.5 309 c 128,-1,53
 341.5 316 341.5 316 319 320 c 128,-1,54
 296.5 324 296.5 324 269.5 324 c 0,55,56
 243.5 324 243.5 324 220.5 320 c 128,-1,57
 197.5 316 197.5 316 180.5 309 c 128,-1,58
 163.5 302 163.5 302 154 292.5 c 128,-1,59
 144.5 283 144.5 283 144.5 272 c 256,40,41
64.5 461 m 256,60,61
 64.5 478 64.5 478 80 493.5 c 128,-1,62
 95.5 509 95.5 509 123.5 520 c 128,-1,63
 151.5 531 151.5 531 189 537.5 c 128,-1,64
 226.5 544 226.5 544 269.5 544 c 0,65,66
 313.5 544 313.5 544 351 537.5 c 128,-1,67
 388.5 531 388.5 531 416 520 c 128,-1,68
 443.5 509 443.5 509 459.5 493.5 c 128,-1,69
 475.5 478 475.5 478 475.5 461 c 256,70,71
 475.5 444 475.5 444 459.5 429 c 128,-1,72
 443.5 414 443.5 414 416 402.5 c 128,-1,73
 388.5 391 388.5 391 351 384.5 c 128,-1,74
 313.5 378 313.5 378 269.5 378 c 0,75,76
 226.5 378 226.5 378 189 384.5 c 128,-1,77
 151.5 391 151.5 391 123.5 402.5 c 128,-1,78
 95.5 414 95.5 414 80 429 c 128,-1,79
 64.5 444 64.5 444 64.5 461 c 256,60,61
64.5 648 m 256,80,81
 64.5 665 64.5 665 80 680.5 c 128,-1,82
 95.5 696 95.5 696 123.5 707 c 128,-1,83
 151.5 718 151.5 718 189 724.5 c 128,-1,84
 226.5 731 226.5 731 269.5 731 c 0,85,86
 313.5 731 313.5 731 351 724.5 c 128,-1,87
 388.5 718 388.5 718 416 707 c 128,-1,88
 443.5 696 443.5 696 459.5 680.5 c 128,-1,89
 475.5 665 475.5 665 475.5 648 c 256,90,91
 475.5 631 475.5 631 459.5 616 c 128,-1,92
 443.5 601 443.5 601 416 589.5 c 128,-1,93
 388.5 578 388.5 578 351 571.5 c 128,-1,94
 313.5 565 313.5 565 269.5 565 c 0,95,96
 226.5 565 226.5 565 189 571.5 c 128,-1,97
 151.5 578 151.5 578 123.5 589.5 c 128,-1,98
 95.5 601 95.5 601 80 616 c 128,-1,99
 64.5 631 64.5 631 64.5 648 c 256,80,81
144.5 648 m 0,100,101
 144.5 637 144.5 637 154 627.5 c 128,-1,102
 163.5 618 163.5 618 180.5 611 c 128,-1,103
 197.5 604 197.5 604 220.5 600 c 128,-1,104
 243.5 596 243.5 596 269.5 596 c 0,105,106
 296.5 596 296.5 596 319 600 c 128,-1,107
 341.5 604 341.5 604 358.5 611 c 128,-1,108
 375.5 618 375.5 618 385 627.5 c 128,-1,109
 394.5 637 394.5 637 394.5 648 c 0,110,111
 394.5 658 394.5 658 385 668 c 128,-1,112
 375.5 678 375.5 678 358.5 685 c 128,-1,113
 341.5 692 341.5 692 319 696 c 128,-1,114
 296.5 700 296.5 700 269.5 700 c 0,115,116
 243.5 700 243.5 700 220.5 696 c 128,-1,117
 197.5 692 197.5 692 180.5 685 c 128,-1,118
 163.5 678 163.5 678 154 668 c 128,-1,119
 144.5 658 144.5 658 144.5 648 c 0,100,101
EndSplineSet
EndChar

StartChar: six
Encoding: 54 54 24
Width: 540
Flags: W
LayerCount: 2
Fore
SplineSet
64.5 85 m 0,0,1
 64.5 103 64.5 103 80 118 c 128,-1,2
 95.5 133 95.5 133 123.5 144.5 c 128,-1,3
 151.5 156 151.5 156 189 162.5 c 128,-1,4
 226.5 169 226.5 169 269.5 169 c 0,5,6
 313.5 169 313.5 169 351 162.5 c 128,-1,7
 388.5 156 388.5 156 416 144.5 c 128,-1,8
 443.5 133 443.5 133 459.5 118 c 128,-1,9
 475.5 103 475.5 103 475.5 85 c 0,10,11
 475.5 68 475.5 68 459.5 53 c 128,-1,12
 443.5 38 443.5 38 416 27 c 128,-1,13
 388.5 16 388.5 16 351 9.5 c 128,-1,14
 313.5 3 313.5 3 269.5 3 c 0,15,16
 226.5 3 226.5 3 189 9.5 c 128,-1,17
 151.5 16 151.5 16 123.5 27 c 128,-1,18
 95.5 38 95.5 38 80 53 c 128,-1,19
 64.5 68 64.5 68 64.5 85 c 0,0,1
144.5 85 m 256,20,21
 144.5 74 144.5 74 154 64.5 c 128,-1,22
 163.5 55 163.5 55 180.5 48.5 c 128,-1,23
 197.5 42 197.5 42 220.5 38 c 128,-1,24
 243.5 34 243.5 34 269.5 34 c 0,25,26
 296.5 34 296.5 34 319 38 c 128,-1,27
 341.5 42 341.5 42 358.5 48.5 c 128,-1,28
 375.5 55 375.5 55 385 64.5 c 128,-1,29
 394.5 74 394.5 74 394.5 85 c 256,30,31
 394.5 96 394.5 96 385 105.5 c 128,-1,32
 375.5 115 375.5 115 358.5 122 c 128,-1,33
 341.5 129 341.5 129 319 133 c 128,-1,34
 296.5 137 296.5 137 269.5 137 c 0,35,36
 243.5 137 243.5 137 220.5 133 c 128,-1,37
 197.5 129 197.5 129 180.5 122 c 128,-1,38
 163.5 115 163.5 115 154 105.5 c 128,-1,39
 144.5 96 144.5 96 144.5 85 c 256,20,21
64.5 272 m 0,40,41
 64.5 290 64.5 290 80 305 c 128,-1,42
 95.5 320 95.5 320 123.5 331.5 c 128,-1,43
 151.5 343 151.5 343 189 349 c 128,-1,44
 226.5 355 226.5 355 269.5 355 c 0,45,46
 313.5 355 313.5 355 351 349 c 128,-1,47
 388.5 343 388.5 343 416 331.5 c 128,-1,48
 443.5 320 443.5 320 459.5 305 c 128,-1,49
 475.5 290 475.5 290 475.5 272 c 0,50,51
 475.5 255 475.5 255 459.5 240 c 128,-1,52
 443.5 225 443.5 225 416 214 c 128,-1,53
 388.5 203 388.5 203 351 196 c 128,-1,54
 313.5 189 313.5 189 269.5 189 c 0,55,56
 226.5 189 226.5 189 189 196 c 128,-1,57
 151.5 203 151.5 203 123.5 214 c 128,-1,58
 95.5 225 95.5 225 80 240 c 128,-1,59
 64.5 255 64.5 255 64.5 272 c 0,40,41
64.5 461 m 256,60,61
 64.5 478 64.5 478 80 493.5 c 128,-1,62
 95.5 509 95.5 509 123.5 520 c 128,-1,63
 151.5 531 151.5 531 189 537.5 c 128,-1,64
 226.5 544 226.5 544 269.5 544 c 0,65,66
 313.5 544 313.5 544 351 537.5 c 128,-1,67
 388.5 531 388.5 531 416 520 c 128,-1,68
 443.5 509 443.5 509 459.5 493.5 c 128,-1,69
 475.5 478 475.5 478 475.5 461 c 256,70,71
 475.5 444 475.5 444 459.5 429 c 128,-1,72
 443.5 414 443.5 414 416 402.5 c 128,-1,73
 388.5 391 388.5 391 351 384.5 c 128,-1,74
 313.5 378 313.5 378 269.5 378 c 0,75,76
 226.5 378 226.5 378 189 384.5 c 128,-1,77
 151.5 391 151.5 391 123.5 402.5 c 128,-1,78
 95.5 414 95.5 414 80 429 c 128,-1,79
 64.5 444 64.5 444 64.5 461 c 256,60,61
64.5 648 m 256,80,81
 64.5 665 64.5 665 80 680.5 c 128,-1,82
 95.5 696 95.5 696 123.5 707 c 128,-1,83
 151.5 718 151.5 718 189 724.5 c 128,-1,84
 226.5 731 226.5 731 269.5 731 c 0,85,86
 313.5 731 313.5 731 351 724.5 c 128,-1,87
 388.5 718 388.5 718 416 707 c 128,-1,88
 443.5 696 443.5 696 459.5 680.5 c 128,-1,89
 475.5 665 475.5 665 475.5 648 c 256,90,91
 475.5 631 475.5 631 459.5 616 c 128,-1,92
 443.5 601 443.5 601 416 589.5 c 128,-1,93
 388.5 578 388.5 578 351 571.5 c 128,-1,94
 313.5 565 313.5 565 269.5 565 c 0,95,96
 226.5 565 226.5 565 189 571.5 c 128,-1,97
 151.5 578 151.5 578 123.5 589.5 c 128,-1,98
 95.5 601 95.5 601 80 616 c 128,-1,99
 64.5 631 64.5 631 64.5 648 c 256,80,81
144.5 648 m 0,100,101
 144.5 637 144.5 637 154 627.5 c 128,-1,102
 163.5 618 163.5 618 180.5 611 c 128,-1,103
 197.5 604 197.5 604 220.5 600 c 128,-1,104
 243.5 596 243.5 596 269.5 596 c 0,105,106
 296.5 596 296.5 596 319 600 c 128,-1,107
 341.5 604 341.5 604 358.5 611 c 128,-1,108
 375.5 618 375.5 618 385 627.5 c 128,-1,109
 394.5 637 394.5 637 394.5 648 c 0,110,111
 394.5 658 394.5 658 385 668 c 128,-1,112
 375.5 678 375.5 678 358.5 685 c 128,-1,113
 341.5 692 341.5 692 319 696 c 128,-1,114
 296.5 700 296.5 700 269.5 700 c 0,115,116
 243.5 700 243.5 700 220.5 696 c 128,-1,117
 197.5 692 197.5 692 180.5 685 c 128,-1,118
 163.5 678 163.5 678 154 668 c 128,-1,119
 144.5 658 144.5 658 144.5 648 c 0,100,101
EndSplineSet
EndChar

StartChar: seven
Encoding: 55 55 25
Width: 540
Flags: W
LayerCount: 2
Fore
SplineSet
64.5 85 m 0,0,1
 64.5 103 64.5 103 80 118 c 128,-1,2
 95.5 133 95.5 133 123.5 144.5 c 128,-1,3
 151.5 156 151.5 156 189 162.5 c 128,-1,4
 226.5 169 226.5 169 269.5 169 c 0,5,6
 313.5 169 313.5 169 351 162.5 c 128,-1,7
 388.5 156 388.5 156 416 144.5 c 128,-1,8
 443.5 133 443.5 133 459.5 118 c 128,-1,9
 475.5 103 475.5 103 475.5 85 c 0,10,11
 475.5 68 475.5 68 459.5 53 c 128,-1,12
 443.5 38 443.5 38 416 27 c 128,-1,13
 388.5 16 388.5 16 351 9.5 c 128,-1,14
 313.5 3 313.5 3 269.5 3 c 0,15,16
 226.5 3 226.5 3 189 9.5 c 128,-1,17
 151.5 16 151.5 16 123.5 27 c 128,-1,18
 95.5 38 95.5 38 80 53 c 128,-1,19
 64.5 68 64.5 68 64.5 85 c 0,0,1
64.5 272 m 0,20,21
 64.5 290 64.5 290 80 305 c 128,-1,22
 95.5 320 95.5 320 123.5 331.5 c 128,-1,23
 151.5 343 151.5 343 189 349 c 128,-1,24
 226.5 355 226.5 355 269.5 355 c 0,25,26
 313.5 355 313.5 355 351 349 c 128,-1,27
 388.5 343 388.5 343 416 331.5 c 128,-1,28
 443.5 320 443.5 320 459.5 305 c 128,-1,29
 475.5 290 475.5 290 475.5 272 c 0,30,31
 475.5 255 475.5 255 459.5 240 c 128,-1,32
 443.5 225 443.5 225 416 214 c 128,-1,33
 388.5 203 388.5 203 351 196 c 128,-1,34
 313.5 189 313.5 189 269.5 189 c 0,35,36
 226.5 189 226.5 189 189 196 c 128,-1,37
 151.5 203 151.5 203 123.5 214 c 128,-1,38
 95.5 225 95.5 225 80 240 c 128,-1,39
 64.5 255 64.5 255 64.5 272 c 0,20,21
64.5 461 m 256,40,41
 64.5 478 64.5 478 80 493.5 c 128,-1,42
 95.5 509 95.5 509 123.5 520 c 128,-1,43
 151.5 531 151.5 531 189 537.5 c 128,-1,44
 226.5 544 226.5 544 269.5 544 c 0,45,46
 313.5 544 313.5 544 351 537.5 c 128,-1,47
 388.5 531 388.5 531 416 520 c 128,-1,48
 443.5 509 443.5 509 459.5 493.5 c 128,-1,49
 475.5 478 475.5 478 475.5 461 c 256,50,51
 475.5 444 475.5 444 459.5 429 c 128,-1,52
 443.5 414 443.5 414 416 402.5 c 128,-1,53
 388.5 391 388.5 391 351 384.5 c 128,-1,54
 313.5 378 313.5 378 269.5 378 c 0,55,56
 226.5 378 226.5 378 189 384.5 c 128,-1,57
 151.5 391 151.5 391 123.5 402.5 c 128,-1,58
 95.5 414 95.5 414 80 429 c 128,-1,59
 64.5 444 64.5 444 64.5 461 c 256,40,41
64.5 648 m 256,60,61
 64.5 665 64.5 665 80 680.5 c 128,-1,62
 95.5 696 95.5 696 123.5 707 c 128,-1,63
 151.5 718 151.5 718 189 724.5 c 128,-1,64
 226.5 731 226.5 731 269.5 731 c 0,65,66
 313.5 731 313.5 731 351 724.5 c 128,-1,67
 388.5 718 388.5 718 416 707 c 128,-1,68
 443.5 696 443.5 696 459.5 680.5 c 128,-1,69
 475.5 665 475.5 665 475.5 648 c 256,70,71
 475.5 631 475.5 631 459.5 616 c 128,-1,72
 443.5 601 443.5 601 416 589.5 c 128,-1,73
 388.5 578 388.5 578 351 571.5 c 128,-1,74
 313.5 565 313.5 565 269.5 565 c 0,75,76
 226.5 565 226.5 565 189 571.5 c 128,-1,77
 151.5 578 151.5 578 123.5 589.5 c 128,-1,78
 95.5 601 95.5 601 80 616 c 128,-1,79
 64.5 631 64.5 631 64.5 648 c 256,60,61
144.5 648 m 0,80,81
 144.5 637 144.5 637 154 627.5 c 128,-1,82
 163.5 618 163.5 618 180.5 611 c 128,-1,83
 197.5 604 197.5 604 220.5 600 c 128,-1,84
 243.5 596 243.5 596 269.5 596 c 0,85,86
 296.5 596 296.5 596 319 600 c 128,-1,87
 341.5 604 341.5 604 358.5 611 c 128,-1,88
 375.5 618 375.5 618 385 627.5 c 128,-1,89
 394.5 637 394.5 637 394.5 648 c 0,90,91
 394.5 658 394.5 658 385 668 c 128,-1,92
 375.5 678 375.5 678 358.5 685 c 128,-1,93
 341.5 692 341.5 692 319 696 c 128,-1,94
 296.5 700 296.5 700 269.5 700 c 0,95,96
 243.5 700 243.5 700 220.5 696 c 128,-1,97
 197.5 692 197.5 692 180.5 685 c 128,-1,98
 163.5 678 163.5 678 154 668 c 128,-1,99
 144.5 658 144.5 658 144.5 648 c 0,80,81
EndSplineSet
EndChar

StartChar: eight
Encoding: 56 56 26
Width: 540
Flags: W
LayerCount: 2
Fore
SplineSet
64.5 85 m 0,0,1
 64.5 103 64.5 103 80 118 c 128,-1,2
 95.5 133 95.5 133 123.5 144.5 c 128,-1,3
 151.5 156 151.5 156 189 162.5 c 128,-1,4
 226.5 169 226.5 169 269.5 169 c 0,5,6
 313.5 169 313.5 169 351 162.5 c 128,-1,7
 388.5 156 388.5 156 416 144.5 c 128,-1,8
 443.5 133 443.5 133 459.5 118 c 128,-1,9
 475.5 103 475.5 103 475.5 85 c 0,10,11
 475.5 68 475.5 68 459.5 53 c 128,-1,12
 443.5 38 443.5 38 416 27 c 128,-1,13
 388.5 16 388.5 16 351 9.5 c 128,-1,14
 313.5 3 313.5 3 269.5 3 c 0,15,16
 226.5 3 226.5 3 189 9.5 c 128,-1,17
 151.5 16 151.5 16 123.5 27 c 128,-1,18
 95.5 38 95.5 38 80 53 c 128,-1,19
 64.5 68 64.5 68 64.5 85 c 0,0,1
144.5 85 m 256,20,21
 144.5 74 144.5 74 154 64.5 c 128,-1,22
 163.5 55 163.5 55 180.5 48.5 c 128,-1,23
 197.5 42 197.5 42 220.5 38 c 128,-1,24
 243.5 34 243.5 34 269.5 34 c 0,25,26
 296.5 34 296.5 34 319 38 c 128,-1,27
 341.5 42 341.5 42 358.5 48.5 c 128,-1,28
 375.5 55 375.5 55 385 64.5 c 128,-1,29
 394.5 74 394.5 74 394.5 85 c 256,30,31
 394.5 96 394.5 96 385 105.5 c 128,-1,32
 375.5 115 375.5 115 358.5 122 c 128,-1,33
 341.5 129 341.5 129 319 133 c 128,-1,34
 296.5 137 296.5 137 269.5 137 c 0,35,36
 243.5 137 243.5 137 220.5 133 c 128,-1,37
 197.5 129 197.5 129 180.5 122 c 128,-1,38
 163.5 115 163.5 115 154 105.5 c 128,-1,39
 144.5 96 144.5 96 144.5 85 c 256,20,21
64.5 272 m 0,40,41
 64.5 290 64.5 290 80 305 c 128,-1,42
 95.5 320 95.5 320 123.5 331.5 c 128,-1,43
 151.5 343 151.5 343 189 349 c 128,-1,44
 226.5 355 226.5 355 269.5 355 c 0,45,46
 313.5 355 313.5 355 351 349 c 128,-1,47
 388.5 343 388.5 343 416 331.5 c 128,-1,48
 443.5 320 443.5 320 459.5 305 c 128,-1,49
 475.5 290 475.5 290 475.5 272 c 0,50,51
 475.5 255 475.5 255 459.5 240 c 128,-1,52
 443.5 225 443.5 225 416 214 c 128,-1,53
 388.5 203 388.5 203 351 196 c 128,-1,54
 313.5 189 313.5 189 269.5 189 c 0,55,56
 226.5 189 226.5 189 189 196 c 128,-1,57
 151.5 203 151.5 203 123.5 214 c 128,-1,58
 95.5 225 95.5 225 80 240 c 128,-1,59
 64.5 255 64.5 255 64.5 272 c 0,40,41
144.5 272 m 256,60,61
 144.5 261 144.5 261 154 251.5 c 128,-1,62
 163.5 242 163.5 242 180.5 235 c 128,-1,63
 197.5 228 197.5 228 220.5 224 c 128,-1,64
 243.5 220 243.5 220 269.5 220 c 0,65,66
 296.5 220 296.5 220 319 224 c 128,-1,67
 341.5 228 341.5 228 358.5 235 c 128,-1,68
 375.5 242 375.5 242 385 251.5 c 128,-1,69
 394.5 261 394.5 261 394.5 272 c 256,70,71
 394.5 283 394.5 283 385 292.5 c 128,-1,72
 375.5 302 375.5 302 358.5 309 c 128,-1,73
 341.5 316 341.5 316 319 320 c 128,-1,74
 296.5 324 296.5 324 269.5 324 c 0,75,76
 243.5 324 243.5 324 220.5 320 c 128,-1,77
 197.5 316 197.5 316 180.5 309 c 128,-1,78
 163.5 302 163.5 302 154 292.5 c 128,-1,79
 144.5 283 144.5 283 144.5 272 c 256,60,61
64.5 461 m 256,80,81
 64.5 478 64.5 478 80 493.5 c 128,-1,82
 95.5 509 95.5 509 123.5 520 c 128,-1,83
 151.5 531 151.5 531 189 537.5 c 128,-1,84
 226.5 544 226.5 544 269.5 544 c 0,85,86
 313.5 544 313.5 544 351 537.5 c 128,-1,87
 388.5 531 388.5 531 416 520 c 128,-1,88
 443.5 509 443.5 509 459.5 493.5 c 128,-1,89
 475.5 478 475.5 478 475.5 461 c 256,90,91
 475.5 444 475.5 444 459.5 429 c 128,-1,92
 443.5 414 443.5 414 416 402.5 c 128,-1,93
 388.5 391 388.5 391 351 384.5 c 128,-1,94
 313.5 378 313.5 378 269.5 378 c 0,95,96
 226.5 378 226.5 378 189 384.5 c 128,-1,97
 151.5 391 151.5 391 123.5 402.5 c 128,-1,98
 95.5 414 95.5 414 80 429 c 128,-1,99
 64.5 444 64.5 444 64.5 461 c 256,80,81
144.5 461 m 256,100,101
 144.5 450 144.5 450 154 440.5 c 128,-1,102
 163.5 431 163.5 431 180.5 424 c 128,-1,103
 197.5 417 197.5 417 220.5 413 c 128,-1,104
 243.5 409 243.5 409 269.5 409 c 0,105,106
 296.5 409 296.5 409 319 413 c 128,-1,107
 341.5 417 341.5 417 358.5 424 c 128,-1,108
 375.5 431 375.5 431 385 440.5 c 128,-1,109
 394.5 450 394.5 450 394.5 461 c 256,110,111
 394.5 472 394.5 472 385 481.5 c 128,-1,112
 375.5 491 375.5 491 358.5 498 c 128,-1,113
 341.5 505 341.5 505 319 509 c 128,-1,114
 296.5 513 296.5 513 269.5 513 c 0,115,116
 243.5 513 243.5 513 220.5 509 c 128,-1,117
 197.5 505 197.5 505 180.5 498 c 128,-1,118
 163.5 491 163.5 491 154 481.5 c 128,-1,119
 144.5 472 144.5 472 144.5 461 c 256,100,101
64.5 648 m 256,120,121
 64.5 665 64.5 665 80 680.5 c 128,-1,122
 95.5 696 95.5 696 123.5 707 c 128,-1,123
 151.5 718 151.5 718 189 724.5 c 128,-1,124
 226.5 731 226.5 731 269.5 731 c 0,125,126
 313.5 731 313.5 731 351 724.5 c 128,-1,127
 388.5 718 388.5 718 416 707 c 128,-1,128
 443.5 696 443.5 696 459.5 680.5 c 128,-1,129
 475.5 665 475.5 665 475.5 648 c 256,130,131
 475.5 631 475.5 631 459.5 616 c 128,-1,132
 443.5 601 443.5 601 416 589.5 c 128,-1,133
 388.5 578 388.5 578 351 571.5 c 128,-1,134
 313.5 565 313.5 565 269.5 565 c 0,135,136
 226.5 565 226.5 565 189 571.5 c 128,-1,137
 151.5 578 151.5 578 123.5 589.5 c 128,-1,138
 95.5 601 95.5 601 80 616 c 128,-1,139
 64.5 631 64.5 631 64.5 648 c 256,120,121
EndSplineSet
EndChar

StartChar: nine
Encoding: 57 57 27
Width: 540
Flags: W
LayerCount: 2
Fore
SplineSet
64.5 85 m 0,0,1
 64.5 103 64.5 103 80 118 c 128,-1,2
 95.5 133 95.5 133 123.5 144.5 c 128,-1,3
 151.5 156 151.5 156 189 162.5 c 128,-1,4
 226.5 169 226.5 169 269.5 169 c 0,5,6
 313.5 169 313.5 169 351 162.5 c 128,-1,7
 388.5 156 388.5 156 416 144.5 c 128,-1,8
 443.5 133 443.5 133 459.5 118 c 128,-1,9
 475.5 103 475.5 103 475.5 85 c 0,10,11
 475.5 68 475.5 68 459.5 53 c 128,-1,12
 443.5 38 443.5 38 416 27 c 128,-1,13
 388.5 16 388.5 16 351 9.5 c 128,-1,14
 313.5 3 313.5 3 269.5 3 c 0,15,16
 226.5 3 226.5 3 189 9.5 c 128,-1,17
 151.5 16 151.5 16 123.5 27 c 128,-1,18
 95.5 38 95.5 38 80 53 c 128,-1,19
 64.5 68 64.5 68 64.5 85 c 0,0,1
64.5 272 m 0,20,21
 64.5 290 64.5 290 80 305 c 128,-1,22
 95.5 320 95.5 320 123.5 331.5 c 128,-1,23
 151.5 343 151.5 343 189 349 c 128,-1,24
 226.5 355 226.5 355 269.5 355 c 0,25,26
 313.5 355 313.5 355 351 349 c 128,-1,27
 388.5 343 388.5 343 416 331.5 c 128,-1,28
 443.5 320 443.5 320 459.5 305 c 128,-1,29
 475.5 290 475.5 290 475.5 272 c 0,30,31
 475.5 255 475.5 255 459.5 240 c 128,-1,32
 443.5 225 443.5 225 416 214 c 128,-1,33
 388.5 203 388.5 203 351 196 c 128,-1,34
 313.5 189 313.5 189 269.5 189 c 0,35,36
 226.5 189 226.5 189 189 196 c 128,-1,37
 151.5 203 151.5 203 123.5 214 c 128,-1,38
 95.5 225 95.5 225 80 240 c 128,-1,39
 64.5 255 64.5 255 64.5 272 c 0,20,21
144.5 272 m 256,40,41
 144.5 261 144.5 261 154 251.5 c 128,-1,42
 163.5 242 163.5 242 180.5 235 c 128,-1,43
 197.5 228 197.5 228 220.5 224 c 128,-1,44
 243.5 220 243.5 220 269.5 220 c 0,45,46
 296.5 220 296.5 220 319 224 c 128,-1,47
 341.5 228 341.5 228 358.5 235 c 128,-1,48
 375.5 242 375.5 242 385 251.5 c 128,-1,49
 394.5 261 394.5 261 394.5 272 c 256,50,51
 394.5 283 394.5 283 385 292.5 c 128,-1,52
 375.5 302 375.5 302 358.5 309 c 128,-1,53
 341.5 316 341.5 316 319 320 c 128,-1,54
 296.5 324 296.5 324 269.5 324 c 0,55,56
 243.5 324 243.5 324 220.5 320 c 128,-1,57
 197.5 316 197.5 316 180.5 309 c 128,-1,58
 163.5 302 163.5 302 154 292.5 c 128,-1,59
 144.5 283 144.5 283 144.5 272 c 256,40,41
64.5 461 m 256,60,61
 64.5 478 64.5 478 80 493.5 c 128,-1,62
 95.5 509 95.5 509 123.5 520 c 128,-1,63
 151.5 531 151.5 531 189 537.5 c 128,-1,64
 226.5 544 226.5 544 269.5 544 c 0,65,66
 313.5 544 313.5 544 351 537.5 c 128,-1,67
 388.5 531 388.5 531 416 520 c 128,-1,68
 443.5 509 443.5 509 459.5 493.5 c 128,-1,69
 475.5 478 475.5 478 475.5 461 c 256,70,71
 475.5 444 475.5 444 459.5 429 c 128,-1,72
 443.5 414 443.5 414 416 402.5 c 128,-1,73
 388.5 391 388.5 391 351 384.5 c 128,-1,74
 313.5 378 313.5 378 269.5 378 c 0,75,76
 226.5 378 226.5 378 189 384.5 c 128,-1,77
 151.5 391 151.5 391 123.5 402.5 c 128,-1,78
 95.5 414 95.5 414 80 429 c 128,-1,79
 64.5 444 64.5 444 64.5 461 c 256,60,61
144.5 461 m 256,80,81
 144.5 450 144.5 450 154 440.5 c 128,-1,82
 163.5 431 163.5 431 180.5 424 c 128,-1,83
 197.5 417 197.5 417 220.5 413 c 128,-1,84
 243.5 409 243.5 409 269.5 409 c 0,85,86
 296.5 409 296.5 409 319 413 c 128,-1,87
 341.5 417 341.5 417 358.5 424 c 128,-1,88
 375.5 431 375.5 431 385 440.5 c 128,-1,89
 394.5 450 394.5 450 394.5 461 c 256,90,91
 394.5 472 394.5 472 385 481.5 c 128,-1,92
 375.5 491 375.5 491 358.5 498 c 128,-1,93
 341.5 505 341.5 505 319 509 c 128,-1,94
 296.5 513 296.5 513 269.5 513 c 0,95,96
 243.5 513 243.5 513 220.5 509 c 128,-1,97
 197.5 505 197.5 505 180.5 498 c 128,-1,98
 163.5 491 163.5 491 154 481.5 c 128,-1,99
 144.5 472 144.5 472 144.5 461 c 256,80,81
64.5 648 m 256,100,101
 64.5 665 64.5 665 80 680.5 c 128,-1,102
 95.5 696 95.5 696 123.5 707 c 128,-1,103
 151.5 718 151.5 718 189 724.5 c 128,-1,104
 226.5 731 226.5 731 269.5 731 c 0,105,106
 313.5 731 313.5 731 351 724.5 c 128,-1,107
 388.5 718 388.5 718 416 707 c 128,-1,108
 443.5 696 443.5 696 459.5 680.5 c 128,-1,109
 475.5 665 475.5 665 475.5 648 c 256,110,111
 475.5 631 475.5 631 459.5 616 c 128,-1,112
 443.5 601 443.5 601 416 589.5 c 128,-1,113
 388.5 578 388.5 578 351 571.5 c 128,-1,114
 313.5 565 313.5 565 269.5 565 c 0,115,116
 226.5 565 226.5 565 189 571.5 c 128,-1,117
 151.5 578 151.5 578 123.5 589.5 c 128,-1,118
 95.5 601 95.5 601 80 616 c 128,-1,119
 64.5 631 64.5 631 64.5 648 c 256,100,101
EndSplineSet
EndChar

StartChar: colon
Encoding: 58 58 28
Width: 540
Flags: W
LayerCount: 2
Fore
SplineSet
208 54 m 0,0,1
 208 91 208 91 226 106 c 128,-1,2
 244 121 244 121 269 121 c 0,3,4
 295 121 295 121 313.5 106 c 128,-1,5
 332 91 332 91 332 54 c 0,6,7
 332 18 332 18 313.5 2 c 128,-1,8
 295 -14 295 -14 269 -14 c 0,9,10
 244 -14 244 -14 226 2 c 128,-1,11
 208 18 208 18 208 54 c 0,0,1
208 482 m 0,12,13
 208 520 208 520 226 535 c 128,-1,14
 244 550 244 550 269 550 c 0,15,16
 295 550 295 550 313.5 535 c 128,-1,17
 332 520 332 520 332 482 c 0,18,19
 332 446 332 446 313.5 430 c 128,-1,20
 295 414 295 414 269 414 c 0,21,22
 244 414 244 414 226 430 c 128,-1,23
 208 446 208 446 208 482 c 0,12,13
EndSplineSet
EndChar

StartChar: semicolon
Encoding: 59 59 29
Width: 540
Flags: W
LayerCount: 2
Fore
SplineSet
340.5 105 m 1,0,1
 331.5 70 331.5 70 317.5 29 c 128,-1,2
 303.5 -12 303.5 -12 287 -52.5 c 128,-1,3
 270.5 -93 270.5 -93 254.5 -129 c 1,4,-1
 188.5 -129 l 1,5,6
 195.5 -101 195.5 -101 203 -69 c 128,-1,7
 210.5 -37 210.5 -37 217.5 -4.5 c 128,-1,8
 224.5 28 224.5 28 230 59 c 128,-1,9
 235.5 90 235.5 90 239.5 116 c 1,10,-1
 333.5 116 l 1,11,-1
 340.5 105 l 1,0,1
227.5 482 m 4,12,13
 227.5 520 227.5 520 245.5 535 c 132,-1,14
 263.5 550 263.5 550 288.5 550 c 4,15,16
 314.5 550 314.5 550 333 535 c 132,-1,17
 351.5 520 351.5 520 351.5 482 c 4,18,19
 351.5 446 351.5 446 333 430 c 132,-1,20
 314.5 414 314.5 414 288.5 414 c 4,21,22
 263.5 414 263.5 414 245.5 430 c 132,-1,23
 227.5 446 227.5 446 227.5 482 c 4,12,13
EndSplineSet
EndChar

StartChar: less
Encoding: 60 60 30
Width: 540
Flags: W
LayerCount: 2
Fore
SplineSet
505.5 116 m 1,0,-1
 34.5 323 l 1,1,-1
 34.5 373 l 1,2,-1
 505.5 608 l 1,3,-1
 505.5 530 l 1,4,-1
 128.5 352 l 1,5,-1
 505.5 194 l 1,6,-1
 505.5 116 l 1,0,-1
EndSplineSet
EndChar

StartChar: equal
Encoding: 61 61 31
Width: 540
Flags: W
LayerCount: 2
Fore
SplineSet
41 416 m 1,0,-1
 41 487 l 1,1,-1
 499 487 l 1,2,-1
 499 416 l 1,3,-1
 41 416 l 1,0,-1
41 217 m 5,4,-1
 41 288 l 5,5,-1
 499 288 l 5,6,-1
 499 217 l 5,7,-1
 41 217 l 5,4,-1
EndSplineSet
EndChar

StartChar: greater
Encoding: 62 62 32
Width: 540
Flags: W
LayerCount: 2
Fore
SplineSet
34.5 194 m 1,0,-1
 411.5 351 l 1,1,-1
 34.5 530 l 1,2,-1
 34.5 608 l 1,3,-1
 505.5 373 l 1,4,-1
 505.5 323 l 1,5,-1
 34.5 116 l 1,6,-1
 34.5 194 l 1,0,-1
EndSplineSet
EndChar

StartChar: question
Encoding: 63 63 33
Width: 540
Flags: W
LayerCount: 2
Fore
SplineSet
200 199 m 6,0,1
 200 237 200 237 207.5 264.5 c 132,-1,2
 215 292 215 292 233.5 317 c 132,-1,3
 252 342 252 342 284 369 c 4,4,5
 323 402 323 402 344.5 424 c 132,-1,6
 366 446 366 446 375 467 c 132,-1,7
 384 488 384 488 384 518 c 4,8,9
 384 566 384 566 353 592 c 132,-1,10
 322 618 322 618 263 618 c 4,11,12
 214 618 214 618 176 605.5 c 132,-1,13
 138 593 138 593 103 576 c 5,14,-1
 72 646 l 5,15,16
 112 667 112 667 160.5 681 c 132,-1,17
 209 695 209 695 269 695 c 4,18,19
 364 695 364 695 416 648 c 132,-1,20
 468 601 468 601 468 520 c 4,21,22
 468 475 468 475 453.5 443.5 c 132,-1,23
 439 412 439 412 412.5 385.5 c 132,-1,24
 386 359 386 359 350 329 c 4,25,26
 317 301 317 301 299.5 280 c 132,-1,27
 282 259 282 259 276 238.5 c 132,-1,28
 270 218 270 218 270 189 c 6,29,-1
 270 172 l 5,30,-1
 200 172 l 5,31,-1
 200 199 l 6,0,1
177 25 m 4,32,33
 177 62 177 62 194.5 77 c 132,-1,34
 212 92 212 92 239 92 c 4,35,36
 264 92 264 92 282 77 c 132,-1,37
 300 62 300 62 300 25 c 4,38,39
 300 -11 300 -11 282 -27 c 132,-1,40
 264 -43 264 -43 239 -43 c 4,41,42
 212 -43 212 -43 194.5 -27 c 132,-1,43
 177 -11 177 -11 177 25 c 4,32,33
EndSplineSet
EndChar

StartChar: at
Encoding: 64 64 34
Width: 540
Flags: W
LayerCount: 2
Fore
SplineSet
294 -89 m 0,0,1
 194 -89 194 -89 125 -42 c 128,-1,2
 56 5 56 5 20.5 91.5 c 128,-1,3
 -15 178 -15 178 -15 294 c 0,4,5
 -15 386 -15 386 4.5 463 c 128,-1,6
 24 540 24 540 62.5 596 c 128,-1,7
 101 652 101 652 158 683 c 128,-1,8
 215 714 215 714 289 714 c 0,9,10
 370 714 370 714 429.5 671 c 128,-1,11
 489 628 489 628 522 548 c 128,-1,12
 555 468 555 468 555 357 c 0,13,14
 555 311 555 311 548.5 267 c 128,-1,15
 542 223 542 223 528.5 187 c 128,-1,16
 515 151 515 151 492.5 129.5 c 128,-1,17
 470 108 470 108 437 108 c 0,18,19
 403 108 403 108 384 135 c 128,-1,20
 365 162 365 162 360 196 c 1,21,-1
 358 196 l 1,22,23
 344 159 344 159 316 133.5 c 128,-1,24
 288 108 288 108 246 108 c 0,25,26
 185 108 185 108 152 160 c 128,-1,27
 119 212 119 212 119 296 c 0,28,29
 119 362 119 362 140 412.5 c 128,-1,30
 161 463 161 463 199.5 491.5 c 128,-1,31
 238 520 238 520 291 520 c 0,32,33
 327 520 327 520 362 512.5 c 128,-1,34
 397 505 397 505 416 497 c 1,35,-1
 405 294 l 2,36,37
 404 286 404 286 404 275.5 c 128,-1,38
 404 265 404 265 404 257 c 0,39,40
 404 205 404 205 415 188 c 128,-1,41
 426 171 426 171 439 171 c 0,42,43
 457 171 457 171 468 196.5 c 128,-1,44
 479 222 479 222 483.5 264.5 c 128,-1,45
 488 307 488 307 488 358 c 0,46,47
 488 497 488 497 432.5 572.5 c 128,-1,48
 377 648 377 648 288 648 c 0,49,50
 212 648 212 648 159.5 604 c 128,-1,51
 107 560 107 560 80.5 481.5 c 128,-1,52
 54 403 54 403 54 297 c 0,53,54
 54 199 54 199 81 127 c 128,-1,55
 108 55 108 55 162 16.5 c 128,-1,56
 216 -22 216 -22 297 -22 c 0,57,58
 347 -22 347 -22 389 -11 c 128,-1,59
 431 0 431 0 466 16 c 1,60,-1
 466 -49 l 1,61,62
 430 -67 430 -67 389 -78 c 128,-1,63
 348 -89 348 -89 294 -89 c 0,0,1
259 171 m 0,64,65
 296 171 296 171 311 213.5 c 128,-1,66
 326 256 326 256 330 323 c 2,67,-1
 337 447 l 1,68,69
 327 451 327 451 314 454 c 128,-1,70
 301 457 301 457 287 457 c 0,71,72
 254 457 254 457 234.5 433 c 128,-1,73
 215 409 215 409 206 372 c 128,-1,74
 197 335 197 335 197 294 c 0,75,76
 197 229 197 229 214 200 c 128,-1,77
 231 171 231 171 259 171 c 0,64,65
EndSplineSet
EndChar

StartChar: A
Encoding: 65 65 35
Width: 540
GlyphClass: 2
Flags: W
LayerCount: 2
Fore
SplineSet
199.5 -13 m 0,0,1
 138.5 -13 138.5 -13 91.5 18.5 c 128,-1,2
 44.5 50 44.5 50 18 111.5 c 128,-1,3
 -8.5 173 -8.5 173 -8.5 262 c 0,4,5
 -8.5 356 -8.5 356 24.5 421.5 c 128,-1,6
 57.5 487 57.5 487 112 522 c 128,-1,7
 166.5 557 166.5 557 229.5 557 c 0,8,9
 263.5 557 263.5 557 296 543 c 128,-1,10
 328.5 529 328.5 529 355 497.5 c 128,-1,11
 381.5 466 381.5 466 396.5 414 c 1,12,-1
 399.5 414 l 1,13,-1
 422.5 543 l 1,14,-1
 512.5 543 l 1,15,16
 501.5 490 501.5 490 490 431 c 128,-1,17
 478.5 372 478.5 372 468 314.5 c 128,-1,18
 457.5 257 457.5 257 451 206.5 c 128,-1,19
 444.5 156 444.5 156 444.5 119 c 0,20,21
 444.5 92 444.5 92 460 77.5 c 128,-1,22
 475.5 63 475.5 63 498.5 63 c 0,23,24
 507.5 63 507.5 63 517.5 65 c 128,-1,25
 527.5 67 527.5 67 535.5 71 c 1,26,-1
 548.5 1 l 1,27,28
 537.5 -4 537.5 -4 520.5 -8.5 c 128,-1,29
 503.5 -13 503.5 -13 479.5 -13 c 0,30,31
 431.5 -13 431.5 -13 402 13.5 c 128,-1,32
 372.5 40 372.5 40 372.5 97 c 1,33,-1
 368.5 97 l 1,34,35
 306.5 -13 306.5 -13 199.5 -13 c 0,0,1
218.5 64 m 0,36,37
 254.5 64 254.5 64 287 86.5 c 128,-1,38
 319.5 109 319.5 109 341.5 147.5 c 128,-1,39
 363.5 186 363.5 186 366.5 232 c 2,40,-1
 375.5 335 l 1,41,42
 363.5 379 363.5 379 348 407.5 c 128,-1,43
 332.5 436 332.5 436 314.5 452 c 128,-1,44
 296.5 468 296.5 468 277 474 c 128,-1,45
 257.5 480 257.5 480 238.5 480 c 0,46,47
 199.5 480 199.5 480 164.5 455.5 c 128,-1,48
 129.5 431 129.5 431 107.5 383 c 128,-1,49
 85.5 335 85.5 335 85.5 263 c 0,50,51
 85.5 168 85.5 168 121 116 c 128,-1,52
 156.5 64 156.5 64 218.5 64 c 0,36,37
EndSplineSet
EndChar

StartChar: B
Encoding: 66 66 36
Width: 540
GlyphClass: 2
Flags: W
LayerCount: 2
Fore
SplineSet
211.5 271 m 4,0,1
 211.5 309 211.5 309 229.5 324 c 132,-1,2
 247.5 339 247.5 339 272.5 339 c 4,3,4
 298.5 339 298.5 339 317 324 c 132,-1,5
 335.5 309 335.5 309 335.5 271 c 4,6,7
 335.5 235 335.5 235 317 219 c 132,-1,8
 298.5 203 298.5 203 272.5 203 c 4,9,10
 247.5 203 247.5 203 229.5 219 c 132,-1,11
 211.5 235 211.5 235 211.5 271 c 4,0,1
286.5 -8 m 0,12,13
 227.5 -8 227.5 -8 187 15.5 c 128,-1,14
 146.5 39 146.5 39 123.5 70 c 1,15,-1
 117.5 70 l 1,16,-1
 109.5 2 l 1,17,-1
 37.5 2 l 1,18,-1
 37.5 762 l 1,19,-1
 124.5 762 l 1,20,-1
 124.5 578 l 2,21,22
 124.5 550 124.5 550 124 523 c 128,-1,23
 123.5 496 123.5 496 120.5 468 c 1,24,-1
 124.5 468 l 1,25,26
 145.5 500 145.5 500 185.5 524 c 128,-1,27
 225.5 548 225.5 548 286.5 548 c 0,28,29
 334.5 548 334.5 548 374.5 530.5 c 128,-1,30
 414.5 513 414.5 513 443 478 c 128,-1,31
 471.5 443 471.5 443 487 391 c 128,-1,32
 502.5 339 502.5 339 502.5 271 c 0,33,34
 502.5 202 502.5 202 487 150 c 128,-1,35
 471.5 98 471.5 98 442.5 62.5 c 128,-1,36
 413.5 27 413.5 27 374 9.5 c 128,-1,37
 334.5 -8 334.5 -8 286.5 -8 c 0,12,13
269.5 65 m 0,38,39
 342.5 65 342.5 65 376.5 118 c 128,-1,40
 410.5 171 410.5 171 410.5 271 c 0,41,42
 410.5 369 410.5 369 376.5 422 c 128,-1,43
 342.5 475 342.5 475 268.5 475 c 0,44,45
 199.5 475 199.5 475 162 422.5 c 128,-1,46
 124.5 370 124.5 370 124.5 273 c 0,47,48
 124.5 172 124.5 172 160 118.5 c 128,-1,49
 195.5 65 195.5 65 269.5 65 c 0,38,39
EndSplineSet
EndChar

StartChar: C
Encoding: 67 67 37
Width: 540
GlyphClass: 2
Flags: W
LayerCount: 2
Fore
SplineSet
283 584 m 4
 243 584 243 584 214.5 612 c 4
 186 640 186 640 186 684 c 4
 186 708 186 708 194.5 729.5 c 4
 203 751 203 751 218 766.5 c 4
 233 782 233 782 254 791.5 c 4
 275 801 275 801 300 801 c 4
 320 801 320 801 337 792.5 c 4
 354 784 354 784 366 769 c 4
 378 754 378 754 384.5 735 c 4
 391 716 391 716 391 695 c 4
 391 668 391 668 382.5 647.5 c 4
 374 627 374 627 359 613 c 4
 344 599 344 599 324.5 591.5 c 4
 305 584 305 584 283 584 c 4
246 757 m 4
 253 764 253 764 254.5 769 c 4
 256 774 256 774 254 774 c 4
 246 774 246 774 237 766.5 c 4
 228 759 228 759 220.5 748.5 c 4
 213 738 213 738 208 726 c 4
 203 714 203 714 203 704 c 4
 203 702 203 702 204.5 696 c 4
 206 690 206 690 209 690 c 4
 213 690 213 690 219 712 c 4
 222 726 222 726 230 737.5 c 4
 238 749 238 749 246 757 c 4
287 641 m 4
 299 641 299 641 315.5 655 c 4
 332 669 332 669 332 695 c 4
 332 715 332 715 321.5 728.5 c 4
 311 742 311 742 294 742 c 260
 277 742 277 742 263 728.5 c 4
 249 715 249 715 249 691 c 260
 249 667 249 667 260 654 c 4
 271 641 271 641 287 641 c 4
EndSplineSet
Refer: 69 99 N 1 0 0 1 0 -15 2
EndChar

StartChar: D
Encoding: 68 68 38
Width: 540
GlyphClass: 2
Flags: W
LayerCount: 2
Fore
SplineSet
127.993164062 0 m 2,0,1
 113.91796875 -1.1064453125 113.91796875 -1.1064453125 93.4931640625 4 c 0,2,3
 77.4931640625 8 77.4931640625 8 64.4931640625 18 c 0,4,5
 47.4931640625 31 47.4931640625 31 44.4931640625 45 c 0,6,7
 37.4931640625 88 37.4931640625 88 36.9931640625 88 c 2,8,-1
 36.9931640625 516 l 2,9,10
 37.4931640625 541 37.4931640625 541 46.4931640625 562.5 c 0,11,12
 55.4931640625 582 55.4931640625 582 71.4931640625 594.5 c 128,-1,13
 87.4931640625 607 87.4931640625 607 107.993164062 612.5 c 0,14,15
 132.510742188 618.749023438 132.510742188 618.749023438 151.993164062 618 c 2,16,-1
 281.993164062 613 l 6,17,18
 329.493164062 611 329.493164062 611 364.993164062 593.5 c 4,19,20
 405.493164062 574 405.493164062 574 435.493164062 539 c 128,-1,21
 465.493164062 504 465.493164062 504 484.493164062 449.5 c 128,-1,22
 503.493164062 395 503.493164062 395 502.993164062 326 c 0,23,24
 503.493164062 257 503.493164062 257 483.993164062 192.5 c 128,-1,25
 464.493164062 128 464.493164062 128 432.993164062 89.5 c 0,26,27
 407.493164062 59 407.493164062 59 357.993164062 34.5 c 0,28,29
 318.416015625 14.9619140625 318.416015625 14.9619140625 267.993164062 11 c 2,30,-1
 127.993164062 0 l 2,0,1
221.993164062 96 m 2,31,32
 289.493164062 96 289.493164062 96 311.993164062 112.5 c 0,33,34
 335.493164062 129 335.493164062 129 351.493164062 159.5 c 128,-1,35
 367.493164062 190 367.493164062 190 377.493164062 233 c 128,-1,36
 387.493164062 276 387.493164062 276 386.993164062 329 c 0,37,38
 387.493164062 419 387.493164062 419 356.993164062 467 c 4,39,40
 322.493164062 520 322.493164062 520 278.993164062 520 c 2,41,-1
 263.993164062 520 l 2,42,43
 158.493164062 520 158.493164062 520 156.993164062 512.5 c 0,44,45
 151.493164062 481 151.493164062 481 150.993164062 480 c 2,46,-1
 150.993164062 132 l 2,47,48
 151.629882812 111.63671875 151.629882812 111.63671875 154.493164062 104 c 0,49,50
 157.493164062 96 157.493164062 96 208.993164062 96 c 2,51,-1
 221.993164062 96 l 2,31,32
67.9931640625 83 m 0,52,53
 72.4931640625 83 72.4931640625 83 73.4931640625 93.5 c 128,-1,54
 74.4931640625 104 74.4931640625 104 74.9931640625 117.5 c 0,55,56
 74.4931640625 131 74.4931640625 131 74.4931640625 143.5 c 128,-1,57
 74.4931640625 156 74.4931640625 156 73.9931640625 161 c 0,58,59
 74.4931640625 216 74.4931640625 216 67.9931640625 216 c 0,60,61
 64.4931640625 216 64.4931640625 216 61.9931640625 203.5 c 0,62,63
 58.4931640625 191 58.4931640625 191 58.9931640625 161 c 0,64,65
 58.4931640625 116 58.4931640625 116 59.4931640625 99.5 c 128,-1,66
 60.4931640625 83 60.4931640625 83 67.9931640625 83 c 0,52,53
66.9931640625 69 m 0,67,68
 60.4931640625 69 60.4931640625 69 59.9931640625 58 c 0,69,70
 60.4931640625 40 60.4931640625 40 67.9931640625 40 c 0,71,72
 70.4931640625 40 70.4931640625 40 72.9931640625 46 c 0,73,74
 74.4931640625 52 74.4931640625 52 74.9931640625 58 c 0,75,76
 74.4931640625 69 74.4931640625 69 66.9931640625 69 c 0,67,68
EndSplineSet
EndChar

StartChar: E
Encoding: 69 69 39
Width: 540
GlyphClass: 2
Flags: W
LayerCount: 2
Fore
SplineSet
355.5 20 m 6,0,1
 189 20 189 20 100.5 94 c 4,2,3
 13 168 13 168 12.5 311 c 260,4,5
 13 454 13 454 99.5 528 c 132,-1,6
 186 602 186 602 355.5 602 c 6,7,-1
 527.5 602 l 5,8,-1
 527.5 531 l 5,9,-1
 343.5 531 l 6,10,11
 109 531 109 531 86.5 347 c 5,12,-1
 527.5 347 l 5,13,-1
 527.5 276 l 5,14,-1
 86.5 276 l 5,15,16
 97 185 97 185 162.5 138 c 4,17,18
 229 91 229 91 343.5 91 c 6,19,-1
 527.5 91 l 5,20,-1
 527.5 20 l 5,21,-1
 355.5 20 l 6,0,1
EndSplineSet
EndChar

StartChar: F
Encoding: 70 70 40
Width: 540
GlyphClass: 2
Flags: W
LayerCount: 2
Fore
SplineSet
64.5 85 m 0,0,1
 64.5 103 64.5 103 80 118 c 128,-1,2
 95.5 133 95.5 133 123.5 144.5 c 128,-1,3
 151.5 156 151.5 156 189 162.5 c 128,-1,4
 226.5 169 226.5 169 269.5 169 c 0,5,6
 313.5 169 313.5 169 351 162.5 c 128,-1,7
 388.5 156 388.5 156 416 144.5 c 128,-1,8
 443.5 133 443.5 133 459.5 118 c 128,-1,9
 475.5 103 475.5 103 475.5 85 c 0,10,11
 475.5 68 475.5 68 459.5 53 c 128,-1,12
 443.5 38 443.5 38 416 27 c 128,-1,13
 388.5 16 388.5 16 351 9.5 c 128,-1,14
 313.5 3 313.5 3 269.5 3 c 0,15,16
 226.5 3 226.5 3 189 9.5 c 128,-1,17
 151.5 16 151.5 16 123.5 27 c 128,-1,18
 95.5 38 95.5 38 80 53 c 128,-1,19
 64.5 68 64.5 68 64.5 85 c 0,0,1
64.5 272 m 0,20,21
 64.5 290 64.5 290 80 305 c 128,-1,22
 95.5 320 95.5 320 123.5 331.5 c 128,-1,23
 151.5 343 151.5 343 189 349 c 128,-1,24
 226.5 355 226.5 355 269.5 355 c 0,25,26
 313.5 355 313.5 355 351 349 c 128,-1,27
 388.5 343 388.5 343 416 331.5 c 128,-1,28
 443.5 320 443.5 320 459.5 305 c 128,-1,29
 475.5 290 475.5 290 475.5 272 c 0,30,31
 475.5 255 475.5 255 459.5 240 c 128,-1,32
 443.5 225 443.5 225 416 214 c 128,-1,33
 388.5 203 388.5 203 351 196 c 128,-1,34
 313.5 189 313.5 189 269.5 189 c 0,35,36
 226.5 189 226.5 189 189 196 c 128,-1,37
 151.5 203 151.5 203 123.5 214 c 128,-1,38
 95.5 225 95.5 225 80 240 c 128,-1,39
 64.5 255 64.5 255 64.5 272 c 0,20,21
64.5 461 m 256,40,41
 64.5 478 64.5 478 80 493.5 c 128,-1,42
 95.5 509 95.5 509 123.5 520 c 128,-1,43
 151.5 531 151.5 531 189 537.5 c 128,-1,44
 226.5 544 226.5 544 269.5 544 c 0,45,46
 313.5 544 313.5 544 351 537.5 c 128,-1,47
 388.5 531 388.5 531 416 520 c 128,-1,48
 443.5 509 443.5 509 459.5 493.5 c 128,-1,49
 475.5 478 475.5 478 475.5 461 c 256,50,51
 475.5 444 475.5 444 459.5 429 c 128,-1,52
 443.5 414 443.5 414 416 402.5 c 128,-1,53
 388.5 391 388.5 391 351 384.5 c 128,-1,54
 313.5 378 313.5 378 269.5 378 c 0,55,56
 226.5 378 226.5 378 189 384.5 c 128,-1,57
 151.5 391 151.5 391 123.5 402.5 c 128,-1,58
 95.5 414 95.5 414 80 429 c 128,-1,59
 64.5 444 64.5 444 64.5 461 c 256,40,41
64.5 648 m 256,60,61
 64.5 665 64.5 665 80 680.5 c 128,-1,62
 95.5 696 95.5 696 123.5 707 c 128,-1,63
 151.5 718 151.5 718 189 724.5 c 128,-1,64
 226.5 731 226.5 731 269.5 731 c 0,65,66
 313.5 731 313.5 731 351 724.5 c 128,-1,67
 388.5 718 388.5 718 416 707 c 128,-1,68
 443.5 696 443.5 696 459.5 680.5 c 128,-1,69
 475.5 665 475.5 665 475.5 648 c 256,70,71
 475.5 631 475.5 631 459.5 616 c 128,-1,72
 443.5 601 443.5 601 416 589.5 c 128,-1,73
 388.5 578 388.5 578 351 571.5 c 128,-1,74
 313.5 565 313.5 565 269.5 565 c 0,75,76
 226.5 565 226.5 565 189 571.5 c 128,-1,77
 151.5 578 151.5 578 123.5 589.5 c 128,-1,78
 95.5 601 95.5 601 80 616 c 128,-1,79
 64.5 631 64.5 631 64.5 648 c 256,60,61
EndSplineSet
EndChar

StartChar: G
Encoding: 71 71 41
Width: 540
GlyphClass: 2
Flags: W
LayerCount: 2
Fore
SplineSet
300 621 m 0,0,1
 260 621 260 621 231.5 649 c 128,-1,2
 203 677 203 677 203 721 c 0,3,4
 203 745 203 745 211.5 766.5 c 128,-1,5
 220 788 220 788 235 803.5 c 128,-1,6
 250 819 250 819 271 828.5 c 128,-1,7
 292 838 292 838 317 838 c 0,8,9
 337 838 337 838 354 829.5 c 128,-1,10
 371 821 371 821 383 806 c 128,-1,11
 395 791 395 791 401.5 772 c 128,-1,12
 408 753 408 753 408 732 c 0,13,14
 408 705 408 705 399.5 684.5 c 128,-1,15
 391 664 391 664 376 650 c 128,-1,16
 361 636 361 636 341.5 628.5 c 128,-1,17
 322 621 322 621 300 621 c 0,0,1
263 794 m 0,18,19
 270 801 270 801 271.5 806 c 128,-1,20
 273 811 273 811 271 811 c 0,21,22
 263 811 263 811 254 803.5 c 128,-1,23
 245 796 245 796 237.5 785.5 c 128,-1,24
 230 775 230 775 225 763 c 128,-1,25
 220 751 220 751 220 741 c 0,26,27
 220 739 220 739 221.5 733 c 128,-1,28
 223 727 223 727 226 727 c 0,29,30
 230 727 230 727 236 749 c 0,31,32
 239 763 239 763 247 774.5 c 128,-1,33
 255 786 255 786 263 794 c 0,18,19
304 678 m 0,34,35
 316 678 316 678 332.5 692 c 128,-1,36
 349 706 349 706 349 732 c 0,37,38
 349 752 349 752 338.5 765.5 c 128,-1,39
 328 779 328 779 311 779 c 256,40,41
 294 779 294 779 280 765.5 c 128,-1,42
 266 752 266 752 266 728 c 256,43,44
 266 704 266 704 277 691 c 128,-1,45
 288 678 288 678 304 678 c 0,34,35
269 -37 m 0,46,47
 206 -37 206 -37 165.5 -4 c 128,-1,48
 125 29 125 29 102 79 c 128,-1,49
 79 129 79 129 70.5 187 c 128,-1,50
 62 245 62 245 62 296 c 0,51,52
 62 352 62 352 75.5 405.5 c 128,-1,53
 89 459 89 459 117.5 500.5 c 128,-1,54
 146 542 146 542 191.5 567.5 c 128,-1,55
 237 593 237 593 301 593 c 0,56,57
 328 593 328 593 357.5 587 c 128,-1,58
 387 581 387 581 411.5 564.5 c 128,-1,59
 436 548 436 548 452.5 520 c 128,-1,60
 469 492 469 492 469 448 c 0,61,62
 469 432 469 432 462.5 422.5 c 128,-1,63
 456 413 456 413 446.5 407.5 c 128,-1,64
 437 402 437 402 427 400.5 c 128,-1,65
 417 399 417 399 411 399 c 0,66,67
 397 399 397 399 384.5 409 c 128,-1,68
 372 419 372 419 372 448 c 0,69,70
 372 471 372 471 364 483 c 128,-1,71
 356 495 356 495 345 500.5 c 128,-1,72
 334 506 334 506 323.5 507 c 128,-1,73
 313 508 313 508 307 508 c 0,74,75
 281 508 281 508 258 492.5 c 128,-1,76
 235 477 235 477 217.5 448 c 128,-1,77
 200 419 200 419 190 377 c 128,-1,78
 180 335 180 335 180 282 c 0,79,80
 180 253 180 253 183.5 213 c 128,-1,81
 187 173 187 173 199 137 c 128,-1,82
 211 101 211 101 233 75.5 c 128,-1,83
 255 50 255 50 291 50 c 0,84,85
 314 50 314 50 331 65 c 128,-1,86
 348 80 348 80 359.5 102 c 128,-1,87
 371 124 371 124 377 148.5 c 128,-1,88
 383 173 383 173 382 192 c 0,89,90
 381 208 381 208 362.5 209.5 c 128,-1,91
 344 211 344 211 321 211 c 2,92,-1
 259 211 l 2,93,94
 253 211 253 211 248 217 c 128,-1,95
 243 223 243 223 240 231.5 c 128,-1,96
 237 240 237 240 235 249 c 128,-1,97
 233 258 233 258 233 264 c 0,98,99
 233 280 233 280 243.5 292.5 c 128,-1,100
 254 305 254 305 277 305 c 2,101,-1
 402 304 l 2,102,103
 415 304 415 304 428.5 298.5 c 128,-1,104
 442 293 442 293 452.5 282.5 c 128,-1,105
 463 272 463 272 470 255.5 c 128,-1,106
 477 239 477 239 477 216 c 0,107,108
 477 181 477 181 477.5 151 c 128,-1,109
 478 121 478 121 478 77 c 0,110,111
 478 43 478 43 475.5 22 c 128,-1,112
 473 1 473 1 467 -11 c 128,-1,113
 461 -23 461 -23 452.5 -27.5 c 128,-1,114
 444 -32 444 -32 432 -32 c 0,115,116
 415 -32 415 -32 407 -19.5 c 128,-1,117
 399 -7 399 -7 395.5 8 c 128,-1,118
 392 23 392 23 391 35.5 c 128,-1,119
 390 48 390 48 387 48 c 256,120,121
 384 48 384 48 378 34.5 c 128,-1,122
 372 21 372 21 359 5.5 c 128,-1,123
 346 -10 346 -10 325 -23.5 c 128,-1,124
 304 -37 304 -37 269 -37 c 0,46,47
174 44 m 0,125,126
 174 49 174 49 158 72 c 0,127,128
 151 83 151 83 144 97.5 c 128,-1,129
 137 112 137 112 132 126 c 128,-1,130
 127 140 127 140 124 152 c 128,-1,131
 121 164 121 164 122 168 c 0,132,133
 123 173 123 173 120 175.5 c 128,-1,134
 117 178 117 178 116 178 c 0,135,136
 108 178 108 178 106 167 c 256,137,138
 104 156 104 156 109.5 135 c 128,-1,139
 115 114 115 114 124.5 93 c 128,-1,140
 134 72 134 72 145.5 56 c 128,-1,141
 157 40 157 40 166 39 c 0,142,143
 173 37 173 37 174 44 c 0,125,126
437 -7 m 0,144,145
 437 1 437 1 429 6.5 c 128,-1,146
 421 12 421 12 420 24 c 0,147,148
 420 27 420 27 419.5 35 c 128,-1,149
 419 43 419 43 414 43 c 256,150,151
 409 43 409 43 408 36.5 c 128,-1,152
 407 30 407 30 407 25 c 256,153,154
 407 20 407 20 408.5 12.5 c 128,-1,155
 410 5 410 5 413 -1.5 c 128,-1,156
 416 -8 416 -8 420 -13 c 128,-1,157
 424 -18 424 -18 429 -18 c 256,158,159
 434 -18 434 -18 435.5 -14 c 128,-1,160
 437 -10 437 -10 437 -7 c 0,144,145
194 27 m 0,161,162
 195 30 195 30 192.5 32.5 c 128,-1,163
 190 35 190 35 188 35 c 0,164,165
 184 36 184 36 182.5 33 c 128,-1,166
 181 30 181 30 180 28 c 0,167,168
 179 23 179 23 181.5 21.5 c 128,-1,169
 184 20 184 20 186 20 c 0,170,171
 192 20 192 20 194 27 c 0,161,162
EndSplineSet
EndChar

StartChar: H
Encoding: 72 72 42
Width: 540
GlyphClass: 2
Flags: W
LayerCount: 2
Fore
SplineSet
442 0 m 0,0,1
 425 0 425 0 415 9.5 c 128,-1,2
 405 19 405 19 400 32.5 c 128,-1,3
 395 46 395 46 393.5 62.5 c 128,-1,4
 392 79 392 79 392 92 c 2,5,-1
 392 237 l 2,6,7
 392 250 392 250 389.5 256.5 c 128,-1,8
 387 263 387 263 379 263 c 2,9,-1
 166 263 l 2,10,11
 156 263 156 263 152 260 c 128,-1,12
 148 257 148 257 148 247 c 2,13,-1
 148 105 l 2,14,15
 148 91 148 91 146 72.5 c 128,-1,16
 144 54 144 54 138 38 c 128,-1,17
 132 22 132 22 122 11 c 128,-1,18
 112 0 112 0 96 0 c 0,19,20
 78 0 78 0 66 8.5 c 128,-1,21
 54 17 54 17 47.5 31 c 128,-1,22
 41 45 41 45 38.5 64 c 128,-1,23
 36 83 36 83 36 105 c 2,24,-1
 36 546 l 2,25,26
 36 552 36 552 38.5 563.5 c 128,-1,27
 41 575 41 575 47 587 c 128,-1,28
 53 599 53 599 64 607.5 c 128,-1,29
 75 616 75 616 93 616 c 0,30,31
 108 616 108 616 118.5 609 c 128,-1,32
 129 602 129 602 135.5 591 c 128,-1,33
 142 580 142 580 145 567.5 c 128,-1,34
 148 555 148 555 148 544 c 2,35,-1
 148 369 l 2,36,37
 148 361 148 361 150.5 355 c 128,-1,38
 152.984375 349.036132812 152.984375 349.036132812 161 349 c 2,39,-1
 381 348 l 2,40,41
 386 348 386 348 389 350.5 c 128,-1,42
 392 353 392 353 392 367 c 2,43,-1
 392 540 l 2,44,45
 392 578 392 578 404 597 c 128,-1,46
 416 616 416 616 437 616 c 0,47,48
 448 616 448 616 459.5 612 c 128,-1,49
 471 608 471 608 481 598.5 c 128,-1,50
 491 589 491 589 497.5 574 c 128,-1,51
 504 559 504 559 504 537 c 2,52,-1
 504 91 l 2,53,54
 504 77 504 77 500.5 61 c 128,-1,55
 497 45 497 45 489.5 31.5 c 128,-1,56
 482 18 482 18 470 9 c 128,-1,57
 458 0 458 0 442 0 c 0,0,1
53 555 m 0,58,59
 56 555 56 555 60.5 559.5 c 128,-1,60
 65 564 65 564 69.5 570.5 c 128,-1,61
 74 577 74 577 78 583.5 c 128,-1,62
 82 590 82 590 83 593 c 256,63,64
 84 596 84 596 83.5 600.5 c 128,-1,65
 83 605 83 605 80 604 c 0,66,67
 73 603 73 603 68 597.5 c 128,-1,68
 63 592 63 592 59 585 c 128,-1,69
 55 578 55 578 53 572 c 128,-1,70
 51 566 51 566 51 563 c 0,71,72
 51 561 51 561 51 558.5 c 128,-1,73
 51 556 51 556 53 555 c 0,58,59
429 575 m 0,74,75
 430 583 430 583 435.5 591 c 128,-1,76
 441 599 441 599 435 600 c 0,77,78
 427 601 427 601 418.5 591.5 c 0,79,80
 409 581 409 581 408 568 c 0,81,82
 407 553 407 553 413 552 c 0,83,84
 421 551 421 551 424.5 561 c 128,-1,85
 428 571 428 571 429 575 c 0,74,75
78 30 m 0,86,87
 78 35 78 35 74 39 c 0,88,89
 69 44 69 44 67 59.5 c 128,-1,90
 65 75 65 75 65 86 c 0,91,92
 65 103 65 103 58 103 c 0,93,94
 54 103 54 103 53 96 c 128,-1,95
 52 89 52 89 52 86 c 0,96,97
 52 82 52 82 53 72 c 128,-1,98
 54 62 54 62 56 52 c 128,-1,99
 58 42 58 42 62 34.5 c 128,-1,100
 66 27 66 27 72 27 c 256,101,102
 78 27 78 27 78 30 c 0,86,87
430 26 m 0,103,104
 424 32 424 32 419.5 50 c 128,-1,105
 415 68 415 68 415 77 c 0,106,107
 415 81 415 81 413 81 c 0,108,109
 410 81 410 81 408 73.5 c 128,-1,110
 406 66 406 66 406 58 c 0,111,112
 406 46 406 46 411 31.5 c 128,-1,113
 416 17 416 17 430 17 c 0,114,115
 433 17 433 17 432.5 20.5 c 128,-1,116
 432 24 432 24 430 26 c 0,103,104
EndSplineSet
EndChar

StartChar: I
Encoding: 73 73 43
Width: 540
GlyphClass: 2
Flags: W
LayerCount: 2
Fore
SplineSet
22 448 m 1,0,-1
 234 790 l 5,1,-1
 284 790 l 5,2,-1
 518 448 l 1,3,-1
 440 448 l 1,4,-1
 260 697 l 5,5,-1
 100 448 l 1,6,-1
 22 448 l 1,0,-1
40 0 m 1,7,-1
 40 60 l 1,8,-1
 231 75 l 1,9,-1
 231 526 l 1,10,-1
 321 526 l 1,11,-1
 321 75 l 1,12,-1
 500 60 l 1,13,-1
 500 0 l 1,14,-1
 40 0 l 1,7,-1
EndSplineSet
EndChar

StartChar: J
Encoding: 74 74 44
Width: 540
GlyphClass: 2
Flags: W
LayerCount: 2
Fore
SplineSet
64.5 85 m 0,0,1
 64.5 103 64.5 103 80 118 c 128,-1,2
 95.5 133 95.5 133 123.5 144.5 c 128,-1,3
 151.5 156 151.5 156 189 162.5 c 128,-1,4
 226.5 169 226.5 169 269.5 169 c 0,5,6
 313.5 169 313.5 169 351 162.5 c 128,-1,7
 388.5 156 388.5 156 416 144.5 c 128,-1,8
 443.5 133 443.5 133 459.5 118 c 128,-1,9
 475.5 103 475.5 103 475.5 85 c 0,10,11
 475.5 68 475.5 68 459.5 53 c 128,-1,12
 443.5 38 443.5 38 416 27 c 128,-1,13
 388.5 16 388.5 16 351 9.5 c 128,-1,14
 313.5 3 313.5 3 269.5 3 c 0,15,16
 226.5 3 226.5 3 189 9.5 c 128,-1,17
 151.5 16 151.5 16 123.5 27 c 128,-1,18
 95.5 38 95.5 38 80 53 c 128,-1,19
 64.5 68 64.5 68 64.5 85 c 0,0,1
64.5 272 m 0,20,21
 64.5 290 64.5 290 80 305 c 128,-1,22
 95.5 320 95.5 320 123.5 331.5 c 128,-1,23
 151.5 343 151.5 343 189 349 c 128,-1,24
 226.5 355 226.5 355 269.5 355 c 0,25,26
 313.5 355 313.5 355 351 349 c 128,-1,27
 388.5 343 388.5 343 416 331.5 c 128,-1,28
 443.5 320 443.5 320 459.5 305 c 128,-1,29
 475.5 290 475.5 290 475.5 272 c 0,30,31
 475.5 255 475.5 255 459.5 240 c 128,-1,32
 443.5 225 443.5 225 416 214 c 128,-1,33
 388.5 203 388.5 203 351 196 c 128,-1,34
 313.5 189 313.5 189 269.5 189 c 0,35,36
 226.5 189 226.5 189 189 196 c 128,-1,37
 151.5 203 151.5 203 123.5 214 c 128,-1,38
 95.5 225 95.5 225 80 240 c 128,-1,39
 64.5 255 64.5 255 64.5 272 c 0,20,21
64.5 461 m 256,40,41
 64.5 478 64.5 478 80 493.5 c 128,-1,42
 95.5 509 95.5 509 123.5 520 c 128,-1,43
 151.5 531 151.5 531 189 537.5 c 128,-1,44
 226.5 544 226.5 544 269.5 544 c 0,45,46
 313.5 544 313.5 544 351 537.5 c 128,-1,47
 388.5 531 388.5 531 416 520 c 128,-1,48
 443.5 509 443.5 509 459.5 493.5 c 128,-1,49
 475.5 478 475.5 478 475.5 461 c 256,50,51
 475.5 444 475.5 444 459.5 429 c 128,-1,52
 443.5 414 443.5 414 416 402.5 c 128,-1,53
 388.5 391 388.5 391 351 384.5 c 128,-1,54
 313.5 378 313.5 378 269.5 378 c 0,55,56
 226.5 378 226.5 378 189 384.5 c 128,-1,57
 151.5 391 151.5 391 123.5 402.5 c 128,-1,58
 95.5 414 95.5 414 80 429 c 128,-1,59
 64.5 444 64.5 444 64.5 461 c 256,40,41
144.5 461 m 256,60,61
 144.5 450 144.5 450 154 440.5 c 128,-1,62
 163.5 431 163.5 431 180.5 424 c 128,-1,63
 197.5 417 197.5 417 220.5 413 c 128,-1,64
 243.5 409 243.5 409 269.5 409 c 0,65,66
 296.5 409 296.5 409 319 413 c 128,-1,67
 341.5 417 341.5 417 358.5 424 c 128,-1,68
 375.5 431 375.5 431 385 440.5 c 128,-1,69
 394.5 450 394.5 450 394.5 461 c 256,70,71
 394.5 472 394.5 472 385 481.5 c 128,-1,72
 375.5 491 375.5 491 358.5 498 c 128,-1,73
 341.5 505 341.5 505 319 509 c 128,-1,74
 296.5 513 296.5 513 269.5 513 c 0,75,76
 243.5 513 243.5 513 220.5 509 c 128,-1,77
 197.5 505 197.5 505 180.5 498 c 128,-1,78
 163.5 491 163.5 491 154 481.5 c 128,-1,79
 144.5 472 144.5 472 144.5 461 c 256,60,61
64.5 648 m 256,80,81
 64.5 665 64.5 665 80 680.5 c 128,-1,82
 95.5 696 95.5 696 123.5 707 c 128,-1,83
 151.5 718 151.5 718 189 724.5 c 128,-1,84
 226.5 731 226.5 731 269.5 731 c 0,85,86
 313.5 731 313.5 731 351 724.5 c 128,-1,87
 388.5 718 388.5 718 416 707 c 128,-1,88
 443.5 696 443.5 696 459.5 680.5 c 128,-1,89
 475.5 665 475.5 665 475.5 648 c 256,90,91
 475.5 631 475.5 631 459.5 616 c 128,-1,92
 443.5 601 443.5 601 416 589.5 c 128,-1,93
 388.5 578 388.5 578 351 571.5 c 128,-1,94
 313.5 565 313.5 565 269.5 565 c 0,95,96
 226.5 565 226.5 565 189 571.5 c 128,-1,97
 151.5 578 151.5 578 123.5 589.5 c 128,-1,98
 95.5 601 95.5 601 80 616 c 128,-1,99
 64.5 631 64.5 631 64.5 648 c 256,80,81
EndSplineSet
EndChar

StartChar: K
Encoding: 75 75 45
Width: 540
GlyphClass: 2
Flags: W
LayerCount: 2
Fore
SplineSet
221.5 575 m 0,0,1
 181.5 575 181.5 575 153 603 c 128,-1,2
 124.5 631 124.5 631 124.5 675 c 0,3,4
 124.5 699 124.5 699 133 720.5 c 128,-1,5
 141.5 742 141.5 742 156.5 757.5 c 128,-1,6
 171.5 773 171.5 773 192.5 782.5 c 128,-1,7
 213.5 792 213.5 792 238.5 792 c 0,8,9
 258.5 792 258.5 792 275.5 783.5 c 128,-1,10
 292.5 775 292.5 775 304.5 760 c 128,-1,11
 316.5 745 316.5 745 323 726 c 128,-1,12
 329.5 707 329.5 707 329.5 686 c 0,13,14
 329.5 659 329.5 659 321 638.5 c 128,-1,15
 312.5 618 312.5 618 297.5 604 c 128,-1,16
 282.5 590 282.5 590 263 582.5 c 128,-1,17
 243.5 575 243.5 575 221.5 575 c 0,0,1
184.5 748 m 0,18,19
 191.5 755 191.5 755 193 760 c 128,-1,20
 194.5 765 194.5 765 192.5 765 c 0,21,22
 184.5 765 184.5 765 175.5 757.5 c 128,-1,23
 166.5 750 166.5 750 159 739.5 c 128,-1,24
 151.5 729 151.5 729 146.5 717 c 128,-1,25
 141.5 705 141.5 705 141.5 695 c 0,26,27
 141.5 693 141.5 693 143 687 c 128,-1,28
 144.5 681 144.5 681 147.5 681 c 0,29,30
 151.5 681 151.5 681 157.5 703 c 0,31,32
 160.5 717 160.5 717 168.5 728.5 c 128,-1,33
 176.5 740 176.5 740 184.5 748 c 0,18,19
225.5 632 m 0,34,35
 237.5 632 237.5 632 254 646 c 128,-1,36
 270.5 660 270.5 660 270.5 686 c 0,37,38
 270.5 706 270.5 706 260 719.5 c 128,-1,39
 249.5 733 249.5 733 232.5 733 c 256,40,41
 215.5 733 215.5 733 201.5 719.5 c 128,-1,42
 187.5 706 187.5 706 187.5 682 c 256,43,44
 187.5 658 187.5 658 198.5 645 c 128,-1,45
 209.5 632 209.5 632 225.5 632 c 0,34,35
136.5 0 m 0,46,47
 115.5 0 115.5 0 105.5 11 c 128,-1,48
 95.5 22 95.5 22 92 38.5 c 128,-1,49
 88.5 55 88.5 55 88.5 73 c 128,-1,50
 88.5 91 88.5 91 88.5 105 c 2,51,-1
 88.5 204 l 1,52,-1
 87.5 402 l 1,53,-1
 87.5 428 l 2,54,55
 87.5 455 87.5 455 89.5 476 c 128,-1,56
 91.5 497 91.5 497 97.5 512 c 128,-1,57
 103.5 527 103.5 527 115 535 c 128,-1,58
 126.5 543 126.5 543 146.5 543 c 0,59,60
 169.5 543 169.5 543 187 524.5 c 128,-1,61
 204.5 506 204.5 506 204.5 476 c 0,62,63
 204.5 471 204.5 471 204 456 c 128,-1,64
 203.5 441 203.5 441 203.5 421 c 2,65,-1
 203.5 429 l 1,66,-1
 203.5 410 l 2,67,68
 203.5 391 203.5 391 205 379 c 128,-1,69
 206.5 367 206.5 367 208.5 367 c 0,70,71
 212.5 367 212.5 367 224 385.5 c 128,-1,72
 235.5 404 235.5 404 251 431.5 c 128,-1,73
 266.5 459 266.5 459 284.5 491.5 c 128,-1,74
 302.5 524 302.5 524 320.5 551.5 c 128,-1,75
 338.5 579 338.5 579 355 597.5 c 128,-1,76
 371.5 616 371.5 616 382.5 616 c 0,77,78
 391.5 616 391.5 616 402.5 613 c 128,-1,79
 413.5 610 413.5 610 422.5 604 c 128,-1,80
 431.5 598 431.5 598 437.5 589 c 128,-1,81
 443.5 580 443.5 580 443.5 567 c 0,82,83
 443.5 559 443.5 559 432.5 537.5 c 128,-1,84
 421.5 516 421.5 516 405.5 489 c 128,-1,85
 389.5 462 389.5 462 370.5 432 c 128,-1,86
 351.5 402 351.5 402 335.5 376.5 c 128,-1,87
 319.5 351 319.5 351 308.5 333.5 c 128,-1,88
 297.5 316 297.5 316 297.5 313 c 0,89,90
 297.5 309 297.5 309 309 290 c 128,-1,91
 320.5 271 320.5 271 337.5 245 c 128,-1,92
 354.5 219 354.5 219 375 188.5 c 128,-1,93
 395.5 158 395.5 158 412.5 130 c 128,-1,94
 429.5 102 429.5 102 441 80 c 128,-1,95
 452.5 58 452.5 58 452.5 48 c 0,96,97
 452.5 35 452.5 35 444 26 c 128,-1,98
 435.5 17 435.5 17 423.5 11 c 128,-1,99
 411.5 5 411.5 5 399.5 2 c 128,-1,100
 387.5 -1 387.5 -1 379.5 -1 c 0,101,102
 365.5 -1 365.5 -1 350.5 17.5 c 128,-1,103
 335.5 36 335.5 36 323.5 57 c 0,104,105
 319.5 64 319.5 64 311 80.5 c 128,-1,106
 302.5 97 302.5 97 291 118 c 128,-1,107
 279.5 139 279.5 139 267 161.5 c 128,-1,108
 254.5 184 254.5 184 243 203 c 128,-1,109
 231.5 222 231.5 222 223 234 c 128,-1,110
 214.5 246 214.5 246 210.5 246 c 0,111,112
 202.5 246 202.5 246 202.5 234.5 c 128,-1,113
 202.5 223 202.5 223 202.5 215 c 2,114,-1
 202.5 164 l 1,115,-1
 203.5 125 l 1,116,-1
 203.5 102 l 2,117,118
 203.5 51 203.5 51 187.5 25.5 c 128,-1,119
 171.5 0 171.5 0 136.5 0 c 0,46,47
106.5 488 m 0,120,121
 111.5 487 111.5 487 116 491 c 128,-1,122
 120.5 495 120.5 495 124 500.5 c 128,-1,123
 127.5 506 127.5 506 130.5 512.5 c 128,-1,124
 133.5 519 133.5 519 134.5 523 c 0,125,126
 135.5 526 135.5 526 132.5 528.5 c 128,-1,127
 129.5 531 129.5 531 126.5 531 c 0,128,129
 122.5 531 122.5 531 118.5 526 c 128,-1,130
 114.5 521 114.5 521 111 514.5 c 128,-1,131
 107.5 508 107.5 508 105.5 501.5 c 128,-1,132
 103.5 495 103.5 495 103.5 492 c 0,133,134
 103.5 488 103.5 488 106.5 488 c 0,120,121
356.5 558 m 0,135,136
 359.5 558 359.5 558 365.5 562.5 c 128,-1,137
 371.5 567 371.5 567 377.5 573 c 128,-1,138
 383.5 579 383.5 579 387.5 585.5 c 128,-1,139
 391.5 592 391.5 592 390.5 596 c 0,140,141
 390.5 600 390.5 600 386.5 600 c 0,142,143
 383.5 601 383.5 601 377 596.5 c 128,-1,144
 370.5 592 370.5 592 364 585.5 c 128,-1,145
 357.5 579 357.5 579 353 573 c 128,-1,146
 348.5 567 348.5 567 349.5 564 c 0,147,148
 351.5 559 351.5 559 356.5 558 c 0,135,136
121.5 70 m 0,149,150
 121.5 74 121.5 74 121.5 84.5 c 128,-1,151
 121.5 95 121.5 95 120.5 106 c 128,-1,152
 119.5 117 119.5 117 117.5 125.5 c 128,-1,153
 115.5 134 115.5 134 111.5 134 c 0,154,155
 108.5 134 108.5 134 106 129 c 128,-1,156
 103.5 124 103.5 124 102.5 117 c 128,-1,157
 101.5 110 101.5 110 101 103.5 c 128,-1,158
 100.5 97 100.5 97 100.5 95 c 0,159,160
 100.5 91 100.5 91 100.5 82.5 c 128,-1,161
 100.5 74 100.5 74 102 65 c 128,-1,162
 103.5 56 103.5 56 106.5 49.5 c 128,-1,163
 109.5 43 109.5 43 115.5 43 c 0,164,165
 117.5 43 117.5 43 119 47 c 128,-1,166
 120.5 51 120.5 51 121 55.5 c 128,-1,167
 121.5 60 121.5 60 121.5 64.5 c 128,-1,168
 121.5 69 121.5 69 121.5 70 c 0,149,150
382.5 21 m 0,169,170
 382.5 24 382.5 24 379.5 30.5 c 128,-1,171
 376.5 37 376.5 37 372 43 c 128,-1,172
 367.5 49 367.5 49 362.5 54 c 128,-1,173
 357.5 59 357.5 59 354.5 59 c 0,174,175
 352.5 59 352.5 59 351.5 55.5 c 128,-1,176
 350.5 52 350.5 52 350.5 50 c 0,177,178
 350.5 47 350.5 47 353 41 c 128,-1,179
 355.5 35 355.5 35 359 29 c 128,-1,180
 362.5 23 362.5 23 367.5 19 c 128,-1,181
 372.5 15 372.5 15 376.5 15 c 0,182,183
 382.5 15 382.5 15 382.5 21 c 0,169,170
131.5 25 m 0,184,185
 133.5 29 133.5 29 130.5 32.5 c 128,-1,186
 127.5 36 127.5 36 123.5 36 c 0,187,188
 118.5 36 118.5 36 116 32.5 c 128,-1,189
 113.5 29 113.5 29 115.5 25 c 0,190,191
 117.5 17 117.5 17 123.5 17 c 256,192,193
 129.5 17 129.5 17 131.5 25 c 0,184,185
EndSplineSet
EndChar

StartChar: L
Encoding: 76 76 46
Width: 540
GlyphClass: 2
Flags: W
LayerCount: 2
Fore
SplineSet
342.5 186 m 4,0,1
 302.5 186 302.5 186 274 214 c 132,-1,2
 245.5 242 245.5 242 245.5 286 c 4,3,4
 245.5 310 245.5 310 254 331.5 c 132,-1,5
 262.5 353 262.5 353 277.5 368.5 c 132,-1,6
 292.5 384 292.5 384 313.5 393.5 c 132,-1,7
 334.5 403 334.5 403 359.5 403 c 4,8,9
 379.5 403 379.5 403 396.5 394.5 c 132,-1,10
 413.5 386 413.5 386 425.5 371 c 132,-1,11
 437.5 356 437.5 356 444 337 c 132,-1,12
 450.5 318 450.5 318 450.5 297 c 4,13,14
 450.5 270 450.5 270 442 249.5 c 132,-1,15
 433.5 229 433.5 229 418.5 215 c 132,-1,16
 403.5 201 403.5 201 384 193.5 c 132,-1,17
 364.5 186 364.5 186 342.5 186 c 4,0,1
305.5 359 m 4,18,19
 312.5 366 312.5 366 314 371 c 132,-1,20
 315.5 376 315.5 376 313.5 376 c 4,21,22
 305.5 376 305.5 376 296.5 368.5 c 132,-1,23
 287.5 361 287.5 361 280 350.5 c 132,-1,24
 272.5 340 272.5 340 267.5 328 c 132,-1,25
 262.5 316 262.5 316 262.5 306 c 4,26,27
 262.5 304 262.5 304 264 298 c 132,-1,28
 265.5 292 265.5 292 268.5 292 c 4,29,30
 273.5 292 273.5 292 278.5 314 c 4,31,32
 281.5 328 281.5 328 289.5 339.5 c 132,-1,33
 297.5 351 297.5 351 305.5 359 c 4,18,19
346.5 243 m 4,34,35
 358.5 243 358.5 243 375 257 c 132,-1,36
 391.5 271 391.5 271 391.5 297 c 4,37,38
 391.5 317 391.5 317 381 330.5 c 132,-1,39
 370.5 344 370.5 344 353.5 344 c 260,40,41
 336.5 344 336.5 344 322.5 330.5 c 132,-1,42
 308.5 317 308.5 317 308.5 293 c 260,43,44
 308.5 269 308.5 269 319.5 256 c 132,-1,45
 330.5 243 330.5 243 346.5 243 c 4,34,35
91.5 0 m 2,46,47
 80.5 0 80.5 0 72 8 c 128,-1,48
 63.5 16 63.5 16 63.5 27 c 2,49,-1
 63.5 553 l 2,50,51
 63.5 564 63.5 564 65 575 c 128,-1,52
 66.5 586 66.5 586 72.5 595 c 128,-1,53
 78.5 604 78.5 604 90 610 c 128,-1,54
 101.5 616 101.5 616 121.5 616 c 0,55,56
 144.5 616 144.5 616 161 598 c 128,-1,57
 177.5 580 177.5 580 177.5 560 c 2,58,-1
 177.5 121 l 2,59,60
 177.5 103 177.5 103 254 98.5 c 128,-1,61
 330.5 94 330.5 94 339.5 94 c 0,62,63
 356.5 94 356.5 94 370 94.5 c 128,-1,64
 383.5 95 383.5 95 396 95.5 c 128,-1,65
 408.5 96 408.5 96 422 96.5 c 128,-1,66
 435.5 97 435.5 97 452.5 97 c 0,67,68
 466.5 97 466.5 97 471.5 82.5 c 128,-1,69
 476.5 68 476.5 68 476.5 54 c 0,70,71
 476.5 34 476.5 34 464 16.5 c 128,-1,72
 451.5 -1 451.5 -1 437.5 -1 c 2,73,-1
 390.5 -1 l 1,74,-1
 168.5 0 l 1,75,-1
 91.5 0 l 2,46,47
81.5 549 m 0,76,77
 84.5 549 84.5 549 89 555.5 c 128,-1,78
 93.5 562 93.5 562 98 571 c 128,-1,79
 102.5 580 102.5 580 106 588 c 128,-1,80
 109.5 596 109.5 596 109.5 599 c 0,81,82
 109.5 604 109.5 604 101.5 604 c 0,83,84
 96.5 604 96.5 604 91.5 597.5 c 128,-1,85
 86.5 591 86.5 591 83 583 c 128,-1,86
 79.5 575 79.5 575 77.5 567 c 128,-1,87
 75.5 559 75.5 559 76.5 555 c 0,88,89
 76.5 549 76.5 549 81.5 549 c 0,76,77
92.5 59 m 0,90,91
 97.5 59 97.5 59 99.5 70 c 128,-1,92
 101.5 81 101.5 81 102.5 96.5 c 128,-1,93
 103.5 112 103.5 112 103 128.5 c 128,-1,94
 102.5 145 102.5 145 102.5 155 c 0,95,96
 102.5 159 102.5 159 102 165 c 128,-1,97
 101.5 171 101.5 171 100 177 c 128,-1,98
 98.5 183 98.5 183 96 187 c 128,-1,99
 93.5 191 93.5 191 88.5 191 c 0,100,101
 85.5 191 85.5 191 84 182.5 c 128,-1,102
 82.5 174 82.5 174 81.5 163 c 128,-1,103
 80.5 152 80.5 152 80.5 142.5 c 128,-1,104
 80.5 133 80.5 133 80.5 130 c 256,105,106
 80.5 127 80.5 127 81 115.5 c 128,-1,107
 81.5 104 81.5 104 83 91.5 c 128,-1,108
 84.5 79 84.5 79 86.5 69 c 128,-1,109
 88.5 59 88.5 59 92.5 59 c 0,90,91
109.5 30 m 0,110,111
 109.5 41 109.5 41 102.5 41 c 0,112,113
 92.5 41 92.5 41 92.5 30 c 0,114,115
 92.5 22 92.5 22 100.5 22 c 0,116,117
 103.5 22 103.5 22 106.5 24 c 128,-1,118
 109.5 26 109.5 26 109.5 30 c 0,110,111
EndSplineSet
EndChar

StartChar: M
Encoding: 77 77 47
Width: 540
GlyphClass: 2
Flags: W
LayerCount: 2
Fore
SplineSet
293.5 599 m 4,0,1
 253.5 599 253.5 599 225 627 c 132,-1,2
 196.5 655 196.5 655 196.5 699 c 4,3,4
 196.5 723 196.5 723 205 744.5 c 132,-1,5
 213.5 766 213.5 766 228.5 781.5 c 132,-1,6
 243.5 797 243.5 797 264.5 806.5 c 132,-1,7
 285.5 816 285.5 816 310.5 816 c 4,8,9
 330.5 816 330.5 816 347.5 807.5 c 132,-1,10
 364.5 799 364.5 799 376.5 784 c 132,-1,11
 388.5 769 388.5 769 395 750 c 132,-1,12
 401.5 731 401.5 731 401.5 710 c 4,13,14
 401.5 683 401.5 683 393 662.5 c 132,-1,15
 384.5 642 384.5 642 369.5 628 c 132,-1,16
 354.5 614 354.5 614 335 606.5 c 132,-1,17
 315.5 599 315.5 599 293.5 599 c 4,0,1
256.5 772 m 4,18,19
 263.5 779 263.5 779 265 784 c 132,-1,20
 266.5 789 266.5 789 264.5 789 c 4,21,22
 256.5 789 256.5 789 247.5 781.5 c 132,-1,23
 238.5 774 238.5 774 231 763.5 c 132,-1,24
 223.5 753 223.5 753 218.5 741 c 132,-1,25
 213.5 729 213.5 729 213.5 719 c 4,26,27
 213.5 717 213.5 717 215 711 c 132,-1,28
 216.5 705 216.5 705 219.5 705 c 4,29,30
 223.5 705 223.5 705 229.5 727 c 4,31,32
 232.5 741 232.5 741 240.5 752.5 c 132,-1,33
 248.5 764 248.5 764 256.5 772 c 4,18,19
297.5 656 m 4,34,35
 309.5 656 309.5 656 326 670 c 132,-1,36
 342.5 684 342.5 684 342.5 710 c 4,37,38
 342.5 730 342.5 730 332 743.5 c 132,-1,39
 321.5 757 321.5 757 304.5 757 c 260,40,41
 287.5 757 287.5 757 273.5 743.5 c 132,-1,42
 259.5 730 259.5 730 259.5 706 c 260,43,44
 259.5 682 259.5 682 270.5 669 c 132,-1,45
 281.5 656 281.5 656 297.5 656 c 4,34,35
45.5 0 m 0,46,47
 30.5 0 30.5 0 21.5 5.5 c 128,-1,48
 12.5 11 12.5 11 8 20 c 128,-1,49
 3.5 29 3.5 29 2 40.5 c 128,-1,50
 0.5 52 0.5 52 0.5 65 c 2,51,-1
 0.5 496 l 2,52,53
 0.5 507 0.5 507 1 520 c 128,-1,54
 1.5 533 1.5 533 5.5 544 c 128,-1,55
 9.5 555 9.5 555 18.5 562.5 c 128,-1,56
 27.5 570 27.5 570 43.5 570 c 0,57,58
 63.5 570 63.5 570 73.5 555.5 c 128,-1,59
 83.5 541 83.5 541 88 523 c 128,-1,60
 92.5 505 92.5 505 93.5 490.5 c 128,-1,61
 94.5 476 94.5 476 96.5 476 c 256,62,63
 98.5 476 98.5 476 102.5 491.5 c 128,-1,64
 106.5 507 106.5 507 117 525 c 128,-1,65
 127.5 543 127.5 543 146.5 558.5 c 128,-1,66
 165.5 574 165.5 574 198.5 574 c 0,67,68
 226.5 574 226.5 574 244.5 559 c 128,-1,69
 262.5 544 262.5 544 273.5 525.5 c 128,-1,70
 284.5 507 284.5 507 290.5 492 c 128,-1,71
 296.5 477 296.5 477 299.5 477 c 256,72,73
 302.5 477 302.5 477 308 492 c 128,-1,74
 313.5 507 313.5 507 324.5 525.5 c 128,-1,75
 335.5 544 335.5 544 355 559 c 128,-1,76
 374.5 574 374.5 574 406.5 574 c 0,77,78
 447.5 574 447.5 574 473.5 554 c 128,-1,79
 499.5 534 499.5 534 514 498.5 c 128,-1,80
 528.5 463 528.5 463 534 414.5 c 128,-1,81
 539.5 366 539.5 366 539.5 310 c 2,82,-1
 539.5 27 l 2,83,84
 539.5 13 539.5 13 520.5 6.5 c 128,-1,85
 501.5 0 501.5 0 481.5 0 c 256,86,87
 461.5 0 461.5 0 450.5 5.5 c 128,-1,88
 439.5 11 439.5 11 439.5 26 c 2,89,-1
 439.5 301 l 2,90,91
 439.5 313 439.5 313 439.5 341.5 c 128,-1,92
 439.5 370 439.5 370 435 400 c 128,-1,93
 430.5 430 430.5 430 420 452.5 c 128,-1,94
 409.5 475 409.5 475 388.5 475 c 0,95,96
 370.5 475 370.5 475 359 461 c 128,-1,97
 347.5 447 347.5 447 340.5 422.5 c 128,-1,98
 333.5 398 333.5 398 330 363.5 c 128,-1,99
 326.5 329 326.5 329 324.5 287 c 0,100,101
 321.5 238 321.5 238 320.5 211 c 128,-1,102
 319.5 184 319.5 184 320 141.5 c 128,-1,103
 320.5 99 320.5 99 321 69.5 c 128,-1,104
 321.5 40 321.5 40 321.5 31 c 0,105,106
 321.5 17 321.5 17 305 8.5 c 128,-1,107
 288.5 0 288.5 0 264.5 0 c 256,108,109
 240.5 0 240.5 0 230.5 7 c 128,-1,110
 220.5 14 220.5 14 220.5 38 c 2,111,-1
 220.5 301 l 2,112,113
 220.5 312 220.5 312 220.5 341 c 128,-1,114
 220.5 370 220.5 370 216.5 400 c 128,-1,115
 212.5 430 212.5 430 202.5 453 c 128,-1,116
 192.5 476 192.5 476 172.5 476 c 0,117,118
 154.5 476 154.5 476 142 460.5 c 128,-1,119
 129.5 445 129.5 445 121.5 421 c 128,-1,120
 113.5 397 113.5 397 109 367 c 128,-1,121
 104.5 337 104.5 337 102.5 309 c 128,-1,122
 100.5 281 100.5 281 100 257 c 128,-1,123
 99.5 233 99.5 233 99.5 221 c 2,124,-1
 99.5 45 l 2,125,126
 99.5 26 99.5 26 83.5 13 c 128,-1,127
 67.5 0 67.5 0 45.5 0 c 0,46,47
24.5 476 m 0,128,129
 30.5 477 30.5 477 31 487.5 c 128,-1,130
 31.5 498 31.5 498 31.5 506 c 0,131,132
 31.5 513 31.5 513 33.5 521.5 c 128,-1,133
 35.5 530 35.5 530 37 537 c 128,-1,134
 38.5 544 38.5 544 38.5 549 c 128,-1,135
 38.5 554 38.5 554 34.5 554 c 0,136,137
 27.5 554 27.5 554 23 547.5 c 128,-1,138
 18.5 541 18.5 541 16.5 532 c 128,-1,139
 14.5 523 14.5 523 13.5 515 c 128,-1,140
 12.5 507 12.5 507 12.5 504 c 0,141,142
 12.5 496 12.5 496 14.5 485.5 c 128,-1,143
 16.5 475 16.5 475 24.5 476 c 0,128,129
255.5 23 m 0,144,145
 255.5 33 255.5 33 249 36.5 c 128,-1,146
 242.5 40 242.5 40 242.5 51 c 0,147,148
 242.5 53 242.5 53 242.5 58.5 c 128,-1,149
 242.5 64 242.5 64 242 69.5 c 128,-1,150
 241.5 75 241.5 75 239.5 79.5 c 128,-1,151
 237.5 84 237.5 84 234.5 84 c 0,152,153
 232.5 84 232.5 84 231.5 79.5 c 128,-1,154
 230.5 75 230.5 75 230 69 c 128,-1,155
 229.5 63 229.5 63 229.5 57.5 c 128,-1,156
 229.5 52 229.5 52 229.5 50 c 0,157,158
 229.5 38 229.5 38 233 24.5 c 128,-1,159
 236.5 11 236.5 11 246.5 11 c 0,160,161
 255.5 11 255.5 11 255.5 23 c 0,144,145
471.5 24 m 0,162,163
 471.5 34 471.5 34 466 41.5 c 128,-1,164
 460.5 49 460.5 49 460.5 60 c 0,165,166
 460.5 64 460.5 64 460 74 c 128,-1,167
 459.5 84 459.5 84 453.5 84 c 0,168,169
 448.5 84 448.5 84 448 73 c 128,-1,170
 447.5 62 447.5 62 447.5 59 c 256,171,172
 447.5 56 447.5 56 448 48 c 128,-1,173
 448.5 40 448.5 40 450.5 32.5 c 128,-1,174
 452.5 25 452.5 25 455.5 19 c 128,-1,175
 458.5 13 458.5 13 463.5 13 c 0,176,177
 467.5 13 467.5 13 469.5 17.5 c 128,-1,178
 471.5 22 471.5 22 471.5 24 c 0,162,163
43.5 24 m 0,179,180
 43.5 35 43.5 35 39 36 c 128,-1,181
 34.5 37 34.5 37 29.5 44 c 0,182,183
 28.5 46 28.5 46 28 51.5 c 128,-1,184
 27.5 57 27.5 57 27.5 62.5 c 128,-1,185
 27.5 68 27.5 68 26 72.5 c 128,-1,186
 24.5 77 24.5 77 21.5 77 c 0,187,188
 16.5 77 16.5 77 16 67.5 c 128,-1,189
 15.5 58 15.5 58 15.5 51 c 0,190,191
 15.5 47 15.5 47 16.5 41 c 128,-1,192
 17.5 35 17.5 35 20 29 c 128,-1,193
 22.5 23 22.5 23 26 18.5 c 128,-1,194
 29.5 14 29.5 14 34.5 14 c 0,195,196
 43.5 14 43.5 14 43.5 24 c 0,179,180
EndSplineSet
EndChar

StartChar: N
Encoding: 78 78 48
Width: 540
GlyphClass: 2
Flags: W
LayerCount: 2
Fore
SplineSet
260.5 576 m 4,0,1
 220.5 576 220.5 576 192 604 c 132,-1,2
 163.5 632 163.5 632 163.5 676 c 4,3,4
 163.5 700 163.5 700 172 721.5 c 132,-1,5
 180.5 743 180.5 743 195.5 758.5 c 132,-1,6
 210.5 774 210.5 774 231.5 783.5 c 132,-1,7
 252.5 793 252.5 793 277.5 793 c 4,8,9
 297.5 793 297.5 793 314.5 784.5 c 132,-1,10
 331.5 776 331.5 776 343.5 761 c 132,-1,11
 355.5 746 355.5 746 362 727 c 132,-1,12
 368.5 708 368.5 708 368.5 687 c 4,13,14
 368.5 660 368.5 660 360 639.5 c 132,-1,15
 351.5 619 351.5 619 336.5 605 c 132,-1,16
 321.5 591 321.5 591 302 583.5 c 132,-1,17
 282.5 576 282.5 576 260.5 576 c 4,0,1
223.5 749 m 4,18,19
 230.5 756 230.5 756 232 761 c 132,-1,20
 233.5 766 233.5 766 231.5 766 c 4,21,22
 223.5 766 223.5 766 214.5 758.5 c 132,-1,23
 205.5 751 205.5 751 198 740.5 c 132,-1,24
 190.5 730 190.5 730 185.5 718 c 132,-1,25
 180.5 706 180.5 706 180.5 696 c 4,26,27
 180.5 694 180.5 694 182 688 c 132,-1,28
 183.5 682 183.5 682 186.5 682 c 4,29,30
 190.5 682 190.5 682 196.5 704 c 4,31,32
 199.5 718 199.5 718 207.5 729.5 c 132,-1,33
 215.5 741 215.5 741 223.5 749 c 4,18,19
264.5 633 m 4,34,35
 276.5 633 276.5 633 293 647 c 132,-1,36
 309.5 661 309.5 661 309.5 687 c 4,37,38
 309.5 707 309.5 707 299 720.5 c 132,-1,39
 288.5 734 288.5 734 271.5 734 c 260,40,41
 254.5 734 254.5 734 240.5 720.5 c 132,-1,42
 226.5 707 226.5 707 226.5 683 c 260,43,44
 226.5 659 226.5 659 237.5 646 c 132,-1,45
 248.5 633 248.5 633 264.5 633 c 4,34,35
47.5 0 m 1,46,-1
 47.5 511 l 1,47,-1
 119.5 511 l 1,48,-1
 132.5 432 l 1,49,-1
 137.5 432 l 1,50,51
 154 463 154 463 179 482.5 c 128,-1,52
 204 502 204 502 238.5 511.5 c 0,53,54
 272 521 272 521 312.5 521 c 0,55,56
 394 521 394 521 443 475.5 c 0,57,58
 492.5 429.536132812 492.5 429.536132812 492.5 333 c 2,59,-1
 492.5 0 l 1,60,-1
 402.5 0 l 1,61,-1
 402.5 317 l 2,62,63
 401.984375 385.017578125 401.984375 385.017578125 375 416.5 c 128,-1,64
 348 448 348 448 286.5 448 c 0,65,66
 195 448 195 448 171 396 c 0,67,68
 137.5 318.848632812 137.5 318.848632812 137.5 250 c 2,69,-1
 137.5 0 l 1,70,-1
 47.5 0 l 1,46,-1
EndSplineSet
EndChar

StartChar: O
Encoding: 79 79 49
Width: 540
GlyphClass: 2
Flags: W
LayerCount: 2
Fore
SplineSet
143.5 341.5 m 0,0,1
 130.5 346 130.5 346 122 355 c 128,-1,2
 113.5 364 113.5 364 111 374 c 128,-1,3
 108.5 384 108.5 384 112 394.5 c 0,4,5
 116.5 406 116.5 406 125.5 411.5 c 0,6,7
 130.5 414 130.5 414 138 416.5 c 0,8,9
 145.5 418 145.5 418 159 420 c 128,-1,10
 172.5 422 172.5 422 192.5 422 c 0,11,12
 252.5 422 252.5 422 283.5 422.5 c 0,13,14
 355.5 422 355.5 422 380.5 421 c 128,-1,15
 405.5 420 405.5 420 418 414.5 c 0,16,17
 430.5 410 430.5 410 433.5 400.5 c 0,18,19
 436.5 392 436.5 392 436.5 376.5 c 0,20,21
 436.5 364 436.5 364 431 357 c 128,-1,22
 425.5 350 425.5 350 411.5 345 c 128,-1,23
 397.5 340 397.5 340 373.5 338.5 c 0,24,25
 349.5 336 349.5 336 283.5 336.5 c 0,26,27
 205.5 336 205.5 336 177 338 c 128,-1,28
 148.5 340 148.5 340 143.5 341.5 c 0,0,1
151.5 402.5 m 0,29,30
 151.5 404 151.5 404 149 406 c 0,31,32
 147.5 407 147.5 407 142.5 404.5 c 128,-1,33
 137.5 402 137.5 402 135 392.5 c 0,34,35
 132.5 384 132.5 384 132.5 376.5 c 256,36,37
 132.5 370 132.5 370 134.5 369.5 c 0,38,39
 137.5 370 137.5 370 142.5 382.5 c 0,40,41
 148.5 396 148.5 396 148.5 396.5 c 0,42,43
 151.5 399 151.5 399 151.5 402.5 c 0,29,30
141.5 180.5 m 0,44,45
 122.5 184 122.5 184 113 198 c 128,-1,46
 103.5 212 103.5 212 110.5 226.5 c 0,47,48
 115.5 236 115.5 236 123 240.5 c 0,49,50
 130.5 246 130.5 246 146 248 c 0,51,52
 169.5 251 169.5 251 186.5 251 c 0,53,54
 250.5 251 250.5 251 304 251.5 c 128,-1,55
 357.5 252 357.5 252 383 250 c 128,-1,56
 408.5 248 408.5 248 422.5 245 c 128,-1,57
 436.5 242 436.5 242 442 235 c 128,-1,58
 447.5 228 447.5 228 447.5 217.5 c 0,59,60
 447.5 204 447.5 204 441.5 195.5 c 0,61,62
 435.5 186 435.5 186 420 181.5 c 0,63,64
 404.5 176 404.5 176 378.5 174 c 0,65,66
 341.5 171 341.5 171 284.5 171.5 c 0,67,68
 206.5 172 206.5 172 178 175 c 128,-1,69
 149.5 178 149.5 178 141.5 180.5 c 0,44,45
144.5 229.5 m 0,70,71
 144.5 232 144.5 232 141.5 232.5 c 256,72,73
 138.5 232 138.5 232 137.5 231.5 c 0,74,75
 135.5 230 135.5 230 132.5 226 c 128,-1,76
 129.5 222 129.5 222 129.5 214.5 c 0,77,78
 129.5 206 129.5 206 131 204.5 c 0,79,80
 132.5 204 132.5 204 137.5 208.5 c 0,81,82
 141.5 212 141.5 212 143 218.5 c 0,83,84
 144.5 224 144.5 224 144.5 229.5 c 0,70,71
267.5 -10 m 0,85,86
 195.5 -10 195.5 -10 142 17.5 c 128,-1,87
 88.5 45 88.5 45 53.5 88.5 c 128,-1,88
 18.5 132 18.5 132 1 186 c 128,-1,89
 -16.5 240 -16.5 240 -16.5 294 c 0,90,91
 -16.5 360 -16.5 360 3.5 416 c 128,-1,92
 23.5 472 23.5 472 61 512.5 c 128,-1,93
 98.5 553 98.5 553 152.5 576 c 128,-1,94
 206.5 599 206.5 599 273.5 599 c 0,95,96
 335.5 599 335.5 599 387.5 576.5 c 128,-1,97
 439.5 554 439.5 554 477 514.5 c 128,-1,98
 514.5 475 514.5 475 535.5 420.5 c 128,-1,99
 556.5 366 556.5 366 556.5 303 c 0,100,101
 556.5 239 556.5 239 535 182 c 128,-1,102
 513.5 125 513.5 125 475 82.5 c 128,-1,103
 436.5 40 436.5 40 383.5 15 c 128,-1,104
 330.5 -10 330.5 -10 267.5 -10 c 0,85,86
269.5 67 m 0,105,106
 370.5 67 370.5 67 422 130.5 c 128,-1,107
 473.5 194 473.5 194 473.5 303 c 0,108,109
 473.5 347 473.5 347 460 387.5 c 128,-1,110
 446.5 428 446.5 428 420.5 459 c 128,-1,111
 394.5 490 394.5 490 357.5 508.5 c 128,-1,112
 320.5 527 320.5 527 273.5 527 c 0,113,114
 228.5 527 228.5 527 191 509 c 128,-1,115
 153.5 491 153.5 491 126.5 461 c 128,-1,116
 99.5 431 99.5 431 84.5 391 c 128,-1,117
 69.5 351 69.5 351 69.5 306 c 256,118,119
 69.5 261 69.5 261 83 218 c 128,-1,120
 96.5 175 96.5 175 122 141.5 c 128,-1,121
 147.5 108 147.5 108 184.5 87.5 c 128,-1,122
 221.5 67 221.5 67 269.5 67 c 0,105,106
EndSplineSet
EndChar

StartChar: P
Encoding: 80 80 50
Width: 540
GlyphClass: 2
Flags: W
LayerCount: 2
Fore
SplineSet
64.5 85 m 0,0,1
 64.5 103 64.5 103 80 118 c 128,-1,2
 95.5 133 95.5 133 123.5 144.5 c 128,-1,3
 151.5 156 151.5 156 189 162.5 c 128,-1,4
 226.5 169 226.5 169 269.5 169 c 0,5,6
 313.5 169 313.5 169 351 162.5 c 128,-1,7
 388.5 156 388.5 156 416 144.5 c 128,-1,8
 443.5 133 443.5 133 459.5 118 c 128,-1,9
 475.5 103 475.5 103 475.5 85 c 0,10,11
 475.5 68 475.5 68 459.5 53 c 128,-1,12
 443.5 38 443.5 38 416 27 c 128,-1,13
 388.5 16 388.5 16 351 9.5 c 128,-1,14
 313.5 3 313.5 3 269.5 3 c 0,15,16
 226.5 3 226.5 3 189 9.5 c 128,-1,17
 151.5 16 151.5 16 123.5 27 c 128,-1,18
 95.5 38 95.5 38 80 53 c 128,-1,19
 64.5 68 64.5 68 64.5 85 c 0,0,1
144.5 85 m 256,20,21
 144.5 74 144.5 74 154 64.5 c 128,-1,22
 163.5 55 163.5 55 180.5 48.5 c 128,-1,23
 197.5 42 197.5 42 220.5 38 c 128,-1,24
 243.5 34 243.5 34 269.5 34 c 0,25,26
 296.5 34 296.5 34 319 38 c 128,-1,27
 341.5 42 341.5 42 358.5 48.5 c 128,-1,28
 375.5 55 375.5 55 385 64.5 c 128,-1,29
 394.5 74 394.5 74 394.5 85 c 256,30,31
 394.5 96 394.5 96 385 105.5 c 128,-1,32
 375.5 115 375.5 115 358.5 122 c 128,-1,33
 341.5 129 341.5 129 319 133 c 128,-1,34
 296.5 137 296.5 137 269.5 137 c 0,35,36
 243.5 137 243.5 137 220.5 133 c 128,-1,37
 197.5 129 197.5 129 180.5 122 c 128,-1,38
 163.5 115 163.5 115 154 105.5 c 128,-1,39
 144.5 96 144.5 96 144.5 85 c 256,20,21
64.5 272 m 0,40,41
 64.5 290 64.5 290 80 305 c 128,-1,42
 95.5 320 95.5 320 123.5 331.5 c 128,-1,43
 151.5 343 151.5 343 189 349 c 128,-1,44
 226.5 355 226.5 355 269.5 355 c 0,45,46
 313.5 355 313.5 355 351 349 c 128,-1,47
 388.5 343 388.5 343 416 331.5 c 128,-1,48
 443.5 320 443.5 320 459.5 305 c 128,-1,49
 475.5 290 475.5 290 475.5 272 c 0,50,51
 475.5 255 475.5 255 459.5 240 c 128,-1,52
 443.5 225 443.5 225 416 214 c 128,-1,53
 388.5 203 388.5 203 351 196 c 128,-1,54
 313.5 189 313.5 189 269.5 189 c 0,55,56
 226.5 189 226.5 189 189 196 c 128,-1,57
 151.5 203 151.5 203 123.5 214 c 128,-1,58
 95.5 225 95.5 225 80 240 c 128,-1,59
 64.5 255 64.5 255 64.5 272 c 0,40,41
64.5 461 m 256,60,61
 64.5 478 64.5 478 80 493.5 c 128,-1,62
 95.5 509 95.5 509 123.5 520 c 128,-1,63
 151.5 531 151.5 531 189 537.5 c 128,-1,64
 226.5 544 226.5 544 269.5 544 c 0,65,66
 313.5 544 313.5 544 351 537.5 c 128,-1,67
 388.5 531 388.5 531 416 520 c 128,-1,68
 443.5 509 443.5 509 459.5 493.5 c 128,-1,69
 475.5 478 475.5 478 475.5 461 c 256,70,71
 475.5 444 475.5 444 459.5 429 c 128,-1,72
 443.5 414 443.5 414 416 402.5 c 128,-1,73
 388.5 391 388.5 391 351 384.5 c 128,-1,74
 313.5 378 313.5 378 269.5 378 c 0,75,76
 226.5 378 226.5 378 189 384.5 c 128,-1,77
 151.5 391 151.5 391 123.5 402.5 c 128,-1,78
 95.5 414 95.5 414 80 429 c 128,-1,79
 64.5 444 64.5 444 64.5 461 c 256,60,61
64.5 648 m 256,80,81
 64.5 665 64.5 665 80 680.5 c 128,-1,82
 95.5 696 95.5 696 123.5 707 c 128,-1,83
 151.5 718 151.5 718 189 724.5 c 128,-1,84
 226.5 731 226.5 731 269.5 731 c 0,85,86
 313.5 731 313.5 731 351 724.5 c 128,-1,87
 388.5 718 388.5 718 416 707 c 128,-1,88
 443.5 696 443.5 696 459.5 680.5 c 128,-1,89
 475.5 665 475.5 665 475.5 648 c 256,90,91
 475.5 631 475.5 631 459.5 616 c 128,-1,92
 443.5 601 443.5 601 416 589.5 c 128,-1,93
 388.5 578 388.5 578 351 571.5 c 128,-1,94
 313.5 565 313.5 565 269.5 565 c 0,95,96
 226.5 565 226.5 565 189 571.5 c 128,-1,97
 151.5 578 151.5 578 123.5 589.5 c 128,-1,98
 95.5 601 95.5 601 80 616 c 128,-1,99
 64.5 631 64.5 631 64.5 648 c 256,80,81
EndSplineSet
EndChar

StartChar: Q
Encoding: 81 81 51
Width: 540
GlyphClass: 2
Flags: W
LayerCount: 2
Fore
SplineSet
64.5 85 m 0,0,1
 64.5 103 64.5 103 80 118 c 128,-1,2
 95.5 133 95.5 133 123.5 144.5 c 128,-1,3
 151.5 156 151.5 156 189 162.5 c 128,-1,4
 226.5 169 226.5 169 269.5 169 c 0,5,6
 313.5 169 313.5 169 351 162.5 c 128,-1,7
 388.5 156 388.5 156 416 144.5 c 128,-1,8
 443.5 133 443.5 133 459.5 118 c 128,-1,9
 475.5 103 475.5 103 475.5 85 c 0,10,11
 475.5 68 475.5 68 459.5 53 c 128,-1,12
 443.5 38 443.5 38 416 27 c 128,-1,13
 388.5 16 388.5 16 351 9.5 c 128,-1,14
 313.5 3 313.5 3 269.5 3 c 0,15,16
 226.5 3 226.5 3 189 9.5 c 128,-1,17
 151.5 16 151.5 16 123.5 27 c 128,-1,18
 95.5 38 95.5 38 80 53 c 128,-1,19
 64.5 68 64.5 68 64.5 85 c 0,0,1
144.5 85 m 256,20,21
 144.5 74 144.5 74 154 64.5 c 128,-1,22
 163.5 55 163.5 55 180.5 48.5 c 128,-1,23
 197.5 42 197.5 42 220.5 38 c 128,-1,24
 243.5 34 243.5 34 269.5 34 c 0,25,26
 296.5 34 296.5 34 319 38 c 128,-1,27
 341.5 42 341.5 42 358.5 48.5 c 128,-1,28
 375.5 55 375.5 55 385 64.5 c 128,-1,29
 394.5 74 394.5 74 394.5 85 c 256,30,31
 394.5 96 394.5 96 385 105.5 c 128,-1,32
 375.5 115 375.5 115 358.5 122 c 128,-1,33
 341.5 129 341.5 129 319 133 c 128,-1,34
 296.5 137 296.5 137 269.5 137 c 0,35,36
 243.5 137 243.5 137 220.5 133 c 128,-1,37
 197.5 129 197.5 129 180.5 122 c 128,-1,38
 163.5 115 163.5 115 154 105.5 c 128,-1,39
 144.5 96 144.5 96 144.5 85 c 256,20,21
64.5 272 m 0,40,41
 64.5 290 64.5 290 80 305 c 128,-1,42
 95.5 320 95.5 320 123.5 331.5 c 128,-1,43
 151.5 343 151.5 343 189 349 c 128,-1,44
 226.5 355 226.5 355 269.5 355 c 0,45,46
 313.5 355 313.5 355 351 349 c 128,-1,47
 388.5 343 388.5 343 416 331.5 c 128,-1,48
 443.5 320 443.5 320 459.5 305 c 128,-1,49
 475.5 290 475.5 290 475.5 272 c 0,50,51
 475.5 255 475.5 255 459.5 240 c 128,-1,52
 443.5 225 443.5 225 416 214 c 128,-1,53
 388.5 203 388.5 203 351 196 c 128,-1,54
 313.5 189 313.5 189 269.5 189 c 0,55,56
 226.5 189 226.5 189 189 196 c 128,-1,57
 151.5 203 151.5 203 123.5 214 c 128,-1,58
 95.5 225 95.5 225 80 240 c 128,-1,59
 64.5 255 64.5 255 64.5 272 c 0,40,41
144.5 272 m 256,60,61
 144.5 261 144.5 261 154 251.5 c 128,-1,62
 163.5 242 163.5 242 180.5 235 c 128,-1,63
 197.5 228 197.5 228 220.5 224 c 128,-1,64
 243.5 220 243.5 220 269.5 220 c 0,65,66
 296.5 220 296.5 220 319 224 c 128,-1,67
 341.5 228 341.5 228 358.5 235 c 128,-1,68
 375.5 242 375.5 242 385 251.5 c 128,-1,69
 394.5 261 394.5 261 394.5 272 c 256,70,71
 394.5 283 394.5 283 385 292.5 c 128,-1,72
 375.5 302 375.5 302 358.5 309 c 128,-1,73
 341.5 316 341.5 316 319 320 c 128,-1,74
 296.5 324 296.5 324 269.5 324 c 0,75,76
 243.5 324 243.5 324 220.5 320 c 128,-1,77
 197.5 316 197.5 316 180.5 309 c 128,-1,78
 163.5 302 163.5 302 154 292.5 c 128,-1,79
 144.5 283 144.5 283 144.5 272 c 256,60,61
64.5 461 m 256,80,81
 64.5 478 64.5 478 80 493.5 c 128,-1,82
 95.5 509 95.5 509 123.5 520 c 128,-1,83
 151.5 531 151.5 531 189 537.5 c 128,-1,84
 226.5 544 226.5 544 269.5 544 c 0,85,86
 313.5 544 313.5 544 351 537.5 c 128,-1,87
 388.5 531 388.5 531 416 520 c 128,-1,88
 443.5 509 443.5 509 459.5 493.5 c 128,-1,89
 475.5 478 475.5 478 475.5 461 c 256,90,91
 475.5 444 475.5 444 459.5 429 c 128,-1,92
 443.5 414 443.5 414 416 402.5 c 128,-1,93
 388.5 391 388.5 391 351 384.5 c 128,-1,94
 313.5 378 313.5 378 269.5 378 c 0,95,96
 226.5 378 226.5 378 189 384.5 c 128,-1,97
 151.5 391 151.5 391 123.5 402.5 c 128,-1,98
 95.5 414 95.5 414 80 429 c 128,-1,99
 64.5 444 64.5 444 64.5 461 c 256,80,81
64.5 648 m 256,100,101
 64.5 665 64.5 665 80 680.5 c 128,-1,102
 95.5 696 95.5 696 123.5 707 c 128,-1,103
 151.5 718 151.5 718 189 724.5 c 128,-1,104
 226.5 731 226.5 731 269.5 731 c 0,105,106
 313.5 731 313.5 731 351 724.5 c 128,-1,107
 388.5 718 388.5 718 416 707 c 128,-1,108
 443.5 696 443.5 696 459.5 680.5 c 128,-1,109
 475.5 665 475.5 665 475.5 648 c 256,110,111
 475.5 631 475.5 631 459.5 616 c 128,-1,112
 443.5 601 443.5 601 416 589.5 c 128,-1,113
 388.5 578 388.5 578 351 571.5 c 128,-1,114
 313.5 565 313.5 565 269.5 565 c 0,115,116
 226.5 565 226.5 565 189 571.5 c 128,-1,117
 151.5 578 151.5 578 123.5 589.5 c 128,-1,118
 95.5 601 95.5 601 80 616 c 128,-1,119
 64.5 631 64.5 631 64.5 648 c 256,100,101
EndSplineSet
EndChar

StartChar: R
Encoding: 82 82 52
Width: 540
GlyphClass: 2
Flags: W
LayerCount: 2
Fore
SplineSet
286.5 576 m 4,0,1
 246.5 576 246.5 576 218 604 c 132,-1,2
 189.5 632 189.5 632 189.5 676 c 4,3,4
 189.5 700 189.5 700 198 721.5 c 132,-1,5
 206.5 743 206.5 743 221.5 758.5 c 132,-1,6
 236.5 774 236.5 774 257.5 783.5 c 132,-1,7
 278.5 793 278.5 793 303.5 793 c 4,8,9
 323.5 793 323.5 793 340.5 784.5 c 132,-1,10
 357.5 776 357.5 776 369.5 761 c 132,-1,11
 381.5 746 381.5 746 388 727 c 132,-1,12
 394.5 708 394.5 708 394.5 687 c 4,13,14
 394.5 660 394.5 660 386 639.5 c 132,-1,15
 377.5 619 377.5 619 362.5 605 c 132,-1,16
 347.5 591 347.5 591 328 583.5 c 132,-1,17
 308.5 576 308.5 576 286.5 576 c 4,0,1
249.5 749 m 4,18,19
 256.5 756 256.5 756 258 761 c 132,-1,20
 259.5 766 259.5 766 257.5 766 c 4,21,22
 249.5 766 249.5 766 240.5 758.5 c 132,-1,23
 231.5 751 231.5 751 224 740.5 c 132,-1,24
 216.5 730 216.5 730 211.5 718 c 132,-1,25
 206.5 706 206.5 706 206.5 696 c 4,26,27
 206.5 694 206.5 694 208 688 c 132,-1,28
 209.5 682 209.5 682 212.5 682 c 4,29,30
 216.5 682 216.5 682 222.5 704 c 4,31,32
 225.5 718 225.5 718 233.5 729.5 c 132,-1,33
 241.5 741 241.5 741 249.5 749 c 4,18,19
290.5 633 m 4,34,35
 302.5 633 302.5 633 319 647 c 132,-1,36
 335.5 661 335.5 661 335.5 687 c 4,37,38
 335.5 707 335.5 707 325 720.5 c 132,-1,39
 314.5 734 314.5 734 297.5 734 c 260,40,41
 280.5 734 280.5 734 266.5 720.5 c 132,-1,42
 252.5 707 252.5 707 252.5 683 c 260,43,44
 252.5 659 252.5 659 263.5 646 c 132,-1,45
 274.5 633 274.5 633 290.5 633 c 4,34,35
15 0 m 1,46,-1
 15 60 l 1,47,-1
 178 75 l 1,48,-1
 178 461 l 1,49,-1
 31 474 l 1,50,-1
 31 536 l 1,51,-1
 250 536 l 1,52,-1
 262 438 l 1,53,-1
 266 438 l 1,54,55
 294 491 294 491 327.5 518.5 c 128,-1,56
 361 546 361 546 416 546 c 0,57,58
 450 546 450 546 476.5 540 c 128,-1,59
 503 534 503 534 525 524 c 1,60,-1
 501 445 l 1,61,62
 485 454 485 454 463 460.5 c 128,-1,63
 441 467 441 467 416 467 c 0,64,65
 373 467 373 467 340 440 c 128,-1,66
 307 413 307 413 288 368 c 128,-1,67
 269 323 269 323 269 269 c 2,68,-1
 269 75 l 1,69,-1
 425 60 l 1,70,-1
 425 0 l 1,71,-1
 15 0 l 1,46,-1
EndSplineSet
EndChar

StartChar: S
Encoding: 83 83 53
Width: 540
GlyphClass: 2
Flags: W
LayerCount: 2
Fore
SplineSet
292.5 582 m 4,0,1
 252.5 582 252.5 582 224 610 c 132,-1,2
 195.5 638 195.5 638 195.5 682 c 4,3,4
 195.5 706 195.5 706 204 727.5 c 132,-1,5
 212.5 749 212.5 749 227.5 764.5 c 132,-1,6
 242.5 780 242.5 780 263.5 789.5 c 132,-1,7
 284.5 799 284.5 799 309.5 799 c 4,8,9
 329.5 799 329.5 799 346.5 790.5 c 132,-1,10
 363.5 782 363.5 782 375.5 767 c 132,-1,11
 387.5 752 387.5 752 394 733 c 132,-1,12
 400.5 714 400.5 714 400.5 693 c 4,13,14
 400.5 666 400.5 666 392 645.5 c 132,-1,15
 383.5 625 383.5 625 368.5 611 c 132,-1,16
 353.5 597 353.5 597 334 589.5 c 132,-1,17
 314.5 582 314.5 582 292.5 582 c 4,0,1
255.5 755 m 4,18,19
 262.5 762 262.5 762 264 767 c 132,-1,20
 265.5 772 265.5 772 263.5 772 c 4,21,22
 255.5 772 255.5 772 246.5 764.5 c 132,-1,23
 237.5 757 237.5 757 230 746.5 c 132,-1,24
 222.5 736 222.5 736 217.5 724 c 132,-1,25
 212.5 712 212.5 712 212.5 702 c 4,26,27
 212.5 700 212.5 700 214 694 c 132,-1,28
 215.5 688 215.5 688 218.5 688 c 4,29,30
 222.5 688 222.5 688 228.5 710 c 4,31,32
 231.5 724 231.5 724 239.5 735.5 c 132,-1,33
 247.5 747 247.5 747 255.5 755 c 4,18,19
296.5 639 m 4,34,35
 308.5 639 308.5 639 325 653 c 132,-1,36
 341.5 667 341.5 667 341.5 693 c 4,37,38
 341.5 713 341.5 713 331 726.5 c 132,-1,39
 320.5 740 320.5 740 303.5 740 c 260,40,41
 286.5 740 286.5 740 272.5 726.5 c 132,-1,42
 258.5 713 258.5 713 258.5 689 c 260,43,44
 258.5 665 258.5 665 269.5 652 c 132,-1,45
 280.5 639 280.5 639 296.5 639 c 4,34,35
249 -10 m 0,46,47
 199 -10 199 -10 153.5 -1 c 128,-1,48
 108 8 108 8 75 24 c 1,49,-1
 75 107 l 1,50,51
 110 91 110 91 152.5 77.5 c 128,-1,52
 195 64 195 64 254 64 c 0,53,54
 320 64 320 64 347.5 84.5 c 128,-1,55
 375 105 375 105 375 144 c 0,56,57
 375 165 375 165 365.5 178.5 c 128,-1,58
 356 192 356 192 329 206 c 128,-1,59
 302 220 302 220 250 242 c 0,60,61
 198 265 198 265 161 285 c 128,-1,62
 124 305 124 305 104 332.5 c 128,-1,63
 84 360 84 360 84 403 c 0,64,65
 84 451 84 451 108.5 482.5 c 128,-1,66
 133 514 133 514 179.5 530 c 128,-1,67
 226 546 226 546 290 546 c 0,68,69
 334 546 334 546 374 538 c 128,-1,70
 414 530 414 530 457 512 c 1,71,-1
 430 442 l 1,72,73
 390 459 390 459 356.5 465 c 128,-1,74
 323 471 323 471 290 471 c 0,75,76
 228 471 228 471 199.5 455 c 128,-1,77
 171 439 171 439 171 405 c 0,78,79
 171 383 171 383 183.5 368 c 128,-1,80
 196 353 196 353 224.5 339 c 128,-1,81
 253 325 253 325 300 305 c 0,82,83
 353 283 353 283 390 264 c 128,-1,84
 427 245 427 245 446 218.5 c 128,-1,85
 465 192 465 192 465 146 c 0,86,87
 465 95 465 95 440.5 60.5 c 128,-1,88
 416 26 416 26 368 8 c 128,-1,89
 320 -10 320 -10 249 -10 c 0,46,47
EndSplineSet
EndChar

StartChar: T
Encoding: 84 84 54
Width: 540
GlyphClass: 2
Flags: W
LayerCount: 2
Fore
SplineSet
261.5 0 m 0,0,1
 253.5 0 253.5 0 244.5 3 c 128,-1,2
 235.5 6 235.5 6 227.5 11 c 128,-1,3
 219.5 16 219.5 16 214 23.5 c 128,-1,4
 208.5 31 208.5 31 208.5 40 c 2,5,-1
 208.5 525 l 1,6,7
 196.5 525 196.5 525 156.5 525 c 128,-1,8
 116.5 525 116.5 525 100 529 c 128,-1,9
 83.5 533 83.5 533 72 542.5 c 128,-1,10
 60.5 552 60.5 552 60.5 570 c 0,11,12
 60.5 592 60.5 592 74.5 604 c 128,-1,13
 88.5 616 88.5 616 109.5 616 c 2,14,-1
 446.5 616 l 2,15,16
 462.5 616 462.5 616 471 602 c 128,-1,17
 479.5 588 479.5 588 479.5 574 c 0,18,19
 479.5 556 479.5 556 471 546.5 c 128,-1,20
 462.5 537 462.5 537 449.5 532 c 128,-1,21
 436.5 527 436.5 527 389.5 526 c 128,-1,22
 342.5 525 342.5 525 329.5 525 c 2,23,-1
 321.5 525 l 1,24,-1
 321.5 47 l 2,25,26
 321.5 24 321.5 24 301.5 12 c 128,-1,27
 281.5 0 281.5 0 261.5 0 c 0,0,1
83.5 553 m 256,28,29
 88.5 553 88.5 553 88.5 560 c 0,30,31
 88.5 568 88.5 568 91.5 578.5 c 128,-1,32
 94.5 589 94.5 589 100.5 598 c 0,33,34
 103.5 603 103.5 603 95.5 603 c 0,35,36
 86.5 603 86.5 603 80.5 591.5 c 128,-1,37
 74.5 580 74.5 580 74.5 569 c 0,38,39
 74.5 565 74.5 565 76.5 559 c 128,-1,40
 78.5 553 78.5 553 83.5 553 c 256,28,29
242.5 23 m 0,41,42
 251.5 23 251.5 23 251.5 32 c 0,43,44
 251.5 36 251.5 36 247.5 37 c 0,45,46
 241.5 39 241.5 39 239 49.5 c 128,-1,47
 236.5 60 236.5 60 236.5 65 c 0,48,49
 236.5 67 236.5 67 237 73 c 128,-1,50
 237.5 79 237.5 79 237.5 85 c 128,-1,51
 237.5 91 237.5 91 236.5 95.5 c 128,-1,52
 235.5 100 235.5 100 231.5 100 c 256,53,54
 227.5 100 227.5 100 225.5 96 c 128,-1,55
 223.5 92 223.5 92 222.5 86.5 c 128,-1,56
 221.5 81 221.5 81 221 75.5 c 128,-1,57
 220.5 70 220.5 70 220.5 68 c 0,58,59
 220.5 64 220.5 64 221.5 56 c 128,-1,60
 222.5 48 222.5 48 225 41 c 128,-1,61
 227.5 34 227.5 34 232 28.5 c 128,-1,62
 236.5 23 236.5 23 242.5 23 c 0,41,42
EndSplineSet
EndChar

StartChar: U
Encoding: 85 85 55
Width: 540
GlyphClass: 2
Flags: W
LayerCount: 2
Fore
SplineSet
267.5 -4 m 0,0,1
 222.5 -4 222.5 -4 186 12.5 c 128,-1,2
 149.5 29 149.5 29 124.5 58.5 c 128,-1,3
 99.5 88 99.5 88 86 129.5 c 128,-1,4
 72.5 171 72.5 171 72.5 221 c 2,5,-1
 72.5 530 l 2,6,7
 72.5 540 72.5 540 74.5 555 c 128,-1,8
 76.5 570 76.5 570 82.5 583.5 c 128,-1,9
 88.5 597 88.5 597 99 606.5 c 128,-1,10
 109.5 616 109.5 616 125.5 616 c 0,11,12
 158.5 616 158.5 616 172.5 599 c 128,-1,13
 186.5 582 186.5 582 186.5 528 c 2,14,-1
 186.5 228 l 2,15,16
 186.5 204 186.5 204 186.5 179.5 c 128,-1,17
 186.5 155 186.5 155 194 135.5 c 128,-1,18
 201.5 116 201.5 116 219 103.5 c 128,-1,19
 236.5 91 236.5 91 271.5 91 c 0,20,21
 304.5 91 304.5 91 321.5 110 c 128,-1,22
 338.5 129 338.5 129 346 157.5 c 128,-1,23
 353.5 186 353.5 186 354 220 c 128,-1,24
 354.5 254 354.5 254 354.5 284 c 2,25,-1
 354.5 531 l 2,26,27
 354.5 541 354.5 541 356.5 556 c 128,-1,28
 358.5 571 358.5 571 364 584.5 c 128,-1,29
 369.5 598 369.5 598 379 608 c 128,-1,30
 388.5 618 388.5 618 404.5 618 c 0,31,32
 435.5 618 435.5 618 451.5 597.5 c 128,-1,33
 467.5 577 467.5 577 467.5 532 c 2,34,-1
 467.5 246 l 2,35,36
 467.5 189 467.5 189 455 143 c 128,-1,37
 442.5 97 442.5 97 417 64.5 c 128,-1,38
 391.5 32 391.5 32 354.5 14 c 128,-1,39
 317.5 -4 317.5 -4 267.5 -4 c 0,0,1
382.5 556 m 0,40,41
 382.5 560 382.5 560 385.5 568 c 128,-1,42
 388.5 576 388.5 576 395.5 584 c 0,43,44
 403.5 595 403.5 595 404 599 c 128,-1,45
 404.5 603 404.5 603 395.5 603 c 0,46,47
 390.5 603 390.5 603 386 598 c 128,-1,48
 381.5 593 381.5 593 378.5 588 c 0,49,50
 376.5 583 376.5 583 373 575 c 128,-1,51
 369.5 567 369.5 567 368.5 558 c 0,52,53
 368.5 553 368.5 553 369.5 548.5 c 128,-1,54
 370.5 544 370.5 544 375.5 544 c 256,55,56
 380.5 544 380.5 544 381.5 547.5 c 128,-1,57
 382.5 551 382.5 551 382.5 556 c 0,40,41
114.5 570 m 0,58,59
 118.5 579 118.5 579 124 585 c 128,-1,60
 129.5 591 129.5 591 129.5 598 c 0,61,62
 129.5 603 129.5 603 126.5 603 c 256,63,64
 123.5 603 123.5 603 117.5 600.5 c 128,-1,65
 111.5 598 111.5 598 106.5 590 c 0,66,67
 91.5 569 91.5 569 89.5 552 c 128,-1,68
 87.5 535 87.5 535 93.5 535 c 0,69,70
 98.5 535 98.5 535 104 545.5 c 128,-1,71
 109.5 556 109.5 556 114.5 570 c 0,58,59
183.5 48 m 0,72,73
 183.5 51 183.5 51 176 57 c 128,-1,74
 168.5 63 168.5 63 160.5 72 c 0,75,76
 152.5 80 152.5 80 142 93.5 c 128,-1,77
 131.5 107 131.5 107 124.5 122 c 0,78,79
 119.5 132 119.5 132 115 136 c 128,-1,80
 110.5 140 110.5 140 108.5 140 c 0,81,82
 104.5 140 104.5 140 104.5 133 c 0,83,84
 104.5 125 104.5 125 112.5 109.5 c 128,-1,85
 120.5 94 120.5 94 131.5 79 c 128,-1,86
 142.5 64 142.5 64 155 53 c 128,-1,87
 167.5 42 167.5 42 177.5 42 c 0,88,89
 183.5 42 183.5 42 183.5 48 c 0,72,73
206.5 39 m 0,90,91
 206.5 40 206.5 40 204 43 c 128,-1,92
 201.5 46 201.5 46 198.5 46 c 0,93,94
 193.5 45 193.5 45 191.5 42 c 128,-1,95
 189.5 39 189.5 39 189.5 37 c 0,96,97
 190.5 34 190.5 34 191.5 31.5 c 128,-1,98
 192.5 29 192.5 29 197.5 30 c 0,99,100
 206.5 30 206.5 30 206.5 39 c 0,90,91
EndSplineSet
EndChar

StartChar: V
Encoding: 86 86 56
Width: 540
GlyphClass: 2
Flags: W
LayerCount: 2
Fore
SplineSet
308.5 103 m 1,0,-1
 237.5 103 l 1,1,-1
 237.5 783 l 1,2,-1
 308.5 783 l 1,3,-1
 308.5 103 l 1,0,-1
225.5 0 m 1,4,-1
 -0.5 545 l 1,5,-1
 -0.5 599 l 1,6,-1
 540.5 599 l 1,7,-1
 540.5 544 l 1,8,-1
 315.5 0 l 1,9,-1
 225.5 0 l 1,4,-1
271.5 98 m 1,10,-1
 444.5 520 l 1,11,-1
 98.5 520 l 1,12,-1
 271.5 98 l 1,10,-1
EndSplineSet
EndChar

StartChar: W
Encoding: 87 87 57
Width: 540
GlyphClass: 2
Flags: W
LayerCount: 2
Fore
SplineSet
64.5 85 m 0,0,1
 64.5 103 64.5 103 80 118 c 128,-1,2
 95.5 133 95.5 133 123.5 144.5 c 128,-1,3
 151.5 156 151.5 156 189 162.5 c 128,-1,4
 226.5 169 226.5 169 269.5 169 c 0,5,6
 313.5 169 313.5 169 351 162.5 c 128,-1,7
 388.5 156 388.5 156 416 144.5 c 128,-1,8
 443.5 133 443.5 133 459.5 118 c 128,-1,9
 475.5 103 475.5 103 475.5 85 c 0,10,11
 475.5 68 475.5 68 459.5 53 c 128,-1,12
 443.5 38 443.5 38 416 27 c 128,-1,13
 388.5 16 388.5 16 351 9.5 c 128,-1,14
 313.5 3 313.5 3 269.5 3 c 0,15,16
 226.5 3 226.5 3 189 9.5 c 128,-1,17
 151.5 16 151.5 16 123.5 27 c 128,-1,18
 95.5 38 95.5 38 80 53 c 128,-1,19
 64.5 68 64.5 68 64.5 85 c 0,0,1
64.5 272 m 0,20,21
 64.5 290 64.5 290 80 305 c 128,-1,22
 95.5 320 95.5 320 123.5 331.5 c 128,-1,23
 151.5 343 151.5 343 189 349 c 128,-1,24
 226.5 355 226.5 355 269.5 355 c 0,25,26
 313.5 355 313.5 355 351 349 c 128,-1,27
 388.5 343 388.5 343 416 331.5 c 128,-1,28
 443.5 320 443.5 320 459.5 305 c 128,-1,29
 475.5 290 475.5 290 475.5 272 c 0,30,31
 475.5 255 475.5 255 459.5 240 c 128,-1,32
 443.5 225 443.5 225 416 214 c 128,-1,33
 388.5 203 388.5 203 351 196 c 128,-1,34
 313.5 189 313.5 189 269.5 189 c 0,35,36
 226.5 189 226.5 189 189 196 c 128,-1,37
 151.5 203 151.5 203 123.5 214 c 128,-1,38
 95.5 225 95.5 225 80 240 c 128,-1,39
 64.5 255 64.5 255 64.5 272 c 0,20,21
144.5 272 m 256,40,41
 144.5 261 144.5 261 154 251.5 c 128,-1,42
 163.5 242 163.5 242 180.5 235 c 128,-1,43
 197.5 228 197.5 228 220.5 224 c 128,-1,44
 243.5 220 243.5 220 269.5 220 c 0,45,46
 296.5 220 296.5 220 319 224 c 128,-1,47
 341.5 228 341.5 228 358.5 235 c 128,-1,48
 375.5 242 375.5 242 385 251.5 c 128,-1,49
 394.5 261 394.5 261 394.5 272 c 256,50,51
 394.5 283 394.5 283 385 292.5 c 128,-1,52
 375.5 302 375.5 302 358.5 309 c 128,-1,53
 341.5 316 341.5 316 319 320 c 128,-1,54
 296.5 324 296.5 324 269.5 324 c 0,55,56
 243.5 324 243.5 324 220.5 320 c 128,-1,57
 197.5 316 197.5 316 180.5 309 c 128,-1,58
 163.5 302 163.5 302 154 292.5 c 128,-1,59
 144.5 283 144.5 283 144.5 272 c 256,40,41
64.5 461 m 256,60,61
 64.5 478 64.5 478 80 493.5 c 128,-1,62
 95.5 509 95.5 509 123.5 520 c 128,-1,63
 151.5 531 151.5 531 189 537.5 c 128,-1,64
 226.5 544 226.5 544 269.5 544 c 0,65,66
 313.5 544 313.5 544 351 537.5 c 128,-1,67
 388.5 531 388.5 531 416 520 c 128,-1,68
 443.5 509 443.5 509 459.5 493.5 c 128,-1,69
 475.5 478 475.5 478 475.5 461 c 256,70,71
 475.5 444 475.5 444 459.5 429 c 128,-1,72
 443.5 414 443.5 414 416 402.5 c 128,-1,73
 388.5 391 388.5 391 351 384.5 c 128,-1,74
 313.5 378 313.5 378 269.5 378 c 0,75,76
 226.5 378 226.5 378 189 384.5 c 128,-1,77
 151.5 391 151.5 391 123.5 402.5 c 128,-1,78
 95.5 414 95.5 414 80 429 c 128,-1,79
 64.5 444 64.5 444 64.5 461 c 256,60,61
64.5 648 m 256,80,81
 64.5 665 64.5 665 80 680.5 c 128,-1,82
 95.5 696 95.5 696 123.5 707 c 128,-1,83
 151.5 718 151.5 718 189 724.5 c 128,-1,84
 226.5 731 226.5 731 269.5 731 c 0,85,86
 313.5 731 313.5 731 351 724.5 c 128,-1,87
 388.5 718 388.5 718 416 707 c 128,-1,88
 443.5 696 443.5 696 459.5 680.5 c 128,-1,89
 475.5 665 475.5 665 475.5 648 c 256,90,91
 475.5 631 475.5 631 459.5 616 c 128,-1,92
 443.5 601 443.5 601 416 589.5 c 128,-1,93
 388.5 578 388.5 578 351 571.5 c 128,-1,94
 313.5 565 313.5 565 269.5 565 c 0,95,96
 226.5 565 226.5 565 189 571.5 c 128,-1,97
 151.5 578 151.5 578 123.5 589.5 c 128,-1,98
 95.5 601 95.5 601 80 616 c 128,-1,99
 64.5 631 64.5 631 64.5 648 c 256,80,81
EndSplineSet
EndChar

StartChar: X
Encoding: 88 88 58
Width: 540
GlyphClass: 2
Flags: W
LayerCount: 2
Fore
SplineSet
356.534179688 174.834960938 m 0,0,1
 366.138671875 166.602539062 366.138671875 166.602539062 379.790039062 152.40234375 c 128,-1,2
 393.44140625 138.202148438 393.44140625 138.202148438 406.081054688 125.494140625 c 128,-1,3
 418.720703125 112.786132812 418.720703125 112.786132812 428.975585938 104.829101562 c 128,-1,4
 439.231445312 96.87109375 439.231445312 96.87109375 442.043945312 101.124023438 c 0,5,6
 443.725585938 102.598632812 443.725585938 102.598632812 445.611328125 107.229492188 c 128,-1,7
 447.498046875 111.860351562 447.498046875 111.860351562 444 116.524414062 c 0,8,9
 441.049804688 119.885742188 441.049804688 119.885742188 431 131 c 128,-1,10
 420.950195312 142.112304688 420.950195312 142.112304688 409.047851562 153.98046875 c 128,-1,11
 397.146484375 165.84765625 397.146484375 165.84765625 385.604492188 175.94921875 c 128,-1,12
 374.061523438 186.05078125 374.061523438 186.05078125 368.505859375 188.313476562 c 0,13,14
 362.0234375 190.955078125 362.0234375 190.955078125 357.340820312 184.764648438 c 128,-1,15
 352.659179688 178.573242188 352.659179688 178.573242188 356.534179688 174.834960938 c 0,0,1
99.453125 485.340820312 m 0,16,17
 109.057617188 477.108398438 109.057617188 477.108398438 122.708984375 462.908203125 c 128,-1,18
 136.360351562 448.708007812 136.360351562 448.708007812 149 436 c 128,-1,19
 161.639648438 423.291992188 161.639648438 423.291992188 171.89453125 415.334960938 c 128,-1,20
 182.150390625 407.376953125 182.150390625 407.376953125 184.962890625 411.629882812 c 0,21,22
 186.64453125 413.104492188 186.64453125 413.104492188 188.530273438 417.735351562 c 128,-1,23
 190.416992188 422.366210938 190.416992188 422.366210938 186.918945312 427.030273438 c 0,24,25
 183.96875 430.391601562 183.96875 430.391601562 173.918945312 441.505859375 c 128,-1,26
 163.869140625 452.618164062 163.869140625 452.618164062 151.966796875 464.486328125 c 128,-1,27
 140.065429688 476.353515625 140.065429688 476.353515625 128.5234375 486.455078125 c 128,-1,28
 116.98046875 496.556640625 116.98046875 496.556640625 111.424804688 498.819335938 c 0,29,30
 104.942382812 501.4609375 104.942382812 501.4609375 100.259765625 495.270507812 c 128,-1,31
 95.578125 489.079101562 95.578125 489.079101562 99.453125 485.340820312 c 0,16,17
362.004882812 411.383789062 m 0,32,33
 370.94921875 420.328125 370.94921875 420.328125 386.154296875 432.850585938 c 128,-1,34
 401.360351562 445.372070312 401.360351562 445.372070312 415 457 c 128,-1,35
 428.639648438 468.627929688 428.639648438 468.627929688 437.360351562 478.2421875 c 128,-1,36
 446.081054688 487.857421875 446.081054688 487.857421875 442.056640625 490.98828125 c 0,37,38
 440.71484375 492.77734375 440.71484375 492.77734375 436.2421875 495.012695312 c 128,-1,39
 431.770507812 497.249023438 431.770507812 497.249023438 426.8515625 494.119140625 c 0,40,41
 423.2734375 491.435546875 423.2734375 491.435546875 411.421875 482.267578125 c 128,-1,42
 399.571289062 473.099609375 399.571289062 473.099609375 386.825195312 462.142578125 c 128,-1,43
 374.080078125 451.186523438 374.080078125 451.186523438 363.123046875 440.453125 c 128,-1,44
 352.166015625 429.719726562 352.166015625 429.719726562 349.483398438 424.353515625 c 0,45,46
 346.352539062 418.092773438 346.352539062 418.092773438 352.166015625 412.94921875 c 128,-1,47
 357.98046875 407.806640625 357.98046875 407.806640625 362.004882812 411.383789062 c 0,32,33
88.0048828125 123.383789062 m 0,48,49
 96.94921875 132.328125 96.94921875 132.328125 112.154296875 144.850585938 c 128,-1,50
 127.360351562 157.372070312 127.360351562 157.372070312 141 169 c 128,-1,51
 154.639648438 180.627929688 154.639648438 180.627929688 163.360351562 190.2421875 c 128,-1,52
 172.081054688 199.857421875 172.081054688 199.857421875 168.056640625 202.98828125 c 0,53,54
 166.71484375 204.77734375 166.71484375 204.77734375 162.2421875 207.012695312 c 128,-1,55
 157.770507812 209.249023438 157.770507812 209.249023438 152.8515625 206.119140625 c 0,56,57
 149.2734375 203.435546875 149.2734375 203.435546875 137.421875 194.267578125 c 128,-1,58
 125.571289062 185.099609375 125.571289062 185.099609375 112.825195312 174.142578125 c 128,-1,59
 100.080078125 163.186523438 100.080078125 163.186523438 89.123046875 152.453125 c 128,-1,60
 78.166015625 141.719726562 78.166015625 141.719726562 75.4833984375 136.353515625 c 0,61,62
 72.3525390625 130.092773438 72.3525390625 130.092773438 78.166015625 124.94921875 c 128,-1,63
 83.98046875 119.806640625 83.98046875 119.806640625 88.0048828125 123.383789062 c 0,48,49
88.0048828125 123.383789062 m 0,64,65
 96.94921875 132.328125 96.94921875 132.328125 112.154296875 144.850585938 c 128,-1,66
 127.360351562 157.372070312 127.360351562 157.372070312 141 169 c 128,-1,67
 154.639648438 180.627929688 154.639648438 180.627929688 163.360351562 190.2421875 c 128,-1,68
 172.081054688 199.857421875 172.081054688 199.857421875 168.056640625 202.98828125 c 0,69,70
 166.71484375 204.77734375 166.71484375 204.77734375 162.2421875 207.012695312 c 128,-1,71
 157.770507812 209.249023438 157.770507812 209.249023438 152.8515625 206.119140625 c 0,72,73
 149.2734375 203.435546875 149.2734375 203.435546875 137.421875 194.267578125 c 128,-1,74
 125.571289062 185.099609375 125.571289062 185.099609375 112.825195312 174.142578125 c 128,-1,75
 100.080078125 163.186523438 100.080078125 163.186523438 89.123046875 152.453125 c 128,-1,76
 78.166015625 141.719726562 78.166015625 141.719726562 75.4833984375 136.353515625 c 0,77,78
 72.3525390625 130.092773438 72.3525390625 130.092773438 78.166015625 124.94921875 c 128,-1,79
 83.98046875 119.806640625 83.98046875 119.806640625 88.0048828125 123.383789062 c 0,64,65
109 71 m 1,80,-1
 40 140 l 1,81,-1
 201 301 l 1,82,-1
 40 462 l 1,83,-1
 109 531 l 1,84,-1
 270 370 l 1,85,-1
 431 531 l 1,86,-1
 500 462 l 1,87,-1
 339 301 l 1,88,-1
 500 140 l 1,89,-1
 431 71 l 1,90,-1
 270 232 l 1,91,-1
 109 71 l 1,80,-1
EndSplineSet
EndChar

StartChar: Y
Encoding: 89 89 59
Width: 540
GlyphClass: 2
Flags: W
LayerCount: 2
Fore
SplineSet
64.5 85 m 0,0,1
 64.5 103 64.5 103 80 118 c 128,-1,2
 95.5 133 95.5 133 123.5 144.5 c 128,-1,3
 151.5 156 151.5 156 189 162.5 c 128,-1,4
 226.5 169 226.5 169 269.5 169 c 0,5,6
 313.5 169 313.5 169 351 162.5 c 128,-1,7
 388.5 156 388.5 156 416 144.5 c 128,-1,8
 443.5 133 443.5 133 459.5 118 c 128,-1,9
 475.5 103 475.5 103 475.5 85 c 0,10,11
 475.5 68 475.5 68 459.5 53 c 128,-1,12
 443.5 38 443.5 38 416 27 c 128,-1,13
 388.5 16 388.5 16 351 9.5 c 128,-1,14
 313.5 3 313.5 3 269.5 3 c 0,15,16
 226.5 3 226.5 3 189 9.5 c 128,-1,17
 151.5 16 151.5 16 123.5 27 c 128,-1,18
 95.5 38 95.5 38 80 53 c 128,-1,19
 64.5 68 64.5 68 64.5 85 c 0,0,1
144.5 85 m 256,20,21
 144.5 74 144.5 74 154 64.5 c 128,-1,22
 163.5 55 163.5 55 180.5 48.5 c 128,-1,23
 197.5 42 197.5 42 220.5 38 c 128,-1,24
 243.5 34 243.5 34 269.5 34 c 0,25,26
 296.5 34 296.5 34 319 38 c 128,-1,27
 341.5 42 341.5 42 358.5 48.5 c 128,-1,28
 375.5 55 375.5 55 385 64.5 c 128,-1,29
 394.5 74 394.5 74 394.5 85 c 256,30,31
 394.5 96 394.5 96 385 105.5 c 128,-1,32
 375.5 115 375.5 115 358.5 122 c 128,-1,33
 341.5 129 341.5 129 319 133 c 128,-1,34
 296.5 137 296.5 137 269.5 137 c 0,35,36
 243.5 137 243.5 137 220.5 133 c 128,-1,37
 197.5 129 197.5 129 180.5 122 c 128,-1,38
 163.5 115 163.5 115 154 105.5 c 128,-1,39
 144.5 96 144.5 96 144.5 85 c 256,20,21
64.5 272 m 0,40,41
 64.5 290 64.5 290 80 305 c 128,-1,42
 95.5 320 95.5 320 123.5 331.5 c 128,-1,43
 151.5 343 151.5 343 189 349 c 128,-1,44
 226.5 355 226.5 355 269.5 355 c 0,45,46
 313.5 355 313.5 355 351 349 c 128,-1,47
 388.5 343 388.5 343 416 331.5 c 128,-1,48
 443.5 320 443.5 320 459.5 305 c 128,-1,49
 475.5 290 475.5 290 475.5 272 c 0,50,51
 475.5 255 475.5 255 459.5 240 c 128,-1,52
 443.5 225 443.5 225 416 214 c 128,-1,53
 388.5 203 388.5 203 351 196 c 128,-1,54
 313.5 189 313.5 189 269.5 189 c 0,55,56
 226.5 189 226.5 189 189 196 c 128,-1,57
 151.5 203 151.5 203 123.5 214 c 128,-1,58
 95.5 225 95.5 225 80 240 c 128,-1,59
 64.5 255 64.5 255 64.5 272 c 0,40,41
64.5 461 m 256,60,61
 64.5 478 64.5 478 80 493.5 c 128,-1,62
 95.5 509 95.5 509 123.5 520 c 128,-1,63
 151.5 531 151.5 531 189 537.5 c 128,-1,64
 226.5 544 226.5 544 269.5 544 c 0,65,66
 313.5 544 313.5 544 351 537.5 c 128,-1,67
 388.5 531 388.5 531 416 520 c 128,-1,68
 443.5 509 443.5 509 459.5 493.5 c 128,-1,69
 475.5 478 475.5 478 475.5 461 c 256,70,71
 475.5 444 475.5 444 459.5 429 c 128,-1,72
 443.5 414 443.5 414 416 402.5 c 128,-1,73
 388.5 391 388.5 391 351 384.5 c 128,-1,74
 313.5 378 313.5 378 269.5 378 c 0,75,76
 226.5 378 226.5 378 189 384.5 c 128,-1,77
 151.5 391 151.5 391 123.5 402.5 c 128,-1,78
 95.5 414 95.5 414 80 429 c 128,-1,79
 64.5 444 64.5 444 64.5 461 c 256,60,61
144.5 461 m 256,80,81
 144.5 450 144.5 450 154 440.5 c 128,-1,82
 163.5 431 163.5 431 180.5 424 c 128,-1,83
 197.5 417 197.5 417 220.5 413 c 128,-1,84
 243.5 409 243.5 409 269.5 409 c 0,85,86
 296.5 409 296.5 409 319 413 c 128,-1,87
 341.5 417 341.5 417 358.5 424 c 128,-1,88
 375.5 431 375.5 431 385 440.5 c 128,-1,89
 394.5 450 394.5 450 394.5 461 c 256,90,91
 394.5 472 394.5 472 385 481.5 c 128,-1,92
 375.5 491 375.5 491 358.5 498 c 128,-1,93
 341.5 505 341.5 505 319 509 c 128,-1,94
 296.5 513 296.5 513 269.5 513 c 0,95,96
 243.5 513 243.5 513 220.5 509 c 128,-1,97
 197.5 505 197.5 505 180.5 498 c 128,-1,98
 163.5 491 163.5 491 154 481.5 c 128,-1,99
 144.5 472 144.5 472 144.5 461 c 256,80,81
64.5 648 m 256,100,101
 64.5 665 64.5 665 80 680.5 c 128,-1,102
 95.5 696 95.5 696 123.5 707 c 128,-1,103
 151.5 718 151.5 718 189 724.5 c 128,-1,104
 226.5 731 226.5 731 269.5 731 c 0,105,106
 313.5 731 313.5 731 351 724.5 c 128,-1,107
 388.5 718 388.5 718 416 707 c 128,-1,108
 443.5 696 443.5 696 459.5 680.5 c 128,-1,109
 475.5 665 475.5 665 475.5 648 c 256,110,111
 475.5 631 475.5 631 459.5 616 c 128,-1,112
 443.5 601 443.5 601 416 589.5 c 128,-1,113
 388.5 578 388.5 578 351 571.5 c 128,-1,114
 313.5 565 313.5 565 269.5 565 c 0,115,116
 226.5 565 226.5 565 189 571.5 c 128,-1,117
 151.5 578 151.5 578 123.5 589.5 c 128,-1,118
 95.5 601 95.5 601 80 616 c 128,-1,119
 64.5 631 64.5 631 64.5 648 c 256,100,101
EndSplineSet
EndChar

StartChar: Z
Encoding: 90 90 60
Width: 540
GlyphClass: 2
Flags: W
LayerCount: 2
Fore
SplineSet
284.5 586 m 4,0,1
 244.5 586 244.5 586 216 614 c 132,-1,2
 187.5 642 187.5 642 187.5 686 c 4,3,4
 187.5 710 187.5 710 196 731.5 c 132,-1,5
 204.5 753 204.5 753 219.5 768.5 c 132,-1,6
 234.5 784 234.5 784 255.5 793.5 c 132,-1,7
 276.5 803 276.5 803 301.5 803 c 4,8,9
 321.5 803 321.5 803 338.5 794.5 c 132,-1,10
 355.5 786 355.5 786 367.5 771 c 132,-1,11
 379.5 756 379.5 756 386 737 c 132,-1,12
 392.5 718 392.5 718 392.5 697 c 4,13,14
 392.5 670 392.5 670 384 649.5 c 132,-1,15
 375.5 629 375.5 629 360.5 615 c 132,-1,16
 345.5 601 345.5 601 326 593.5 c 132,-1,17
 306.5 586 306.5 586 284.5 586 c 4,0,1
247.5 759 m 4,18,19
 254.5 766 254.5 766 256 771 c 132,-1,20
 257.5 776 257.5 776 255.5 776 c 4,21,22
 247.5 776 247.5 776 238.5 768.5 c 132,-1,23
 229.5 761 229.5 761 222 750.5 c 132,-1,24
 214.5 740 214.5 740 209.5 728 c 132,-1,25
 204.5 716 204.5 716 204.5 706 c 4,26,27
 204.5 704 204.5 704 206 698 c 132,-1,28
 207.5 692 207.5 692 210.5 692 c 4,29,30
 214.5 692 214.5 692 220.5 714 c 4,31,32
 223.5 728 223.5 728 231.5 739.5 c 132,-1,33
 239.5 751 239.5 751 247.5 759 c 4,18,19
288.5 643 m 4,34,35
 300.5 643 300.5 643 317 657 c 132,-1,36
 333.5 671 333.5 671 333.5 697 c 4,37,38
 333.5 717 333.5 717 323 730.5 c 132,-1,39
 312.5 744 312.5 744 295.5 744 c 260,40,41
 278.5 744 278.5 744 264.5 730.5 c 132,-1,42
 250.5 717 250.5 717 250.5 693 c 260,43,44
 250.5 669 250.5 669 261.5 656 c 132,-1,45
 272.5 643 272.5 643 288.5 643 c 4,34,35
60 0 m 1,46,-1
 60 61 l 1,47,-1
 375 467 l 1,48,-1
 76 467 l 1,49,-1
 76 536 l 1,50,-1
 472 536 l 1,51,-1
 472 465 l 1,52,-1
 167 76 l 1,53,-1
 480 76 l 1,54,-1
 480 0 l 1,55,-1
 60 0 l 1,46,-1
EndSplineSet
EndChar

StartChar: bracketleft
Encoding: 91 91 61
Width: 540
Flags: W
LayerCount: 2
Fore
SplineSet
174.930664062 -70 m 0,0,1
 171.930664062 -67 171.930664062 -67 170.430664062 -56.5 c 128,-1,2
 168.930664062 -46 168.930664062 -46 167.930664062 -12.5 c 128,-1,3
 166.930664062 21 166.930664062 21 166.930664062 86.5 c 128,-1,4
 166.930664062 152 166.930664062 152 166.930664062 266 c 0,5,6
 166.930664062 347 166.930664062 347 166.930664062 405 c 128,-1,7
 166.930664062 463 166.930664062 463 166.930664062 503.5 c 128,-1,8
 166.930664062 544 166.930664062 544 167.930664062 570 c 128,-1,9
 168.930664062 596 168.930664062 596 170.930664062 611.5 c 128,-1,10
 172.930664062 627 172.930664062 627 175.930664062 635 c 128,-1,11
 178.930664062 643 178.930664062 643 183.930664062 649 c 0,12,13
 187.930664062 654 187.930664062 654 199.430664062 657 c 128,-1,14
 210.930664062 660 210.930664062 660 226.430664062 661.5 c 128,-1,15
 241.930664062 663 241.930664062 663 261.430664062 663.5 c 128,-1,16
 280.930664062 664 280.930664062 664 300.930664062 664 c 0,17,18
 341.930664062 664 341.930664062 664 362.430664062 650 c 128,-1,19
 382.930664062 636 382.930664062 636 363.930664062 616 c 0,20,21
 358.930664062 610 358.930664062 610 344.930664062 606 c 128,-1,22
 330.930664062 602 330.930664062 602 300.930664062 602 c 0,23,24
 286.930664062 602 286.930664062 602 279.430664062 600 c 128,-1,25
 271.930664062 598 271.930664062 598 268.930664062 593 c 128,-1,26
 265.930664062 588 265.930664062 588 265.930664062 579.5 c 128,-1,27
 265.930664062 571 265.930664062 571 265.930664062 557 c 2,28,-1
 265.930664062 -20 l 1,29,-1
 283.930664062 -20 l 2,30,31
 326.930664062 -20 326.930664062 -20 341.430664062 -27.5 c 128,-1,32
 355.930664062 -35 355.930664062 -35 355.930664062 -56 c 0,33,34
 355.930664062 -66 355.930664062 -66 352.430664062 -71.5 c 128,-1,35
 348.930664062 -77 348.930664062 -77 338.430664062 -79.5 c 128,-1,36
 327.930664062 -82 327.930664062 -82 309.930664062 -82.5 c 128,-1,37
 291.930664062 -83 291.930664062 -83 261.930664062 -83 c 0,38,39
 234.930664062 -83 234.930664062 -83 219.430664062 -83 c 128,-1,40
 203.930664062 -83 203.930664062 -83 194.930664062 -81.5 c 128,-1,41
 185.930664062 -80 185.930664062 -80 181.930664062 -77.5 c 128,-1,42
 177.930664062 -75 177.930664062 -75 174.930664062 -70 c 0,0,1
211.930664062 616 m 256,43,44
 213.930664062 624 213.930664062 624 222.930664062 630 c 128,-1,45
 231.930664062 636 231.930664062 636 237.930664062 636 c 0,46,47
 246.930664062 636 246.930664062 636 246.930664062 643 c 0,48,49
 246.930664062 644 246.930664062 644 245.430664062 644 c 128,-1,50
 243.930664062 644 243.930664062 644 237.930664062 644 c 0,51,52
 222.930664062 644 222.930664062 644 208.930664062 634 c 128,-1,53
 194.930664062 624 194.930664062 624 194.930664062 610 c 0,54,55
 194.930664062 598 194.930664062 598 198.930664062 598 c 256,56,57
 202.930664062 598 202.930664062 598 206.430664062 603 c 128,-1,58
 209.930664062 608 209.930664062 608 211.930664062 616 c 256,43,44
EndSplineSet
EndChar

StartChar: backslash
Encoding: 92 92 62
Width: 540
Flags: W
LayerCount: 2
Fore
SplineSet
156.5 666 m 0,0,1
 163.5 666 163.5 666 181.5 630.5 c 128,-1,2
 199.5 595 199.5 595 223 541 c 128,-1,3
 246.5 487 246.5 487 272.5 422.5 c 128,-1,4
 298.5 358 298.5 358 321.5 299.5 c 128,-1,5
 344.5 241 344.5 241 361 197.5 c 128,-1,6
 377.5 154 377.5 154 383.5 142 c 0,7,8
 389.5 129 389.5 129 401 101.5 c 128,-1,9
 412.5 74 412.5 74 424 44.5 c 128,-1,10
 435.5 15 435.5 15 444 -10.5 c 128,-1,11
 452.5 -36 452.5 -36 452.5 -44 c 0,12,13
 452.5 -51 452.5 -51 447.5 -57 c 128,-1,14
 442.5 -63 442.5 -63 435 -67.5 c 128,-1,15
 427.5 -72 427.5 -72 419 -74.5 c 128,-1,16
 410.5 -77 410.5 -77 403.5 -77 c 0,17,18
 389.5 -77 389.5 -77 378 -67.5 c 128,-1,19
 366.5 -58 366.5 -58 359.5 -47 c 0,20,21
 353.5 -37 353.5 -37 338.5 -3 c 128,-1,22
 323.5 31 323.5 31 303.5 79.5 c 128,-1,23
 283.5 128 283.5 128 259.5 187 c 128,-1,24
 235.5 246 235.5 246 211.5 306 c 128,-1,25
 187.5 366 187.5 366 165 423 c 128,-1,26
 142.5 480 142.5 480 125.5 525 c 128,-1,27
 108.5 570 108.5 570 98 598.5 c 128,-1,28
 87.5 627 87.5 627 87.5 630 c 0,29,30
 87.5 639 87.5 639 96.5 646 c 128,-1,31
 105.5 653 105.5 653 117.5 657.5 c 128,-1,32
 129.5 662 129.5 662 141 664 c 128,-1,33
 152.5 666 152.5 666 156.5 666 c 0,0,1
131.5 626 m 0,34,35
 129.5 631 129.5 631 122 629 c 128,-1,36
 114.5 627 114.5 627 114.5 620 c 0,37,38
 114.5 614 114.5 614 119.5 599.5 c 128,-1,39
 124.5 585 124.5 585 131 569.5 c 128,-1,40
 137.5 554 137.5 554 144 540.5 c 128,-1,41
 150.5 527 150.5 527 152.5 523 c 0,42,43
 155.5 518 155.5 518 160.5 518 c 128,-1,44
 165.5 518 165.5 518 167.5 519 c 0,45,46
 172.5 520 172.5 520 169 532.5 c 128,-1,47
 165.5 545 165.5 545 158.5 561.5 c 128,-1,48
 151.5 578 151.5 578 143.5 596 c 128,-1,49
 135.5 614 135.5 614 131.5 626 c 0,34,35
EndSplineSet
EndChar

StartChar: bracketright
Encoding: 93 93 63
Width: 540
Flags: W
LayerCount: 2
Fore
SplineSet
199.75 -80 m 0,0,1
 184.75 -80 184.75 -80 174.25 -71.5 c 128,-1,2
 163.75 -63 163.75 -63 163.75 -55 c 0,3,4
 163.75 -33 163.75 -33 177.25 -25 c 128,-1,5
 190.75 -17 190.75 -17 210.75 -17 c 0,6,7
 234.75 -17 234.75 -17 248.25 -15 c 128,-1,8
 261.75 -13 261.75 -13 268.25 -8.5 c 128,-1,9
 274.75 -4 274.75 -4 276.25 3.5 c 128,-1,10
 277.75 11 277.75 11 277.75 21 c 2,11,-1
 277.75 551 l 2,12,13
 277.75 580 277.75 580 265.75 590 c 128,-1,14
 253.75 600 253.75 600 242.75 600 c 256,15,16
 231.75 600 231.75 600 219.75 598 c 128,-1,17
 207.75 596 207.75 596 196.75 596 c 0,18,19
 182.75 596 182.75 596 173.25 603 c 128,-1,20
 163.75 610 163.75 610 163.75 633 c 0,21,22
 163.75 645 163.75 645 180.25 653.5 c 128,-1,23
 196.75 662 196.75 662 225.75 662 c 0,24,25
 250.75 662 250.75 662 274.75 662 c 128,-1,26
 298.75 662 298.75 662 318.25 660.5 c 128,-1,27
 337.75 659 337.75 659 350.75 656 c 128,-1,28
 363.75 653 363.75 653 366.75 647 c 0,29,30
 369.75 642 369.75 642 370.25 625.5 c 128,-1,31
 370.75 609 370.75 609 370.75 570.5 c 128,-1,32
 370.75 532 370.75 532 371.25 466 c 128,-1,33
 371.75 400 371.75 400 372.75 295 c 0,34,35
 374.75 193 374.75 193 375.75 127.5 c 128,-1,36
 376.75 62 376.75 62 375.75 21 c 0,37,38
 375.75 -7 375.75 -7 371.75 -25 c 128,-1,39
 367.75 -43 367.75 -43 361.75 -54 c 128,-1,40
 355.75 -65 355.75 -65 347.25 -70 c 128,-1,41
 338.75 -75 338.75 -75 328.75 -76 c 0,42,43
 310.75 -78 310.75 -78 289.25 -79 c 128,-1,44
 267.75 -80 267.75 -80 248.75 -80 c 128,-1,45
 229.75 -80 229.75 -80 215.75 -80 c 128,-1,46
 201.75 -80 201.75 -80 199.75 -80 c 0,0,1
194.75 644 m 256,47,48
 190.75 649 190.75 649 183.75 645 c 128,-1,49
 176.75 641 176.75 641 176.75 633 c 0,50,51
 176.75 623 176.75 623 180.75 623 c 256,52,53
 184.75 623 184.75 623 184.75 630 c 0,54,55
 185.75 634 185.75 634 192.25 636.5 c 128,-1,56
 198.75 639 198.75 639 194.75 644 c 256,47,48
EndSplineSet
EndChar

StartChar: asciicircum
Encoding: 94 94 64
Width: 540
Flags: W
LayerCount: 2
Fore
SplineSet
22 267 m 1,0,-1
 234 719 l 1,1,-1
 284 719 l 1,2,-1
 518 267 l 1,3,-1
 440 267 l 1,4,-1
 260 626 l 1,5,-1
 100 267 l 1,6,-1
 22 267 l 1,0,-1
EndSplineSet
EndChar

StartChar: underscore
Encoding: 95 95 65
Width: 540
Flags: W
LayerCount: 2
Fore
SplineSet
494 -154 m 1,0,-1
 46 -154 l 1,1,-1
 46 -90 l 1,2,-1
 494 -90 l 1,3,-1
 494 -154 l 1,0,-1
EndSplineSet
EndChar

StartChar: grave
Encoding: 96 96 66
Width: 540
Flags: W
LayerCount: 2
Fore
SplineSet
274.5 766 m 1,0,1
 285.5 744 285.5 744 302 716.5 c 128,-1,2
 318.5 689 318.5 689 337 663 c 128,-1,3
 355.5 637 355.5 637 370.5 618 c 1,4,-1
 370.5 606 l 1,5,-1
 311.5 606 l 1,6,7
 294.5 620 294.5 620 273.5 639.5 c 128,-1,8
 252.5 659 252.5 659 232 680.5 c 128,-1,9
 211.5 702 211.5 702 195 722 c 128,-1,10
 178.5 742 178.5 742 169.5 756 c 1,11,-1
 169.5 766 l 1,12,-1
 274.5 766 l 1,0,1
EndSplineSet
EndChar

StartChar: a
Encoding: 97 97 67
Width: 540
GlyphClass: 2
Flags: W
LayerCount: 2
Fore
SplineSet
276 621 m 0,0,1
 308 621 308 621 329 611 c 128,-1,2
 350 601 350 601 358 587 c 0,3,4
 364 575 364 575 375.5 534 c 128,-1,5
 387 493 387 493 400.5 437 c 128,-1,6
 414 381 414 381 428.5 318 c 128,-1,7
 443 255 443 255 455 199 c 128,-1,8
 467 143 467 143 474.5 101.5 c 128,-1,9
 482 60 482 60 482 48 c 0,10,11
 482 28 482 28 461 12.5 c 128,-1,12
 440 -3 440 -3 416 -3 c 256,13,14
 392 -3 392 -3 383 11 c 0,15,16
 379 17 379 17 373 32 c 128,-1,17
 367 47 367 47 361 67 c 128,-1,18
 355 87 355 87 349.5 109 c 128,-1,19
 344 131 344 131 340 152 c 0,20,21
 336 172 336 172 328.5 176.5 c 128,-1,22
 321 181 321 181 311 181 c 0,23,24
 282 181 282 181 260 181.5 c 128,-1,25
 238 182 238 182 227 182 c 0,26,27
 207 182 207 182 197.5 177.5 c 128,-1,28
 188 173 188 173 185 162 c 2,29,-1
 159 62 l 2,30,31
 151 33 151 33 133.5 15.5 c 128,-1,32
 116 -2 116 -2 94 -2 c 0,33,34
 58 -2 58 -2 58 48 c 0,35,36
 58 65 58 65 62 95.5 c 128,-1,37
 66 126 66 126 72.5 164.5 c 128,-1,38
 79 203 79 203 88.5 246.5 c 128,-1,39
 98 290 98 290 108.5 334.5 c 128,-1,40
 119 379 119 379 130 421 c 128,-1,41
 141 463 141 463 152 497 c 0,42,43
 164 535 164 535 176.5 559 c 128,-1,44
 189 583 189 583 203 597 c 128,-1,45
 217 611 217 611 234.5 616 c 128,-1,46
 252 621 252 621 276 621 c 0,0,1
215 561 m 0,47,48
 226 574 226 574 235 585.5 c 128,-1,49
 244 597 244 597 237 598 c 0,50,51
 221 601 221 601 205 579 c 0,52,53
 194 562 194 562 189 543 c 128,-1,54
 184 524 184 524 192 522 c 0,55,56
 194 522 194 522 196 525.5 c 128,-1,57
 198 529 198 529 200 535 c 128,-1,58
 202 541 202 541 205.5 548 c 128,-1,59
 209 555 209 555 215 561 c 0,47,48
231 377 m 0,60,61
 220 320 220 320 216.5 298.5 c 128,-1,62
 213 277 213 277 222 277 c 2,63,-1
 310 277 l 2,64,65
 318 277 318 277 314 296.5 c 128,-1,66
 310 316 310 316 302 357 c 0,67,68
 300 368 300 368 297 393.5 c 128,-1,69
 294 419 294 419 289.5 445 c 128,-1,70
 285 471 285 471 280 491.5 c 128,-1,71
 275 512 275 512 269 512 c 0,72,73
 264 512 264 512 258 494 c 128,-1,74
 252 476 252 476 246.5 452.5 c 128,-1,75
 241 429 241 429 237 407 c 128,-1,76
 233 385 233 385 231 377 c 0,60,61
90 63 m 0,77,78
 92 75 92 75 90 82 c 128,-1,79
 88 89 88 89 84 90 c 0,80,81
 82 90 82 90 79.5 87.5 c 128,-1,82
 77 85 77 85 75 77 c 0,83,84
 71 57 71 57 74 38.5 c 128,-1,85
 77 20 77 20 85 18 c 0,86,87
 95 16 95 16 89 33 c 0,88,89
 87 39 87 39 87.5 46.5 c 128,-1,90
 88 54 88 54 90 63 c 0,77,78
395 64 m 0,91,92
 388 78 388 78 386 83 c 128,-1,93
 384 88 384 88 382 88 c 0,94,95
 379 88 379 88 377 78 c 0,96,97
 377 74 377 74 379.5 63.5 c 128,-1,98
 382 53 382 53 386 42.5 c 128,-1,99
 390 32 390 32 395.5 24 c 128,-1,100
 401 16 401 16 406 16 c 0,101,102
 409 16 409 16 409 21 c 128,-1,103
 409 26 409 26 406.5 34 c 128,-1,104
 404 42 404 42 401 50 c 128,-1,105
 398 58 398 58 395 64 c 0,91,92
EndSplineSet
EndChar

StartChar: b
Encoding: 98 98 68
Width: 540
GlyphClass: 2
Flags: W
LayerCount: 2
Fore
SplineSet
286.5 -10 m 0,0,1
 227.5 -10 227.5 -10 187 13.5 c 128,-1,2
 146.5 37 146.5 37 123.5 68 c 1,3,-1
 117.5 68 l 1,4,-1
 109.5 0 l 1,5,-1
 37.5 0 l 1,6,-1
 37.5 760 l 1,7,-1
 124.5 760 l 1,8,-1
 124.5 576 l 2,9,10
 124.5 548 124.5 548 124 521 c 128,-1,11
 123.5 494 123.5 494 120.5 466 c 1,12,-1
 124.5 466 l 1,13,14
 145.5 498 145.5 498 185.5 522 c 128,-1,15
 225.5 546 225.5 546 286.5 546 c 0,16,17
 334.5 546 334.5 546 374.5 528.5 c 128,-1,18
 414.5 511 414.5 511 443 476 c 128,-1,19
 471.5 441 471.5 441 487 389 c 128,-1,20
 502.5 337 502.5 337 502.5 269 c 0,21,22
 502.5 200 502.5 200 487 148 c 128,-1,23
 471.5 96 471.5 96 442.5 60.5 c 128,-1,24
 413.5 25 413.5 25 374 7.5 c 128,-1,25
 334.5 -10 334.5 -10 286.5 -10 c 0,0,1
269.5 63 m 0,26,27
 342.5 63 342.5 63 376.5 116 c 128,-1,28
 410.5 169 410.5 169 410.5 269 c 0,29,30
 410.5 367 410.5 367 376.5 420 c 128,-1,31
 342.5 473 342.5 473 268.5 473 c 0,32,33
 199.5 473 199.5 473 162 420.5 c 128,-1,34
 124.5 368 124.5 368 124.5 271 c 0,35,36
 124.5 170 124.5 170 160 116.5 c 128,-1,37
 195.5 63 195.5 63 269.5 63 c 0,26,27
EndSplineSet
EndChar

StartChar: c
Encoding: 99 99 69
Width: 540
GlyphClass: 2
Flags: W
LayerCount: 2
Fore
SplineSet
379 17 m 0,0,1
 261 17 261 17 196 84 c 128,-1,2
 131 151 131 151 131 272 c 0,3,4
 131 352 131 352 160 407.5 c 128,-1,5
 189 463 189 463 243 492 c 1,6,-1
 15 492 l 1,7,-1
 15 564 l 1,8,-1
 525 564 l 1,9,-1
 525 492 l 1,10,-1
 423 492 l 2,11,12
 329 492 329 492 275.5 438.5 c 128,-1,13
 222 385 222 385 222 279 c 0,14,15
 222 192 222 192 265 141.5 c 128,-1,16
 308 91 308 91 388 91 c 0,17,18
 425 91 425 91 459 100.5 c 128,-1,19
 493 110 493 110 525 126 c 1,20,-1
 525 48 l 1,21,22
 496 32 496 32 461 24.5 c 128,-1,23
 426 17 426 17 379 17 c 0,0,1
EndSplineSet
EndChar

StartChar: d
Encoding: 100 100 70
Width: 540
GlyphClass: 2
Flags: W
LayerCount: 2
Fore
SplineSet
256.5 -10 m 0,0,1
 207.5 -10 207.5 -10 167 7 c 128,-1,2
 126.5 24 126.5 24 97.5 59 c 128,-1,3
 68.5 94 68.5 94 53 147 c 128,-1,4
 37.5 200 37.5 200 37.5 271 c 0,5,6
 37.5 360 37.5 360 63 421.5 c 128,-1,7
 88.5 483 88.5 483 139.5 514.5 c 128,-1,8
 190.5 546 190.5 546 266.5 546 c 0,9,10
 303.5 546 303.5 546 332 536 c 128,-1,11
 360.5 526 360.5 526 381 508.5 c 128,-1,12
 401.5 491 401.5 491 413.5 468 c 1,13,-1
 419.5 468 l 1,14,15
 418.5 478 418.5 478 417 491.5 c 128,-1,16
 415.5 505 415.5 505 414.5 519.5 c 128,-1,17
 413.5 534 413.5 534 413.5 547 c 2,18,-1
 413.5 760 l 1,19,-1
 502.5 760 l 1,20,-1
 502.5 0 l 1,21,-1
 428.5 0 l 1,22,-1
 418.5 72 l 1,23,-1
 414.5 72 l 1,24,25
 399.5 48 399.5 48 378 29.5 c 128,-1,26
 356.5 11 356.5 11 327 0.5 c 128,-1,27
 297.5 -10 297.5 -10 256.5 -10 c 0,0,1
273.5 63 m 0,28,29
 344.5 63 344.5 63 379 112.5 c 128,-1,30
 413.5 162 413.5 162 413.5 247 c 2,31,-1
 413.5 267 l 2,32,33
 413.5 326 413.5 326 400.5 372.5 c 128,-1,34
 387.5 419 387.5 419 357.5 446 c 128,-1,35
 327.5 473 327.5 473 276.5 473 c 0,36,37
 206.5 473 206.5 473 168 421 c 128,-1,38
 129.5 369 129.5 369 129.5 262 c 0,39,40
 129.5 163 129.5 163 165 113 c 128,-1,41
 200.5 63 200.5 63 273.5 63 c 0,28,29
EndSplineSet
EndChar

StartChar: e
Encoding: 101 101 71
Width: 540
GlyphClass: 2
Flags: W
LayerCount: 2
Fore
SplineSet
307 -10 m 0,0,1
 221 -10 221 -10 159 22 c 128,-1,2
 97 54 97 54 63.5 115.5 c 128,-1,3
 30 177 30 177 30 266 c 0,4,5
 30 354 30 354 62 416.5 c 128,-1,6
 94 479 94 479 151 512.5 c 128,-1,7
 208 546 208 546 284 546 c 0,8,9
 354 546 354 546 404.5 515 c 128,-1,10
 455 484 455 484 482.5 427.5 c 128,-1,11
 510 371 510 371 510 292 c 2,12,-1
 510 251 l 1,13,-1
 121 251 l 1,14,15
 123 181 123 181 147.5 140 c 128,-1,16
 172 99 172 99 214.5 81.5 c 128,-1,17
 257 64 257 64 313 64 c 0,18,19
 357 64 357 64 400 76 c 128,-1,20
 443 88 443 88 486 108 c 1,21,-1
 486 28 l 1,22,23
 440 8 440 8 394 -1 c 128,-1,24
 348 -10 348 -10 307 -10 c 0,0,1
420 323 m 1,25,26
 418 370 418 370 402 403.5 c 128,-1,27
 386 437 386 437 356.5 455 c 128,-1,28
 327 473 327 473 284 473 c 0,29,30
 217 473 217 473 175.5 432.5 c 128,-1,31
 134 392 134 392 123 323 c 1,32,-1
 420 323 l 1,25,26
EndSplineSet
EndChar

StartChar: f
Encoding: 102 102 72
Width: 540
GlyphClass: 2
Flags: W
LayerCount: 2
Fore
SplineSet
96.484375 -81 m 0,0,1
 96.984375 -67 96.984375 -67 101.984375 -57.5 c 128,-1,2
 106.984375 -48 106.984375 -48 115.484375 -42 c 0,3,4
 122.984375 -36 122.984375 -36 132.984375 -33.5 c 128,-1,5
 142.984375 -31 142.984375 -31 148.484375 -29 c 0,6,7
 174.984375 -21 174.984375 -21 182.984375 -6 c 0,8,9
 196.97265625 18.9794921875 196.97265625 18.9794921875 199.484375 51 c 2,10,-1
 219.484375 306 l 1,11,-1
 77.484375 306 l 2,12,13
 66.984375 306 66.984375 306 60.484375 319 c 0,14,15
 54.984375 332 54.984375 332 54.484375 346 c 256,16,17
 54.984375 360 54.984375 360 60.484375 370.5 c 0,18,19
 66.984375 381 66.984375 381 77.484375 381 c 2,20,-1
 224.484375 381 l 1,21,-1
 227.484375 478 l 2,22,23
 229.984375 553 229.984375 553 269.484375 596 c 0,24,25
 302.984375 633 302.984375 633 401.484375 633 c 4,26,27
 429.984375 633 429.984375 633 444.984375 621 c 4,28,29
 458.984375 610 458.984375 610 459.484375 590 c 4,30,31
 459.984375 576 459.984375 576 454.984375 567.5 c 132,-1,32
 449.984375 559 449.984375 559 443.484375 554.5 c 4,33,34
 435.984375 550 435.984375 550 429.484375 549.5 c 4,35,36
 421.984375 549 421.984375 549 416.484375 550 c 4,37,38
 399.984375 553 399.984375 553 388.484375 551.5 c 4,39,40
 341.984375 549 341.984375 549 338.984375 541.5 c 0,41,42
 330.984375 521 330.984375 521 326.984375 517 c 0,43,44
 320.6328125 509.58984375 320.6328125 509.58984375 319.484375 474 c 2,45,-1
 316.484375 381 l 1,46,-1
 456.484375 381 l 2,47,48
 470.984375 381 470.984375 381 478.484375 371 c 0,49,50
 485.984375 359 485.984375 359 485.484375 345 c 0,51,52
 484.984375 330 484.984375 330 478.984375 319 c 128,-1,53
 472.984375 308 472.984375 308 457.484375 308 c 0,54,55
 448.984375 308 448.984375 308 436.984375 307 c 0,56,57
 423.984375 306 423.984375 306 336.484375 306 c 2,58,-1
 312.484375 306 l 1,59,-1
 292.484375 44 l 2,60,61
 286.984375 -31 286.984375 -31 252.484375 -70 c 0,62,63
 216.984375 -110 216.984375 -110 163.484375 -118 c 0,64,65
 132.984375 -123 132.984375 -123 114.984375 -113.5 c 0,66,67
 95.984375 -103 95.984375 -103 96.484375 -81 c 0,0,1
262.484375 526 m 0,68,69
 262.484375 537 262.484375 537 270.484375 553 c 128,-1,70
 278.484375 569 278.484375 569 286.484375 577 c 256,71,72
 294.484375 585 294.484375 585 295.484375 589.5 c 128,-1,73
 296.484375 594 296.484375 594 292.484375 594 c 0,74,75
 284.484375 594 284.484375 594 276.484375 585 c 128,-1,76
 268.484375 576 268.484375 576 262.484375 564 c 128,-1,77
 256.484375 552 256.484375 552 252.484375 540 c 128,-1,78
 248.484375 528 248.484375 528 248.484375 521 c 0,79,80
 248.484375 511 248.484375 511 254.484375 511 c 0,81,82
 262.484375 511 262.484375 511 262.484375 526 c 0,68,69
118.484375 -84 m 256,83,84
 120.484375 -84 120.484375 -84 121.984375 -80 c 128,-1,85
 123.484375 -76 123.484375 -76 124.984375 -71 c 128,-1,86
 126.484375 -66 126.484375 -66 129.984375 -61.5 c 128,-1,87
 133.484375 -57 133.484375 -57 140.484375 -55 c 0,88,89
 145.484375 -53 145.484375 -53 151.484375 -52 c 128,-1,90
 157.484375 -51 157.484375 -51 157.484375 -43 c 0,91,92
 157.484375 -40 157.484375 -40 151.484375 -40 c 0,93,94
 146.484375 -40 146.484375 -40 139.484375 -43.5 c 128,-1,95
 132.484375 -47 132.484375 -47 125.484375 -52.5 c 128,-1,96
 118.484375 -58 118.484375 -58 113.984375 -64.5 c 128,-1,97
 109.484375 -71 109.484375 -71 109.484375 -77 c 0,98,99
 109.484375 -80 109.484375 -80 112.984375 -82 c 128,-1,100
 116.484375 -84 116.484375 -84 118.484375 -84 c 256,83,84
EndSplineSet
EndChar

StartChar: g
Encoding: 103 103 73
Width: 540
GlyphClass: 2
Flags: W
LayerCount: 2
Fore
SplineSet
289.5 -5 m 0,0,1
 222.5 -5 222.5 -5 178.5 28 c 128,-1,2
 134.5 61 134.5 61 108.5 111 c 128,-1,3
 82.5 161 82.5 161 72.5 219 c 128,-1,4
 62.5 277 62.5 277 62.5 328 c 0,5,6
 62.5 384 62.5 384 74 437.5 c 128,-1,7
 85.5 491 85.5 491 112.5 532.5 c 128,-1,8
 139.5 574 139.5 574 183 599.5 c 128,-1,9
 226.5 625 226.5 625 290.5 625 c 0,10,11
 321.5 625 321.5 625 350 616.5 c 128,-1,12
 378.5 608 378.5 608 400.5 589.5 c 128,-1,13
 422.5 571 422.5 571 435.5 540.5 c 128,-1,14
 448.5 510 448.5 510 448.5 466 c 0,15,16
 448.5 450 448.5 450 442 440.5 c 128,-1,17
 435.5 431 435.5 431 426 425.5 c 128,-1,18
 416.5 420 416.5 420 406.5 418.5 c 128,-1,19
 396.5 417 396.5 417 390.5 417 c 0,20,21
 376.5 417 376.5 417 364 427 c 128,-1,22
 351.5 437 351.5 437 351.5 466 c 0,23,24
 351.5 511 351.5 511 331 529 c 128,-1,25
 310.5 547 310.5 547 281.5 547 c 0,26,27
 261.5 547 261.5 547 243 530.5 c 128,-1,28
 224.5 514 224.5 514 210.5 483.5 c 128,-1,29
 196.5 453 196.5 453 188.5 410 c 128,-1,30
 180.5 367 180.5 367 180.5 314 c 0,31,32
 180.5 285 180.5 285 184 245 c 128,-1,33
 187.5 205 187.5 205 199.5 169 c 128,-1,34
 211.5 133 211.5 133 233.5 107.5 c 128,-1,35
 255.5 82 255.5 82 291.5 82 c 0,36,37
 320.5 82 320.5 82 337 96.5 c 128,-1,38
 353.5 111 353.5 111 361 132 c 128,-1,39
 368.5 153 368.5 153 370 175.5 c 128,-1,40
 371.5 198 371.5 198 370.5 214 c 256,41,42
 369.5 230 369.5 230 357 231.5 c 128,-1,43
 344.5 233 344.5 233 321.5 233 c 2,44,-1
 270.5 233 l 2,45,46
 264.5 233 264.5 233 259.5 239 c 128,-1,47
 254.5 245 254.5 245 251.5 253.5 c 128,-1,48
 248.5 262 248.5 262 246.5 271 c 128,-1,49
 244.5 280 244.5 280 244.5 286 c 0,50,51
 244.5 302 244.5 302 255 314.5 c 128,-1,52
 265.5 327 265.5 327 288.5 327 c 2,53,-1
 396.5 326 l 2,54,55
 427.5 326 427.5 326 452.5 306 c 128,-1,56
 477.5 286 477.5 286 477.5 249 c 0,57,58
 477.5 206 477.5 206 468 161 c 128,-1,59
 458.5 116 458.5 116 436.5 79 c 128,-1,60
 414.5 42 414.5 42 378.5 18.5 c 128,-1,61
 342.5 -5 342.5 -5 289.5 -5 c 0,0,1
194.5 58 m 0,62,63
 194.5 62 194.5 62 174.5 84 c 0,64,65
 165.5 93 165.5 93 156.5 106.5 c 128,-1,66
 147.5 120 147.5 120 140 133 c 128,-1,67
 132.5 146 132.5 146 128 157.5 c 128,-1,68
 123.5 169 123.5 169 123.5 173 c 0,69,70
 123.5 178 123.5 178 120.5 179.5 c 128,-1,71
 117.5 181 117.5 181 116.5 181 c 0,72,73
 108.5 181 108.5 181 108.5 170 c 256,74,75
 108.5 159 108.5 159 117.5 139 c 128,-1,76
 126.5 119 126.5 119 139 99.5 c 128,-1,77
 151.5 80 151.5 80 165 66 c 128,-1,78
 178.5 52 178.5 52 188.5 52 c 0,79,80
 194.5 52 194.5 52 194.5 58 c 0,62,63
217.5 45 m 0,81,82
 217.5 52 217.5 52 210.5 52 c 0,83,84
 206.5 52 206.5 52 205 49 c 128,-1,85
 203.5 46 203.5 46 203.5 44 c 0,86,87
 203.5 39 203.5 39 206 38 c 128,-1,88
 208.5 37 208.5 37 210.5 37 c 0,89,90
 217.5 37 217.5 37 217.5 45 c 0,81,82
EndSplineSet
EndChar

StartChar: h
Encoding: 104 104 74
Width: 540
GlyphClass: 2
Flags: W
LayerCount: 2
Fore
SplineSet
47.5 0 m 1,0,-1
 47.5 760 l 1,1,-1
 137.5 760 l 1,2,-1
 137.5 544 l 2,3,4
 137.5 525 137.5 525 136 496 c 128,-1,5
 134.5 467 134.5 467 133.5 450 c 1,6,-1
 138.5 450 l 1,7,8
 155.5 483 155.5 483 181 504 c 128,-1,9
 206.5 525 206.5 525 238.5 535.5 c 128,-1,10
 270.5 546 270.5 546 306.5 546 c 0,11,12
 389.5 546 389.5 546 441 499.5 c 128,-1,13
 492.5 453 492.5 453 492.5 350 c 2,14,-1
 492.5 0 l 1,15,-1
 402.5 0 l 1,16,-1
 402.5 332 l 2,17,18
 402.5 405 402.5 405 371.5 439 c 128,-1,19
 340.5 473 340.5 473 283.5 473 c 0,20,21
 239.5 473 239.5 473 206.5 450 c 128,-1,22
 173.5 427 173.5 427 155.5 383.5 c 128,-1,23
 137.5 340 137.5 340 137.5 278 c 2,24,-1
 137.5 0 l 1,25,-1
 47.5 0 l 1,0,-1
EndSplineSet
EndChar

StartChar: i
Encoding: 105 105 75
Width: 540
GlyphClass: 2
Flags: W
LayerCount: 2
Fore
SplineSet
200.5 576 m 4,0,1
 160.5 576 160.5 576 132 604 c 132,-1,2
 103.5 632 103.5 632 103.5 676 c 4,3,4
 103.5 700 103.5 700 112 721.5 c 132,-1,5
 120.5 743 120.5 743 135.5 758.5 c 132,-1,6
 150.5 774 150.5 774 171.5 783.5 c 132,-1,7
 192.5 793 192.5 793 217.5 793 c 4,8,9
 237.5 793 237.5 793 254.5 784.5 c 132,-1,10
 271.5 776 271.5 776 283.5 761 c 132,-1,11
 295.5 746 295.5 746 302 727 c 132,-1,12
 308.5 708 308.5 708 308.5 687 c 4,13,14
 308.5 660 308.5 660 300 639.5 c 132,-1,15
 291.5 619 291.5 619 276.5 605 c 132,-1,16
 261.5 591 261.5 591 242 583.5 c 132,-1,17
 222.5 576 222.5 576 200.5 576 c 4,0,1
163.5 749 m 4,18,19
 170.5 756 170.5 756 172 761 c 132,-1,20
 173.5 766 173.5 766 171.5 766 c 4,21,22
 163.5 766 163.5 766 154.5 758.5 c 132,-1,23
 145.5 751 145.5 751 138 740.5 c 132,-1,24
 130.5 730 130.5 730 125.5 718 c 132,-1,25
 120.5 706 120.5 706 120.5 696 c 4,26,27
 120.5 694 120.5 694 122 688 c 132,-1,28
 123.5 682 123.5 682 126.5 682 c 4,29,30
 130.5 682 130.5 682 136.5 704 c 4,31,32
 139.5 718 139.5 718 147.5 729.5 c 132,-1,33
 155.5 741 155.5 741 163.5 749 c 4,18,19
204.5 633 m 4,34,35
 216.5 633 216.5 633 233 647 c 132,-1,36
 249.5 661 249.5 661 249.5 687 c 4,37,38
 249.5 707 249.5 707 239 720.5 c 132,-1,39
 228.5 734 228.5 734 211.5 734 c 260,40,41
 194.5 734 194.5 734 180.5 720.5 c 132,-1,42
 166.5 707 166.5 707 166.5 683 c 260,43,44
 166.5 659 166.5 659 177.5 646 c 132,-1,45
 188.5 633 188.5 633 204.5 633 c 4,34,35
40 0 m 1,46,-1
 40 60 l 1,47,-1
 231 75 l 1,48,-1
 231 461 l 1,49,-1
 56 474 l 1,50,-1
 56 536 l 1,51,-1
 321 536 l 1,52,-1
 321 75 l 1,53,-1
 500 60 l 1,54,-1
 500 0 l 1,55,-1
 40 0 l 1,46,-1
EndSplineSet
EndChar

StartChar: j
Encoding: 106 106 76
Width: 540
GlyphClass: 2
Flags: W
LayerCount: 2
Fore
SplineSet
273 -8 m 0,0,1
 228 -8 228 -8 196 4.5 c 128,-1,2
 164 17 164 17 144 38.5 c 128,-1,3
 124 60 124 60 115 88.5 c 128,-1,4
 106 117 106 117 106 149 c 0,5,6
 106 203 106 203 119 221.5 c 128,-1,7
 132 240 132 240 148 240 c 0,8,9
 156 240 156 240 165 238 c 128,-1,10
 174 236 174 236 182 230.5 c 128,-1,11
 190 225 190 225 195 215 c 128,-1,12
 200 205 200 205 200 188 c 0,13,14
 200 172 200 172 201.5 153 c 128,-1,15
 203 134 203 134 208.5 118 c 128,-1,16
 214 102 214 102 225 91.5 c 128,-1,17
 236 81 236 81 256 81 c 0,18,19
 274 81 274 81 286 86 c 128,-1,20
 298 91 298 91 305.5 104.5 c 128,-1,21
 313 118 313 118 316 141 c 128,-1,22
 319 164 319 164 319 199 c 0,23,24
 319 237 319 237 319.5 290 c 128,-1,25
 320 343 320 343 320 412 c 2,26,-1
 320 517 l 2,27,28
 320 525 320 525 312.5 530.5 c 128,-1,29
 305 536 305 536 297 536 c 2,30,-1
 256 536 l 2,31,32
 202 536 202 536 179.5 546 c 128,-1,33
 157 556 157 556 157 579 c 0,34,35
 157 594 157 594 165 601.5 c 128,-1,36
 173 609 173 609 191 612 c 128,-1,37
 209 615 209 615 238 615.5 c 128,-1,38
 267 616 267 616 309 616 c 0,39,40
 369 616 369 616 398.5 609 c 128,-1,41
 428 602 428 602 433 584 c 0,42,43
 434 581 434 581 434 558.5 c 128,-1,44
 434 536 434 536 434 502.5 c 128,-1,45
 434 469 434 469 433.5 429.5 c 128,-1,46
 433 390 433 390 433 353 c 0,47,48
 432 289 432 289 432 247 c 128,-1,49
 432 205 432 205 431.5 177 c 128,-1,50
 431 149 431 149 428.5 129.5 c 128,-1,51
 426 110 426 110 421 90 c 0,52,53
 414 65 414 65 398 46.5 c 128,-1,54
 382 28 382 28 361 16 c 128,-1,55
 340 4 340 4 317 -2 c 128,-1,56
 294 -8 294 -8 273 -8 c 0,0,1
213 594 m 0,57,58
 215 599 215 599 211 600 c 0,59,60
 204 602 204 602 190.5 598 c 128,-1,61
 177 594 177 594 175 587 c 0,62,63
 174 584 174 584 175 580.5 c 128,-1,64
 176 577 176 577 178 576 c 0,65,66
 186 574 186 574 198.5 581 c 128,-1,67
 211 588 211 588 213 594 c 0,57,58
127 144 m 0,68,69
 132 145 132 145 133.5 157 c 128,-1,70
 135 169 135 169 136 173 c 0,71,72
 138 183 138 183 140.5 194 c 128,-1,73
 143 205 143 205 150 214 c 0,74,75
 155 219 155 219 154 223 c 0,76,77
 154 225 154 225 152 226.5 c 128,-1,78
 150 228 150 228 148 227 c 0,79,80
 139 226 139 226 133 217 c 128,-1,81
 127 208 127 208 124 197 c 128,-1,82
 121 186 121 186 120 176 c 128,-1,83
 119 166 119 166 119 163 c 0,84,85
 120 155 120 155 122 149 c 128,-1,86
 124 143 124 143 127 144 c 0,68,69
EndSplineSet
EndChar

StartChar: k
Encoding: 107 107 77
Width: 540
GlyphClass: 2
Flags: W
LayerCount: 2
Fore
SplineSet
127 0 m 0,0,1
 106 0 106 0 96 11 c 128,-1,2
 86 22 86 22 82.5 38.5 c 128,-1,3
 79 55 79 55 79 73 c 128,-1,4
 79 91 79 91 79 105 c 2,5,-1
 79 204 l 1,6,-1
 78 402 l 1,7,-1
 78 501 l 2,8,9
 78 533 78 533 80 554 c 128,-1,10
 82 575 82 575 88 590 c 128,-1,11
 94 605 94 605 105.5 613 c 128,-1,12
 117 621 117 621 137 621 c 4,13,14
 160 621 160 621 177.5 602.5 c 128,-1,15
 195 584 195 584 195 554 c 0,16,17
 195 549 195 549 194.5 533 c 128,-1,18
 194 517 194 517 194 493.5 c 128,-1,19
 194 470 194 470 194 446.5 c 128,-1,20
 194 423 194 423 194 403.5 c 128,-1,21
 194 384 194 384 195.5 371 c 128,-1,22
 197 358 197 358 199 358 c 0,23,24
 203 358 203 358 215 377 c 128,-1,25
 227 396 227 396 243 425 c 128,-1,26
 259 454 259 454 278 487 c 128,-1,27
 297 520 297 520 316 549 c 128,-1,28
 335 578 335 578 351.5 597 c 128,-1,29
 368 616 368 616 379 616 c 0,30,31
 388 616 388 616 399 613 c 128,-1,32
 410 610 410 610 419 604 c 128,-1,33
 428 598 428 598 434 589 c 128,-1,34
 440 580 440 580 440 567 c 0,35,36
 440 559 440 559 429 538.5 c 128,-1,37
 418 518 418 518 402 492 c 128,-1,38
 386 466 386 466 366.5 437.5 c 128,-1,39
 347 409 347 409 331 385 c 128,-1,40
 315 361 315 361 304 344 c 128,-1,41
 293 327 293 327 293 324 c 0,42,43
 293 320 293 320 305.5 300.5 c 128,-1,44
 318 281 318 281 337 253.5 c 128,-1,45
 356 226 356 226 377.5 194 c 128,-1,46
 399 162 399 162 418 133 c 128,-1,47
 437 104 437 104 449.5 81 c 128,-1,48
 462 58 462 58 462 48 c 0,49,50
 462 35 462 35 453.5 26 c 128,-1,51
 445 17 445 17 433 11 c 128,-1,52
 421 5 421 5 409 2 c 128,-1,53
 397 -1 397 -1 389 -1 c 0,54,55
 375 -1 375 -1 360 18 c 0,56,57
 341 41 341 41 333 57 c 0,58,59
 329 65 329 65 315 87.5 c 128,-1,60
 301 110 301 110 285 136 c 0,61,62
 259 179 259 179 253 186 c 0,63,64
 236 210 236 210 228 223 c 0,65,66
 225 228 225 228 220 228 c 0,67,68
 216 229 216 229 211 223 c 2,69,-1
 201 210 l 2,70,71
 193 200 193 200 193 178 c 2,72,-1
 193 155 l 1,73,-1
 194 125 l 1,74,-1
 194 102 l 2,75,76
 194 51 194 51 178 25.5 c 128,-1,77
 162 0 162 0 127 0 c 0,0,1
97 566 m 0,78,79
 102 565 102 565 107 568.5 c 128,-1,80
 112 572 112 572 116.5 577.5 c 128,-1,81
 121 583 121 583 124.5 589 c 128,-1,82
 128 595 128 595 129 599 c 0,83,84
 130 602 130 602 127 604.5 c 128,-1,85
 124 607 124 607 121 607 c 0,86,87
 117 607 117 607 112.5 602.5 c 128,-1,88
 108 598 108 598 103.5 591.5 c 128,-1,89
 99 585 99 585 96.5 579 c 128,-1,90
 94 573 94 573 94 570 c 0,91,92
 94 566 94 566 97 566 c 0,78,79
353 558 m 0,93,94
 356 558 356 558 361.5 562.5 c 128,-1,95
 367 567 367 567 372 573.5 c 128,-1,96
 377 580 377 580 380.5 586.5 c 128,-1,97
 384 593 384 593 383 597 c 0,98,99
 383 601 383 601 379 601 c 0,100,101
 376 602 376 602 370 597.5 c 128,-1,102
 364 593 364 593 358.5 586.5 c 128,-1,103
 353 580 353 580 349 573.5 c 128,-1,104
 345 567 345 567 346 564 c 0,105,106
 348 559 348 559 353 558 c 0,93,94
112 81 m 0,107,108
 112 85 112 85 112 97.5 c 128,-1,109
 112 110 112 110 111 123.5 c 128,-1,110
 110 137 110 137 108 147.5 c 128,-1,111
 106 158 106 158 102 158 c 0,112,113
 99 158 99 158 96.5 153 c 128,-1,114
 94 148 94 148 93 141 c 128,-1,115
 92 134 92 134 91.5 127.5 c 128,-1,116
 91 121 91 121 91 119 c 0,117,118
 91 115 91 115 91 104.5 c 128,-1,119
 91 94 91 94 92.5 83 c 128,-1,120
 94 72 94 72 97 63 c 128,-1,121
 100 54 100 54 106 54 c 0,122,123
 108 54 108 54 109.5 58 c 128,-1,124
 111 62 111 62 111.5 66.5 c 128,-1,125
 112 71 112 71 112 75.5 c 128,-1,126
 112 80 112 80 112 81 c 0,107,108
392 21 m 0,127,128
 392 24 392 24 389 30.5 c 128,-1,129
 386 37 386 37 381.5 43 c 128,-1,130
 377 49 377 49 372 54 c 128,-1,131
 367 59 367 59 364 59 c 0,132,133
 362 59 362 59 361 55.5 c 128,-1,134
 360 52 360 52 360 50 c 0,135,136
 360 47 360 47 362.5 41 c 128,-1,137
 365 35 365 35 368.5 29 c 128,-1,138
 372 23 372 23 377 19 c 128,-1,139
 382 15 382 15 386 15 c 0,140,141
 392 15 392 15 392 21 c 0,127,128
121 31 m 0,142,143
 123 36 123 36 119 41 c 128,-1,144
 115 46 115 46 110 46 c 0,145,146
 104 46 104 46 100.5 41 c 128,-1,147
 97 36 97 36 99 31 c 0,148,149
 103 21 103 21 110 21 c 256,150,151
 117 21 117 21 121 31 c 0,142,143
EndSplineSet
EndChar

StartChar: l
Encoding: 108 108 78
Width: 540
GlyphClass: 2
Flags: W
LayerCount: 2
Fore
SplineSet
91.5 0 m 2,0,1
 80.5 0 80.5 0 72 8 c 128,-1,2
 63.5 16 63.5 16 63.5 27 c 2,3,-1
 63.5 553 l 2,4,5
 63.5 564 63.5 564 65 575 c 128,-1,6
 66.5 586 66.5 586 72.5 595 c 128,-1,7
 78.5 604 78.5 604 90 610 c 128,-1,8
 101.5 616 101.5 616 121.5 616 c 0,9,10
 144.5 616 144.5 616 161 598 c 128,-1,11
 177.5 580 177.5 580 177.5 560 c 2,12,-1
 177.5 121 l 2,13,14
 177.5 103 177.5 103 254 98.5 c 128,-1,15
 330.5 94 330.5 94 339.5 94 c 0,16,17
 356.5 94 356.5 94 370 94.5 c 128,-1,18
 383.5 95 383.5 95 396 95.5 c 128,-1,19
 408.5 96 408.5 96 422 96.5 c 128,-1,20
 435.5 97 435.5 97 452.5 97 c 0,21,22
 466.5 97 466.5 97 471.5 82.5 c 128,-1,23
 476.5 68 476.5 68 476.5 54 c 0,24,25
 476.5 34 476.5 34 464 16.5 c 128,-1,26
 451.5 -1 451.5 -1 437.5 -1 c 2,27,-1
 390.5 -1 l 1,28,-1
 168.5 0 l 1,29,-1
 91.5 0 l 2,0,1
81.5 549 m 0,30,31
 84.5 549 84.5 549 89 555.5 c 128,-1,32
 93.5 562 93.5 562 98 571 c 128,-1,33
 102.5 580 102.5 580 106 588 c 128,-1,34
 109.5 596 109.5 596 109.5 599 c 0,35,36
 109.5 604 109.5 604 101.5 604 c 0,37,38
 96.5 604 96.5 604 91.5 597.5 c 128,-1,39
 86.5 591 86.5 591 83 583 c 128,-1,40
 79.5 575 79.5 575 77.5 567 c 128,-1,41
 75.5 559 75.5 559 76.5 555 c 0,42,43
 76.5 549 76.5 549 81.5 549 c 0,30,31
92.5 59 m 0,44,45
 97.5 59 97.5 59 99.5 70 c 128,-1,46
 101.5 81 101.5 81 102.5 96.5 c 128,-1,47
 103.5 112 103.5 112 103 128.5 c 128,-1,48
 102.5 145 102.5 145 102.5 155 c 0,49,50
 102.5 159 102.5 159 102 165 c 128,-1,51
 101.5 171 101.5 171 100 177 c 128,-1,52
 98.5 183 98.5 183 96 187 c 128,-1,53
 93.5 191 93.5 191 88.5 191 c 0,54,55
 85.5 191 85.5 191 84 182.5 c 128,-1,56
 82.5 174 82.5 174 81.5 163 c 128,-1,57
 80.5 152 80.5 152 80.5 142.5 c 128,-1,58
 80.5 133 80.5 133 80.5 130 c 256,59,60
 80.5 127 80.5 127 81 115.5 c 128,-1,61
 81.5 104 81.5 104 83 91.5 c 128,-1,62
 84.5 79 84.5 79 86.5 69 c 128,-1,63
 88.5 59 88.5 59 92.5 59 c 0,44,45
109.5 30 m 0,64,65
 109.5 41 109.5 41 102.5 41 c 0,66,67
 92.5 41 92.5 41 92.5 30 c 0,68,69
 92.5 22 92.5 22 100.5 22 c 0,70,71
 103.5 22 103.5 22 106.5 24 c 128,-1,72
 109.5 26 109.5 26 109.5 30 c 0,64,65
EndSplineSet
EndChar

StartChar: m
Encoding: 109 109 79
Width: 540
GlyphClass: 2
Flags: W
LayerCount: 2
Fore
SplineSet
45.5 0 m 0,0,1
 30.5 0 30.5 0 21.5 5.5 c 128,-1,2
 12.5 11 12.5 11 8 20 c 128,-1,3
 3.5 29 3.5 29 2 40.5 c 128,-1,4
 0.5 52 0.5 52 0.5 65 c 2,5,-1
 0.5 542 l 2,6,7
 0.5 553 0.5 553 1 566 c 128,-1,8
 1.5 579 1.5 579 5.5 590 c 128,-1,9
 9.5 601 9.5 601 18.5 608.5 c 128,-1,10
 27.5 616 27.5 616 43.5 616 c 0,11,12
 63.5 616 63.5 616 73.5 601.5 c 128,-1,13
 83.5 587 83.5 587 88 569 c 128,-1,14
 92.5 551 92.5 551 93.5 536.5 c 128,-1,15
 94.5 522 94.5 522 96.5 522 c 256,16,17
 98.5 522 98.5 522 102.5 537.5 c 128,-1,18
 106.5 553 106.5 553 117 571 c 128,-1,19
 127.5 589 127.5 589 146.5 604.5 c 128,-1,20
 165.5 620 165.5 620 198.5 620 c 0,21,22
 226.5 620 226.5 620 244.5 605 c 128,-1,23
 262.5 590 262.5 590 273.5 571.5 c 128,-1,24
 284.5 553 284.5 553 290.5 538 c 128,-1,25
 296.5 523 296.5 523 299.5 523 c 256,26,27
 302.5 523 302.5 523 308 538 c 128,-1,28
 313.5 553 313.5 553 324.5 571.5 c 128,-1,29
 335.5 590 335.5 590 355 605 c 128,-1,30
 374.5 620 374.5 620 406.5 620 c 0,31,32
 447.5 620 447.5 620 473.5 600 c 128,-1,33
 499.5 580 499.5 580 514 544.5 c 128,-1,34
 528.5 509 528.5 509 534 460.5 c 128,-1,35
 539.5 412 539.5 412 539.5 356 c 2,36,-1
 539.5 27 l 2,37,38
 539.5 13 539.5 13 520.5 6.5 c 128,-1,39
 501.5 0 501.5 0 481.5 0 c 256,40,41
 461.5 0 461.5 0 450.5 5.5 c 128,-1,42
 439.5 11 439.5 11 439.5 26 c 2,43,-1
 439.5 347 l 2,44,45
 439.5 359 439.5 359 439.5 387.5 c 128,-1,46
 439.5 416 439.5 416 435 446 c 128,-1,47
 430.5 476 430.5 476 420 498.5 c 128,-1,48
 409.5 521 409.5 521 388.5 521 c 0,49,50
 370.5 521 370.5 521 359 507 c 128,-1,51
 347.5 493 347.5 493 340.5 468.5 c 128,-1,52
 333.5 444 333.5 444 330 409.5 c 128,-1,53
 326.5 375 326.5 375 324.5 333 c 0,54,55
 321.5 284 321.5 284 320.5 234 c 128,-1,56
 319.5 184 319.5 184 320 141.5 c 128,-1,57
 320.5 99 320.5 99 321 69.5 c 128,-1,58
 321.5 40 321.5 40 321.5 31 c 0,59,60
 321.5 17 321.5 17 305 8.5 c 128,-1,61
 288.5 0 288.5 0 264.5 0 c 256,62,63
 240.5 0 240.5 0 230.5 7 c 128,-1,64
 220.5 14 220.5 14 220.5 38 c 2,65,-1
 220.5 347 l 2,66,67
 220.5 358 220.5 358 220.5 387 c 128,-1,68
 220.5 416 220.5 416 216.5 446 c 128,-1,69
 212.5 476 212.5 476 202.5 499 c 128,-1,70
 192.5 522 192.5 522 172.5 522 c 0,71,72
 154.5 522 154.5 522 142 506.5 c 128,-1,73
 129.5 491 129.5 491 121.5 467 c 128,-1,74
 113.5 443 113.5 443 109 413 c 128,-1,75
 104.5 383 104.5 383 102.5 355 c 128,-1,76
 100.5 327 100.5 327 100 303 c 128,-1,77
 99.5 279 99.5 279 99.5 267 c 2,78,-1
 99.5 45 l 2,79,80
 99.5 26 99.5 26 83.5 13 c 128,-1,81
 67.5 0 67.5 0 45.5 0 c 0,0,1
24.5 522 m 0,82,83
 30.5 523 30.5 523 31 533.5 c 128,-1,84
 31.5 544 31.5 544 31.5 552 c 0,85,86
 31.5 559 31.5 559 33.5 567.5 c 128,-1,87
 35.5 576 35.5 576 37 583 c 128,-1,88
 38.5 590 38.5 590 38.5 595 c 128,-1,89
 38.5 600 38.5 600 34.5 600 c 0,90,91
 27.5 600 27.5 600 23 593.5 c 128,-1,92
 18.5 587 18.5 587 16.5 578 c 128,-1,93
 14.5 569 14.5 569 13.5 561 c 128,-1,94
 12.5 553 12.5 553 12.5 550 c 0,95,96
 12.5 542 12.5 542 14.5 531.5 c 128,-1,97
 16.5 521 16.5 521 24.5 522 c 0,82,83
255.5 23 m 0,98,99
 255.5 33 255.5 33 249 36.5 c 128,-1,100
 242.5 40 242.5 40 242.5 51 c 0,101,102
 242.5 53 242.5 53 242.5 58.5 c 128,-1,103
 242.5 64 242.5 64 242 69.5 c 128,-1,104
 241.5 75 241.5 75 239.5 79.5 c 128,-1,105
 237.5 84 237.5 84 234.5 84 c 0,106,107
 232.5 84 232.5 84 231.5 79.5 c 128,-1,108
 230.5 75 230.5 75 230 69 c 128,-1,109
 229.5 63 229.5 63 229.5 57.5 c 128,-1,110
 229.5 52 229.5 52 229.5 50 c 0,111,112
 229.5 38 229.5 38 233 24.5 c 128,-1,113
 236.5 11 236.5 11 246.5 11 c 0,114,115
 255.5 11 255.5 11 255.5 23 c 0,98,99
471.5 24 m 0,116,117
 471.5 34 471.5 34 466 41.5 c 128,-1,118
 460.5 49 460.5 49 460.5 60 c 0,119,120
 460.5 64 460.5 64 460 74 c 128,-1,121
 459.5 84 459.5 84 453.5 84 c 0,122,123
 448.5 84 448.5 84 448 73 c 128,-1,124
 447.5 62 447.5 62 447.5 59 c 256,125,126
 447.5 56 447.5 56 448 48 c 128,-1,127
 448.5 40 448.5 40 450.5 32.5 c 128,-1,128
 452.5 25 452.5 25 455.5 19 c 128,-1,129
 458.5 13 458.5 13 463.5 13 c 0,130,131
 467.5 13 467.5 13 469.5 17.5 c 128,-1,132
 471.5 22 471.5 22 471.5 24 c 0,116,117
43.5 24 m 0,133,134
 43.5 35 43.5 35 39 36 c 128,-1,135
 34.5 37 34.5 37 29.5 44 c 0,136,137
 28.5 46 28.5 46 28 51.5 c 128,-1,138
 27.5 57 27.5 57 27.5 62.5 c 128,-1,139
 27.5 68 27.5 68 26 72.5 c 128,-1,140
 24.5 77 24.5 77 21.5 77 c 0,141,142
 16.5 77 16.5 77 16 67.5 c 128,-1,143
 15.5 58 15.5 58 15.5 51 c 0,144,145
 15.5 47 15.5 47 16.5 41 c 128,-1,146
 17.5 35 17.5 35 20 29 c 128,-1,147
 22.5 23 22.5 23 26 18.5 c 128,-1,148
 29.5 14 29.5 14 34.5 14 c 0,149,150
 43.5 14 43.5 14 43.5 24 c 0,133,134
EndSplineSet
EndChar

StartChar: n
Encoding: 110 110 80
Width: 540
GlyphClass: 2
Flags: W
LayerCount: 2
Fore
SplineSet
47.5 0 m 1,0,-1
 47.5 536 l 1,1,-1
 119.5 536 l 1,2,-1
 132.5 457 l 1,3,-1
 137.5 457 l 1,4,5
 153.5 488 153.5 488 179 507.5 c 128,-1,6
 204.5 527 204.5 527 238.5 536.5 c 128,-1,7
 272.5 546 272.5 546 312.5 546 c 0,8,9
 393.5 546 393.5 546 443 500.5 c 128,-1,10
 492.5 455 492.5 455 492.5 358 c 2,11,-1
 492.5 0 l 1,12,-1
 402.5 0 l 1,13,-1
 402.5 342 l 2,14,15
 402.5 410 402.5 410 375 441.5 c 128,-1,16
 347.5 473 347.5 473 286.5 473 c 0,17,18
 204.5 473 204.5 473 171 421 c 128,-1,19
 137.5 369 137.5 369 137.5 275 c 2,20,-1
 137.5 0 l 1,21,-1
 47.5 0 l 1,0,-1
EndSplineSet
EndChar

StartChar: o
Encoding: 111 111 81
Width: 540
GlyphClass: 2
Flags: W
LayerCount: 2
Fore
SplineSet
268.5 241 m 260,0,1
 242.5 241 242.5 241 224 257 c 132,-1,2
 205.5 273 205.5 273 205.5 304 c 4,3,4
 205.5 337 205.5 337 224 352.5 c 132,-1,5
 242.5 368 242.5 368 268.5 368 c 260,6,7
 294.5 368 294.5 368 313 352.5 c 132,-1,8
 331.5 337 331.5 337 331.5 304 c 4,9,10
 331.5 273 331.5 273 313 257 c 132,-1,11
 294.5 241 294.5 241 268.5 241 c 260,0,1
271 19 m 0,12,13
 219 19 219 19 174 36 c 128,-1,14
 129 53 129 53 95.5 88 c 128,-1,15
 62 123 62 123 43.5 175.5 c 128,-1,16
 25 228 25 228 25 299 c 0,17,18
 25 392 25 392 56.5 453 c 128,-1,19
 88 514 88 514 143 544.5 c 128,-1,20
 198 575 198 575 268 575 c 256,21,22
 338 575 338 575 394 544.5 c 128,-1,23
 450 514 450 514 482.5 452.5 c 128,-1,24
 515 391 515 391 515 296 c 0,25,26
 515 226 515 226 496.5 174 c 128,-1,27
 478 122 478 122 445.5 87.5 c 128,-1,28
 413 53 413 53 368.5 36 c 128,-1,29
 324 19 324 19 271 19 c 0,12,13
270 92 m 256,30,31
 322 92 322 92 356 117 c 128,-1,32
 390 142 390 142 407 188.5 c 128,-1,33
 424 235 424 235 424 298 c 0,34,35
 424 362 424 362 407 407.5 c 128,-1,36
 390 453 390 453 355.5 477.5 c 128,-1,37
 321 502 321 502 269 502 c 0,38,39
 191 502 191 502 152.5 447.5 c 128,-1,40
 114 393 114 393 114 298 c 0,41,42
 114 235 114 235 131.5 188.5 c 128,-1,43
 149 142 149 142 183.5 117 c 128,-1,44
 218 92 218 92 270 92 c 256,30,31
EndSplineSet
EndChar

StartChar: p
Encoding: 112 112 82
Width: 540
GlyphClass: 2
Flags: W
LayerCount: 2
Fore
SplineSet
37.5 -240 m 1,0,-1
 37.5 536 l 1,1,-1
 111.5 536 l 1,2,-1
 122.5 463 l 1,3,-1
 126.5 463 l 1,4,5
 142.5 489 142.5 489 164.5 507.5 c 128,-1,6
 186.5 526 186.5 526 216.5 536 c 128,-1,7
 246.5 546 246.5 546 286.5 546 c 0,8,9
 335.5 546 335.5 546 375.5 528.5 c 128,-1,10
 415.5 511 415.5 511 444 476 c 128,-1,11
 472.5 441 472.5 441 487.5 389 c 128,-1,12
 502.5 337 502.5 337 502.5 269 c 0,13,14
 502.5 178 502.5 178 476 115.5 c 128,-1,15
 449.5 53 449.5 53 401 21.5 c 128,-1,16
 352.5 -10 352.5 -10 286.5 -10 c 0,17,18
 247.5 -10 247.5 -10 217 1 c 128,-1,19
 186.5 12 186.5 12 164.5 30 c 128,-1,20
 142.5 48 142.5 48 126.5 69 c 1,21,-1
 120.5 69 l 1,22,23
 123.5 50 123.5 50 125 29.5 c 128,-1,24
 126.5 9 126.5 9 126.5 -11 c 2,25,-1
 126.5 -240 l 1,26,-1
 37.5 -240 l 1,0,-1
267.5 63 m 0,27,28
 342.5 63 342.5 63 376.5 114.5 c 128,-1,29
 410.5 166 410.5 166 410.5 271 c 0,30,31
 410.5 374 410.5 374 377 423.5 c 128,-1,32
 343.5 473 343.5 473 266.5 473 c 0,33,34
 193.5 473 193.5 473 160 425.5 c 128,-1,35
 126.5 378 126.5 378 126.5 289 c 2,36,-1
 126.5 269 l 2,37,38
 126.5 174 126.5 174 157 118.5 c 128,-1,39
 187.5 63 187.5 63 267.5 63 c 0,27,28
EndSplineSet
EndChar

StartChar: q
Encoding: 113 113 83
Width: 540
GlyphClass: 2
Flags: W
LayerCount: 2
Fore
SplineSet
413.5 -11 m 2,0,1
 413.5 2 413.5 2 414 16 c 128,-1,2
 414.5 30 414.5 30 415.5 44 c 128,-1,3
 416.5 58 416.5 58 416.5 72 c 1,4,-1
 413.5 72 l 1,5,6
 391.5 38 391.5 38 354 14 c 128,-1,7
 316.5 -10 316.5 -10 256.5 -10 c 0,8,9
 208.5 -10 208.5 -10 168 7.5 c 128,-1,10
 127.5 25 127.5 25 98.5 60 c 128,-1,11
 69.5 95 69.5 95 53.5 147 c 128,-1,12
 37.5 199 37.5 199 37.5 267 c 0,13,14
 37.5 336 37.5 336 53.5 388 c 128,-1,15
 69.5 440 69.5 440 99.5 475 c 128,-1,16
 129.5 510 129.5 510 169.5 528 c 128,-1,17
 209.5 546 209.5 546 257.5 546 c 0,18,19
 316.5 546 316.5 546 354 522 c 128,-1,20
 391.5 498 391.5 498 413.5 464 c 1,21,-1
 417.5 464 l 1,22,-1
 430.5 536 l 1,23,-1
 502.5 536 l 1,24,-1
 502.5 -240 l 1,25,-1
 413.5 -240 l 1,26,-1
 413.5 -11 l 2,0,1
272.5 63 m 0,27,28
 342.5 63 342.5 63 378 109 c 128,-1,29
 413.5 155 413.5 155 413.5 247 c 2,30,-1
 413.5 267 l 2,31,32
 413.5 364 413.5 364 382 418.5 c 128,-1,33
 350.5 473 350.5 473 270.5 473 c 0,34,35
 197.5 473 197.5 473 163.5 420 c 128,-1,36
 129.5 367 129.5 367 129.5 266 c 0,37,38
 129.5 174 129.5 174 164 118.5 c 128,-1,39
 198.5 63 198.5 63 272.5 63 c 0,27,28
EndSplineSet
EndChar

StartChar: r
Encoding: 114 114 84
Width: 540
GlyphClass: 2
Flags: W
LayerCount: 2
Fore
SplineSet
15 0 m 1,0,-1
 15 60 l 1,1,-1
 178 75 l 1,2,-1
 178 461 l 1,3,-1
 31 474 l 1,4,-1
 31 536 l 1,5,-1
 250 536 l 1,6,-1
 262 438 l 1,7,-1
 266 438 l 1,8,9
 294 491 294 491 327.5 518.5 c 128,-1,10
 361 546 361 546 416 546 c 0,11,12
 450 546 450 546 476.5 540 c 128,-1,13
 503 534 503 534 525 524 c 1,14,-1
 501 445 l 1,15,16
 485 454 485 454 463 460.5 c 128,-1,17
 441 467 441 467 416 467 c 0,18,19
 373 467 373 467 340 440 c 128,-1,20
 307 413 307 413 288 368 c 128,-1,21
 269 323 269 323 269 269 c 2,22,-1
 269 75 l 1,23,-1
 425 60 l 1,24,-1
 425 0 l 1,25,-1
 15 0 l 1,0,-1
EndSplineSet
EndChar

StartChar: s
Encoding: 115 115 85
Width: 540
GlyphClass: 2
Flags: W
LayerCount: 2
Fore
SplineSet
249 -10 m 0,0,1
 199 -10 199 -10 153.5 -1 c 128,-1,2
 108 8 108 8 75 24 c 1,3,-1
 75 107 l 1,4,5
 110 91 110 91 152.5 77.5 c 128,-1,6
 195 64 195 64 254 64 c 0,7,8
 320 64 320 64 347.5 84.5 c 128,-1,9
 375 105 375 105 375 144 c 0,10,11
 375 165 375 165 365.5 178.5 c 128,-1,12
 356 192 356 192 329 206 c 128,-1,13
 302 220 302 220 250 242 c 0,14,15
 198 265 198 265 161 285 c 128,-1,16
 124 305 124 305 104 332.5 c 128,-1,17
 84 360 84 360 84 403 c 0,18,19
 84 451 84 451 108.5 482.5 c 128,-1,20
 133 514 133 514 179.5 530 c 128,-1,21
 226 546 226 546 290 546 c 0,22,23
 334 546 334 546 374 538 c 128,-1,24
 414 530 414 530 457 512 c 1,25,-1
 430 442 l 1,26,27
 390 459 390 459 356.5 465 c 128,-1,28
 323 471 323 471 290 471 c 0,29,30
 228 471 228 471 199.5 455 c 128,-1,31
 171 439 171 439 171 405 c 0,32,33
 171 383 171 383 183.5 368 c 128,-1,34
 196 353 196 353 224.5 339 c 128,-1,35
 253 325 253 325 300 305 c 0,36,37
 353 283 353 283 390 264 c 128,-1,38
 427 245 427 245 446 218.5 c 128,-1,39
 465 192 465 192 465 146 c 0,40,41
 465 95 465 95 440.5 60.5 c 128,-1,42
 416 26 416 26 368 8 c 128,-1,43
 320 -10 320 -10 249 -10 c 0,0,1
EndSplineSet
EndChar

StartChar: t
Encoding: 116 116 86
Width: 540
GlyphClass: 2
Flags: W
LayerCount: 2
Fore
SplineSet
386 -10 m 0,0,1
 329 -10 329 -10 284 5 c 128,-1,2
 239 20 239 20 212.5 58 c 128,-1,3
 186 96 186 96 186 163 c 2,4,-1
 186 461 l 1,5,-1
 40 461 l 1,6,-1
 40 523 l 1,7,-1
 186 539 l 1,8,-1
 204 679 l 1,9,-1
 276 679 l 1,10,-1
 276 536 l 1,11,-1
 485 536 l 1,12,-1
 485 461 l 1,13,-1
 276 461 l 1,14,-1
 276 180 l 2,15,16
 276 140 276 140 287.5 114 c 128,-1,17
 299 88 299 88 325 75.5 c 128,-1,18
 351 63 351 63 392 63 c 0,19,20
 418 63 418 63 448 68 c 128,-1,21
 478 73 478 73 500 78 c 1,22,-1
 500 6 l 1,23,24
 476 0 476 0 447 -5 c 128,-1,25
 418 -10 418 -10 386 -10 c 0,0,1
EndSplineSet
EndChar

StartChar: u
Encoding: 117 117 87
Width: 540
GlyphClass: 2
Flags: W
LayerCount: 2
Fore
SplineSet
233.5 -10 m 0,0,1
 138.5 -10 138.5 -10 93 37.5 c 128,-1,2
 47.5 85 47.5 85 47.5 179 c 2,3,-1
 47.5 536 l 1,4,-1
 137.5 536 l 1,5,-1
 137.5 193 l 2,6,7
 137.5 129 137.5 129 164 96 c 128,-1,8
 190.5 63 190.5 63 255.5 63 c 0,9,10
 311.5 63 311.5 63 343.5 86.5 c 128,-1,11
 375.5 110 375.5 110 389 154 c 128,-1,12
 402.5 198 402.5 198 402.5 260 c 2,13,-1
 402.5 536 l 1,14,-1
 492.5 536 l 1,15,-1
 492.5 0 l 1,16,-1
 420.5 0 l 1,17,-1
 407.5 72 l 1,18,-1
 402.5 72 l 1,19,20
 383.5 42 383.5 42 358.5 24 c 128,-1,21
 333.5 6 333.5 6 302.5 -2 c 128,-1,22
 271.5 -10 271.5 -10 233.5 -10 c 0,0,1
EndSplineSet
EndChar

StartChar: v
Encoding: 118 118 88
Width: 540
GlyphClass: 2
Flags: W
LayerCount: 2
Fore
SplineSet
183.5 311 m 1,0,-1
 151.5 389 l 1,1,-1
 393.5 389 l 1,2,-1
 359.5 311 l 1,3,-1
 183.5 311 l 1,0,-1
225.5 0 m 1,4,-1
 -0.5 545 l 1,5,-1
 -0.5 599 l 1,6,-1
 540.5 599 l 1,7,-1
 540.5 544 l 1,8,-1
 315.5 0 l 1,9,-1
 225.5 0 l 1,4,-1
271.5 98 m 1,10,-1
 444.5 520 l 1,11,-1
 98.5 520 l 1,12,-1
 271.5 98 l 1,10,-1
EndSplineSet
EndChar

StartChar: w
Encoding: 119 119 89
Width: 540
GlyphClass: 2
Flags: W
LayerCount: 2
Fore
SplineSet
160 -2 m 4,0,1
 125 -2 125 -2 102.5 5 c 132,-1,2
 80 12 80 12 71 29 c 4,3,4
 65 39 65 39 57 77.5 c 132,-1,5
 49 116 49 116 40 169.5 c 132,-1,6
 31 223 31 223 22 284.5 c 132,-1,7
 13 346 13 346 6 402.5 c 132,-1,8
 -1 459 -1 459 -5.5 503.5 c 132,-1,9
 -10 548 -10 548 -10 567 c 4,10,11
 -10 588 -10 588 4 603 c 132,-1,12
 18 618 18 618 39 618 c 260,13,14
 60 618 60 618 77.5 608 c 132,-1,15
 95 598 95 598 100 569 c 4,16,17
 102 560 102 560 105.5 520.5 c 132,-1,18
 109 481 109 481 114 428 c 132,-1,19
 119 375 119 375 125 315.5 c 132,-1,20
 131 256 131 256 137 206.5 c 132,-1,21
 143 157 143 157 148.5 124 c 132,-1,22
 154 91 154 91 158 91 c 4,23,24
 159 91 159 91 164 125 c 132,-1,25
 169 159 169 159 176.5 210.5 c 132,-1,26
 184 262 184 262 192 323 c 132,-1,27
 200 384 200 384 207.5 438.5 c 132,-1,28
 215 493 215 493 221 533 c 132,-1,29
 227 573 227 573 229 582 c 4,30,31
 234 605 234 605 245.5 611.5 c 132,-1,32
 257 618 257 618 277 618 c 4,33,34
 298 618 298 618 316 608 c 132,-1,35
 334 598 334 598 339 569 c 4,36,37
 340 562 340 562 342.5 537.5 c 132,-1,38
 345 513 345 513 348 478 c 132,-1,39
 351 443 351 443 354.5 400.5 c 132,-1,40
 358 358 358 358 362 314.5 c 132,-1,41
 366 271 366 271 370 230 c 132,-1,42
 374 189 374 189 378 157.5 c 132,-1,43
 382 126 382 126 386 107 c 132,-1,44
 390 88 390 88 393 88 c 4,45,46
 394 88 394 88 399 122 c 132,-1,47
 404 156 404 156 411.5 208 c 132,-1,48
 419 260 419 260 427 321.5 c 132,-1,49
 435 383 435 383 442.5 438 c 132,-1,50
 450 493 450 493 456 533 c 132,-1,51
 462 573 462 573 464 582 c 4,52,53
 468 599 468 599 476.5 608 c 132,-1,54
 485 617 485 617 495 617 c 4,55,56
 501 617 501 617 510.5 615 c 132,-1,57
 520 613 520 613 528.5 609 c 132,-1,58
 537 605 537 605 543.5 599 c 132,-1,59
 550 593 550 593 550 585 c 4,60,61
 550 579 550 579 545.5 541 c 132,-1,62
 541 503 541 503 533.5 449 c 132,-1,63
 526 395 526 395 516.5 331 c 132,-1,64
 507 267 507 267 497.5 208.5 c 132,-1,65
 488 150 488 150 479.5 104.5 c 132,-1,66
 471 59 471 59 465 40 c 4,67,68
 461 27 461 27 452 19 c 132,-1,69
 443 11 443 11 433 6.5 c 132,-1,70
 423 2 423 2 412.5 0 c 132,-1,71
 402 -2 402 -2 395 -2 c 4,72,73
 360 -2 360 -2 338 5 c 132,-1,74
 316 12 316 12 306 29 c 4,75,76
 304 33 304 33 300.5 54.5 c 132,-1,77
 297 76 297 76 293.5 105 c 132,-1,78
 290 134 290 134 286 167 c 132,-1,79
 282 200 282 200 278.5 228 c 132,-1,80
 275 256 275 256 272.5 274.5 c 132,-1,81
 270 293 270 293 268 293 c 260,82,83
 266 293 266 293 262.5 276 c 132,-1,84
 259 259 259 259 255 233.5 c 132,-1,85
 251 208 251 208 247.5 177 c 132,-1,86
 244 146 244 146 240.5 117.5 c 132,-1,87
 237 89 237 89 233.5 68 c 132,-1,88
 230 47 230 47 228 40 c 4,89,90
 224 27 224 27 215.5 19 c 132,-1,91
 207 11 207 11 197 6.5 c 132,-1,92
 187 2 187 2 177 0 c 132,-1,93
 167 -2 167 -2 160 -2 c 4,0,1
491 584 m 4,94,95
 491 597 491 597 487 597 c 4,96,97
 482 597 482 597 478.5 586 c 132,-1,98
 475 575 475 575 475 564 c 4,99,100
 475 559 475 559 476 554 c 132,-1,101
 477 549 477 549 479 549 c 260,102,103
 481 549 481 549 483.5 553.5 c 132,-1,104
 486 558 486 558 487.5 564 c 132,-1,105
 489 570 489 570 490 576 c 132,-1,106
 491 582 491 582 491 584 c 4,94,95
256 584 m 4,107,108
 256 597 256 597 252 597 c 4,109,110
 247 597 247 597 243.5 586 c 132,-1,111
 240 575 240 575 240 564 c 4,112,113
 240 559 240 559 241 554 c 132,-1,114
 242 549 242 549 244 549 c 260,115,116
 246 549 246 549 248.5 553.5 c 132,-1,117
 251 558 251 558 252.5 564 c 132,-1,118
 254 570 254 570 255 576 c 132,-1,119
 256 582 256 582 256 584 c 4,107,108
22 579 m 4,120,121
 27 587 27 587 24.5 591.5 c 132,-1,122
 22 596 22 596 18 596 c 4,123,124
 12 596 12 596 7.5 580.5 c 132,-1,125
 3 565 3 565 3 545 c 4,126,127
 3 522 3 522 8 522 c 4,128,129
 11 522 11 522 12 529.5 c 132,-1,130
 13 537 13 537 14.5 546.5 c 132,-1,131
 16 556 16 556 17.5 565.5 c 132,-1,132
 19 575 19 575 22 579 c 4,120,121
333 40 m 4,133,134
 326 52 326 52 322.5 67.5 c 132,-1,135
 319 83 319 83 313 83 c 4,136,137
 310 83 310 83 309.5 78.5 c 132,-1,138
 309 74 309 74 309 71 c 260,139,140
 309 68 309 68 310.5 60 c 132,-1,141
 312 52 312 52 315 44 c 132,-1,142
 318 36 318 36 321.5 29.5 c 132,-1,143
 325 23 325 23 329 23 c 4,144,145
 334 23 334 23 336 27.5 c 132,-1,146
 338 32 338 32 333 40 c 4,133,134
98 40 m 4,147,148
 91 52 91 52 87.5 67.5 c 132,-1,149
 84 83 84 83 78 83 c 4,150,151
 75 83 75 83 74.5 78.5 c 132,-1,152
 74 74 74 74 74 71 c 260,153,154
 74 68 74 68 75.5 60 c 132,-1,155
 77 52 77 52 80 44 c 132,-1,156
 83 36 83 36 86.5 29.5 c 132,-1,157
 90 23 90 23 94 23 c 4,158,159
 99 23 99 23 101 27.5 c 132,-1,160
 103 32 103 32 98 40 c 4,147,148
EndSplineSet
EndChar

